%TF.GenerationSoftware,KiCad,Pcbnew,(6.0.4)*%
%TF.CreationDate,2022-05-02T14:31:14-05:00*%
%TF.ProjectId,Schematic,53636865-6d61-4746-9963-2e6b69636164,1.0*%
%TF.SameCoordinates,Original*%
%TF.FileFunction,Legend,Top*%
%TF.FilePolarity,Positive*%
%FSLAX46Y46*%
G04 Gerber Fmt 4.6, Leading zero omitted, Abs format (unit mm)*
G04 Created by KiCad (PCBNEW (6.0.4)) date 2022-05-02 14:31:14*
%MOMM*%
%LPD*%
G01*
G04 APERTURE LIST*
%ADD10C,0.150000*%
%ADD11C,0.200000*%
%ADD12C,0.120000*%
%ADD13C,0.010000*%
G04 APERTURE END LIST*
D10*
X131445000Y-55245000D02*
X124460000Y-55245000D01*
X124460000Y-66040000D02*
X131445000Y-66040000D01*
X124460000Y-73025000D02*
X113665000Y-73025000D01*
X113665000Y-52705000D02*
X131445000Y-52705000D01*
X113665000Y-73025000D02*
X113665000Y-52705000D01*
X124460000Y-55245000D02*
X124460000Y-73025000D01*
X131445000Y-66040000D02*
X131445000Y-55245000D01*
X131445000Y-52705000D02*
X131445000Y-55245000D01*
X127150952Y-63782380D02*
X126579523Y-63782380D01*
X126865238Y-63782380D02*
X126865238Y-62782380D01*
X126770000Y-62925238D01*
X126674761Y-63020476D01*
X126579523Y-63068095D01*
X127579523Y-63115714D02*
X127579523Y-63782380D01*
X127579523Y-63210952D02*
X127627142Y-63163333D01*
X127722380Y-63115714D01*
X127865238Y-63115714D01*
X127960476Y-63163333D01*
X128008095Y-63258571D01*
X128008095Y-63782380D01*
X128912857Y-62782380D02*
X128722380Y-62782380D01*
X128627142Y-62830000D01*
X128579523Y-62877619D01*
X128484285Y-63020476D01*
X128436666Y-63210952D01*
X128436666Y-63591904D01*
X128484285Y-63687142D01*
X128531904Y-63734761D01*
X128627142Y-63782380D01*
X128817619Y-63782380D01*
X128912857Y-63734761D01*
X128960476Y-63687142D01*
X129008095Y-63591904D01*
X129008095Y-63353809D01*
X128960476Y-63258571D01*
X128912857Y-63210952D01*
X128817619Y-63163333D01*
X128627142Y-63163333D01*
X128531904Y-63210952D01*
X128484285Y-63258571D01*
X128436666Y-63353809D01*
X129627142Y-62782380D02*
X129722380Y-62782380D01*
X129817619Y-62830000D01*
X129865238Y-62877619D01*
X129912857Y-62972857D01*
X129960476Y-63163333D01*
X129960476Y-63401428D01*
X129912857Y-63591904D01*
X129865238Y-63687142D01*
X129817619Y-63734761D01*
X129722380Y-63782380D01*
X129627142Y-63782380D01*
X129531904Y-63734761D01*
X129484285Y-63687142D01*
X129436666Y-63591904D01*
X129389047Y-63401428D01*
X129389047Y-63163333D01*
X129436666Y-62972857D01*
X129484285Y-62877619D01*
X129531904Y-62830000D01*
X129627142Y-62782380D01*
X126508095Y-65392380D02*
X126508095Y-64392380D01*
X126508095Y-65344761D02*
X126412857Y-65392380D01*
X126222380Y-65392380D01*
X126127142Y-65344761D01*
X126079523Y-65297142D01*
X126031904Y-65201904D01*
X126031904Y-64916190D01*
X126079523Y-64820952D01*
X126127142Y-64773333D01*
X126222380Y-64725714D01*
X126412857Y-64725714D01*
X126508095Y-64773333D01*
X126984285Y-65392380D02*
X126984285Y-64725714D01*
X126984285Y-64392380D02*
X126936666Y-64440000D01*
X126984285Y-64487619D01*
X127031904Y-64440000D01*
X126984285Y-64392380D01*
X126984285Y-64487619D01*
X127603333Y-65392380D02*
X127508095Y-65344761D01*
X127460476Y-65297142D01*
X127412857Y-65201904D01*
X127412857Y-64916190D01*
X127460476Y-64820952D01*
X127508095Y-64773333D01*
X127603333Y-64725714D01*
X127746190Y-64725714D01*
X127841428Y-64773333D01*
X127889047Y-64820952D01*
X127936666Y-64916190D01*
X127936666Y-65201904D01*
X127889047Y-65297142D01*
X127841428Y-65344761D01*
X127746190Y-65392380D01*
X127603333Y-65392380D01*
X128793809Y-65392380D02*
X128793809Y-64392380D01*
X128793809Y-65344761D02*
X128698571Y-65392380D01*
X128508095Y-65392380D01*
X128412857Y-65344761D01*
X128365238Y-65297142D01*
X128317619Y-65201904D01*
X128317619Y-64916190D01*
X128365238Y-64820952D01*
X128412857Y-64773333D01*
X128508095Y-64725714D01*
X128698571Y-64725714D01*
X128793809Y-64773333D01*
X129650952Y-65344761D02*
X129555714Y-65392380D01*
X129365238Y-65392380D01*
X129270000Y-65344761D01*
X129222380Y-65249523D01*
X129222380Y-64868571D01*
X129270000Y-64773333D01*
X129365238Y-64725714D01*
X129555714Y-64725714D01*
X129650952Y-64773333D01*
X129698571Y-64868571D01*
X129698571Y-64963809D01*
X129222380Y-65059047D01*
X130079523Y-65344761D02*
X130174761Y-65392380D01*
X130365238Y-65392380D01*
X130460476Y-65344761D01*
X130508095Y-65249523D01*
X130508095Y-65201904D01*
X130460476Y-65106666D01*
X130365238Y-65059047D01*
X130222380Y-65059047D01*
X130127142Y-65011428D01*
X130079523Y-64916190D01*
X130079523Y-64868571D01*
X130127142Y-64773333D01*
X130222380Y-64725714D01*
X130365238Y-64725714D01*
X130460476Y-64773333D01*
X121712023Y-51887380D02*
X121140595Y-51887380D01*
X121426309Y-51887380D02*
X121426309Y-50887380D01*
X121331071Y-51030238D01*
X121235833Y-51125476D01*
X121140595Y-51173095D01*
X122331071Y-50887380D02*
X122426309Y-50887380D01*
X122521547Y-50935000D01*
X122569166Y-50982619D01*
X122616785Y-51077857D01*
X122664404Y-51268333D01*
X122664404Y-51506428D01*
X122616785Y-51696904D01*
X122569166Y-51792142D01*
X122521547Y-51839761D01*
X122426309Y-51887380D01*
X122331071Y-51887380D01*
X122235833Y-51839761D01*
X122188214Y-51792142D01*
X122140595Y-51696904D01*
X122092976Y-51506428D01*
X122092976Y-51268333D01*
X122140595Y-51077857D01*
X122188214Y-50982619D01*
X122235833Y-50935000D01*
X122331071Y-50887380D01*
X123092976Y-51887380D02*
X123092976Y-50887380D01*
X123188214Y-51506428D02*
X123473928Y-51887380D01*
X123473928Y-51220714D02*
X123092976Y-51601666D01*
X124664404Y-51887380D02*
X124664404Y-51220714D01*
X124664404Y-51411190D02*
X124712023Y-51315952D01*
X124759642Y-51268333D01*
X124854880Y-51220714D01*
X124950119Y-51220714D01*
X125664404Y-51839761D02*
X125569166Y-51887380D01*
X125378690Y-51887380D01*
X125283452Y-51839761D01*
X125235833Y-51744523D01*
X125235833Y-51363571D01*
X125283452Y-51268333D01*
X125378690Y-51220714D01*
X125569166Y-51220714D01*
X125664404Y-51268333D01*
X125712023Y-51363571D01*
X125712023Y-51458809D01*
X125235833Y-51554047D01*
X126092976Y-51839761D02*
X126188214Y-51887380D01*
X126378690Y-51887380D01*
X126473928Y-51839761D01*
X126521547Y-51744523D01*
X126521547Y-51696904D01*
X126473928Y-51601666D01*
X126378690Y-51554047D01*
X126235833Y-51554047D01*
X126140595Y-51506428D01*
X126092976Y-51411190D01*
X126092976Y-51363571D01*
X126140595Y-51268333D01*
X126235833Y-51220714D01*
X126378690Y-51220714D01*
X126473928Y-51268333D01*
X126950119Y-51887380D02*
X126950119Y-51220714D01*
X126950119Y-50887380D02*
X126902500Y-50935000D01*
X126950119Y-50982619D01*
X126997738Y-50935000D01*
X126950119Y-50887380D01*
X126950119Y-50982619D01*
X127378690Y-51839761D02*
X127473928Y-51887380D01*
X127664404Y-51887380D01*
X127759642Y-51839761D01*
X127807261Y-51744523D01*
X127807261Y-51696904D01*
X127759642Y-51601666D01*
X127664404Y-51554047D01*
X127521547Y-51554047D01*
X127426309Y-51506428D01*
X127378690Y-51411190D01*
X127378690Y-51363571D01*
X127426309Y-51268333D01*
X127521547Y-51220714D01*
X127664404Y-51220714D01*
X127759642Y-51268333D01*
X128092976Y-51220714D02*
X128473928Y-51220714D01*
X128235833Y-50887380D02*
X128235833Y-51744523D01*
X128283452Y-51839761D01*
X128378690Y-51887380D01*
X128473928Y-51887380D01*
X128950119Y-51887380D02*
X128854880Y-51839761D01*
X128807261Y-51792142D01*
X128759642Y-51696904D01*
X128759642Y-51411190D01*
X128807261Y-51315952D01*
X128854880Y-51268333D01*
X128950119Y-51220714D01*
X129092976Y-51220714D01*
X129188214Y-51268333D01*
X129235833Y-51315952D01*
X129283452Y-51411190D01*
X129283452Y-51696904D01*
X129235833Y-51792142D01*
X129188214Y-51839761D01*
X129092976Y-51887380D01*
X128950119Y-51887380D01*
X129712023Y-51887380D02*
X129712023Y-51220714D01*
X129712023Y-51411190D02*
X129759642Y-51315952D01*
X129807261Y-51268333D01*
X129902500Y-51220714D01*
X129997738Y-51220714D01*
X130283452Y-51839761D02*
X130378690Y-51887380D01*
X130569166Y-51887380D01*
X130664404Y-51839761D01*
X130712023Y-51744523D01*
X130712023Y-51696904D01*
X130664404Y-51601666D01*
X130569166Y-51554047D01*
X130426309Y-51554047D01*
X130331071Y-51506428D01*
X130283452Y-51411190D01*
X130283452Y-51363571D01*
X130331071Y-51268333D01*
X130426309Y-51220714D01*
X130569166Y-51220714D01*
X130664404Y-51268333D01*
X80899047Y-127706428D02*
X81660952Y-127706428D01*
X81280000Y-128087380D02*
X81280000Y-127325476D01*
X125349047Y-58491428D02*
X126110952Y-58491428D01*
X125730000Y-58872380D02*
X125730000Y-58110476D01*
D11*
X113802857Y-105507571D02*
X113745714Y-105564714D01*
X113574285Y-105621857D01*
X113460000Y-105621857D01*
X113288571Y-105564714D01*
X113174285Y-105450428D01*
X113117142Y-105336142D01*
X113060000Y-105107571D01*
X113060000Y-104936142D01*
X113117142Y-104707571D01*
X113174285Y-104593285D01*
X113288571Y-104479000D01*
X113460000Y-104421857D01*
X113574285Y-104421857D01*
X113745714Y-104479000D01*
X113802857Y-104536142D01*
X114831428Y-105621857D02*
X114831428Y-104993285D01*
X114774285Y-104879000D01*
X114660000Y-104821857D01*
X114431428Y-104821857D01*
X114317142Y-104879000D01*
X114831428Y-105564714D02*
X114717142Y-105621857D01*
X114431428Y-105621857D01*
X114317142Y-105564714D01*
X114260000Y-105450428D01*
X114260000Y-105336142D01*
X114317142Y-105221857D01*
X114431428Y-105164714D01*
X114717142Y-105164714D01*
X114831428Y-105107571D01*
X115402857Y-104821857D02*
X115402857Y-105621857D01*
X115402857Y-104936142D02*
X115460000Y-104879000D01*
X115574285Y-104821857D01*
X115745714Y-104821857D01*
X115860000Y-104879000D01*
X115917142Y-104993285D01*
X115917142Y-105621857D01*
X116488571Y-104821857D02*
X116488571Y-105621857D01*
X116488571Y-104936142D02*
X116545714Y-104879000D01*
X116660000Y-104821857D01*
X116831428Y-104821857D01*
X116945714Y-104879000D01*
X117002857Y-104993285D01*
X117002857Y-105621857D01*
X118031428Y-105564714D02*
X117917142Y-105621857D01*
X117688571Y-105621857D01*
X117574285Y-105564714D01*
X117517142Y-105450428D01*
X117517142Y-104993285D01*
X117574285Y-104879000D01*
X117688571Y-104821857D01*
X117917142Y-104821857D01*
X118031428Y-104879000D01*
X118088571Y-104993285D01*
X118088571Y-105107571D01*
X117517142Y-105221857D01*
X119117142Y-105621857D02*
X119117142Y-104421857D01*
X119117142Y-105564714D02*
X119002857Y-105621857D01*
X118774285Y-105621857D01*
X118660000Y-105564714D01*
X118602857Y-105507571D01*
X118545714Y-105393285D01*
X118545714Y-105050428D01*
X118602857Y-104936142D01*
X118660000Y-104879000D01*
X118774285Y-104821857D01*
X119002857Y-104821857D01*
X119117142Y-104879000D01*
X120602857Y-105621857D02*
X120602857Y-104421857D01*
X121860000Y-105507571D02*
X121802857Y-105564714D01*
X121631428Y-105621857D01*
X121517142Y-105621857D01*
X121345714Y-105564714D01*
X121231428Y-105450428D01*
X121174285Y-105336142D01*
X121117142Y-105107571D01*
X121117142Y-104936142D01*
X121174285Y-104707571D01*
X121231428Y-104593285D01*
X121345714Y-104479000D01*
X121517142Y-104421857D01*
X121631428Y-104421857D01*
X121802857Y-104479000D01*
X121860000Y-104536142D01*
X122317142Y-105564714D02*
X122431428Y-105621857D01*
X122660000Y-105621857D01*
X122774285Y-105564714D01*
X122831428Y-105450428D01*
X122831428Y-105393285D01*
X122774285Y-105279000D01*
X122660000Y-105221857D01*
X122488571Y-105221857D01*
X122374285Y-105164714D01*
X122317142Y-105050428D01*
X122317142Y-104993285D01*
X122374285Y-104879000D01*
X122488571Y-104821857D01*
X122660000Y-104821857D01*
X122774285Y-104879000D01*
X112831428Y-107553857D02*
X112431428Y-106982428D01*
X112145714Y-107553857D02*
X112145714Y-106353857D01*
X112602857Y-106353857D01*
X112717142Y-106411000D01*
X112774285Y-106468142D01*
X112831428Y-106582428D01*
X112831428Y-106753857D01*
X112774285Y-106868142D01*
X112717142Y-106925285D01*
X112602857Y-106982428D01*
X112145714Y-106982428D01*
X113802857Y-107496714D02*
X113688571Y-107553857D01*
X113460000Y-107553857D01*
X113345714Y-107496714D01*
X113288571Y-107382428D01*
X113288571Y-106925285D01*
X113345714Y-106811000D01*
X113460000Y-106753857D01*
X113688571Y-106753857D01*
X113802857Y-106811000D01*
X113860000Y-106925285D01*
X113860000Y-107039571D01*
X113288571Y-107153857D01*
X114260000Y-106753857D02*
X114545714Y-107553857D01*
X114831428Y-106753857D01*
X115288571Y-107553857D02*
X115288571Y-106753857D01*
X115288571Y-106353857D02*
X115231428Y-106411000D01*
X115288571Y-106468142D01*
X115345714Y-106411000D01*
X115288571Y-106353857D01*
X115288571Y-106468142D01*
X115802857Y-107496714D02*
X115917142Y-107553857D01*
X116145714Y-107553857D01*
X116260000Y-107496714D01*
X116317142Y-107382428D01*
X116317142Y-107325285D01*
X116260000Y-107211000D01*
X116145714Y-107153857D01*
X115974285Y-107153857D01*
X115860000Y-107096714D01*
X115802857Y-106982428D01*
X115802857Y-106925285D01*
X115860000Y-106811000D01*
X115974285Y-106753857D01*
X116145714Y-106753857D01*
X116260000Y-106811000D01*
X116831428Y-107553857D02*
X116831428Y-106753857D01*
X116831428Y-106353857D02*
X116774285Y-106411000D01*
X116831428Y-106468142D01*
X116888571Y-106411000D01*
X116831428Y-106353857D01*
X116831428Y-106468142D01*
X117574285Y-107553857D02*
X117460000Y-107496714D01*
X117402857Y-107439571D01*
X117345714Y-107325285D01*
X117345714Y-106982428D01*
X117402857Y-106868142D01*
X117460000Y-106811000D01*
X117574285Y-106753857D01*
X117745714Y-106753857D01*
X117860000Y-106811000D01*
X117917142Y-106868142D01*
X117974285Y-106982428D01*
X117974285Y-107325285D01*
X117917142Y-107439571D01*
X117860000Y-107496714D01*
X117745714Y-107553857D01*
X117574285Y-107553857D01*
X118488571Y-106753857D02*
X118488571Y-107553857D01*
X118488571Y-106868142D02*
X118545714Y-106811000D01*
X118660000Y-106753857D01*
X118831428Y-106753857D01*
X118945714Y-106811000D01*
X119002857Y-106925285D01*
X119002857Y-107553857D01*
X121117142Y-107553857D02*
X120431428Y-107553857D01*
X120774285Y-107553857D02*
X120774285Y-106353857D01*
X120660000Y-106525285D01*
X120545714Y-106639571D01*
X120431428Y-106696714D01*
X121631428Y-107439571D02*
X121688571Y-107496714D01*
X121631428Y-107553857D01*
X121574285Y-107496714D01*
X121631428Y-107439571D01*
X121631428Y-107553857D01*
X122431428Y-106353857D02*
X122545714Y-106353857D01*
X122660000Y-106411000D01*
X122717142Y-106468142D01*
X122774285Y-106582428D01*
X122831428Y-106811000D01*
X122831428Y-107096714D01*
X122774285Y-107325285D01*
X122717142Y-107439571D01*
X122660000Y-107496714D01*
X122545714Y-107553857D01*
X122431428Y-107553857D01*
X122317142Y-107496714D01*
X122260000Y-107439571D01*
X122202857Y-107325285D01*
X122145714Y-107096714D01*
X122145714Y-106811000D01*
X122202857Y-106582428D01*
X122260000Y-106468142D01*
X122317142Y-106411000D01*
X122431428Y-106353857D01*
D10*
X79629047Y-113101428D02*
X80390952Y-113101428D01*
X80010000Y-113482380D02*
X80010000Y-112720476D01*
X125349047Y-62301428D02*
X126110952Y-62301428D01*
X125730000Y-62682380D02*
X125730000Y-61920476D01*
D11*
X136940714Y-98636857D02*
X136940714Y-97436857D01*
X137226428Y-97436857D01*
X137397857Y-97494000D01*
X137512142Y-97608285D01*
X137569285Y-97722571D01*
X137626428Y-97951142D01*
X137626428Y-98122571D01*
X137569285Y-98351142D01*
X137512142Y-98465428D01*
X137397857Y-98579714D01*
X137226428Y-98636857D01*
X136940714Y-98636857D01*
X138597857Y-98579714D02*
X138483571Y-98636857D01*
X138255000Y-98636857D01*
X138140714Y-98579714D01*
X138083571Y-98465428D01*
X138083571Y-98008285D01*
X138140714Y-97894000D01*
X138255000Y-97836857D01*
X138483571Y-97836857D01*
X138597857Y-97894000D01*
X138655000Y-98008285D01*
X138655000Y-98122571D01*
X138083571Y-98236857D01*
X139112142Y-98579714D02*
X139226428Y-98636857D01*
X139455000Y-98636857D01*
X139569285Y-98579714D01*
X139626428Y-98465428D01*
X139626428Y-98408285D01*
X139569285Y-98294000D01*
X139455000Y-98236857D01*
X139283571Y-98236857D01*
X139169285Y-98179714D01*
X139112142Y-98065428D01*
X139112142Y-98008285D01*
X139169285Y-97894000D01*
X139283571Y-97836857D01*
X139455000Y-97836857D01*
X139569285Y-97894000D01*
X140140714Y-98636857D02*
X140140714Y-97836857D01*
X140140714Y-97436857D02*
X140083571Y-97494000D01*
X140140714Y-97551142D01*
X140197857Y-97494000D01*
X140140714Y-97436857D01*
X140140714Y-97551142D01*
X141226428Y-97836857D02*
X141226428Y-98808285D01*
X141169285Y-98922571D01*
X141112142Y-98979714D01*
X140997857Y-99036857D01*
X140826428Y-99036857D01*
X140712142Y-98979714D01*
X141226428Y-98579714D02*
X141112142Y-98636857D01*
X140883571Y-98636857D01*
X140769285Y-98579714D01*
X140712142Y-98522571D01*
X140655000Y-98408285D01*
X140655000Y-98065428D01*
X140712142Y-97951142D01*
X140769285Y-97894000D01*
X140883571Y-97836857D01*
X141112142Y-97836857D01*
X141226428Y-97894000D01*
X141797857Y-97836857D02*
X141797857Y-98636857D01*
X141797857Y-97951142D02*
X141855000Y-97894000D01*
X141969285Y-97836857D01*
X142140714Y-97836857D01*
X142255000Y-97894000D01*
X142312142Y-98008285D01*
X142312142Y-98636857D01*
X144312142Y-98636857D02*
X144312142Y-98008285D01*
X144255000Y-97894000D01*
X144140714Y-97836857D01*
X143912142Y-97836857D01*
X143797857Y-97894000D01*
X144312142Y-98579714D02*
X144197857Y-98636857D01*
X143912142Y-98636857D01*
X143797857Y-98579714D01*
X143740714Y-98465428D01*
X143740714Y-98351142D01*
X143797857Y-98236857D01*
X143912142Y-98179714D01*
X144197857Y-98179714D01*
X144312142Y-98122571D01*
X144883571Y-97836857D02*
X144883571Y-98636857D01*
X144883571Y-97951142D02*
X144940714Y-97894000D01*
X145055000Y-97836857D01*
X145226428Y-97836857D01*
X145340714Y-97894000D01*
X145397857Y-98008285D01*
X145397857Y-98636857D01*
X146483571Y-98636857D02*
X146483571Y-97436857D01*
X146483571Y-98579714D02*
X146369285Y-98636857D01*
X146140714Y-98636857D01*
X146026428Y-98579714D01*
X145969285Y-98522571D01*
X145912142Y-98408285D01*
X145912142Y-98065428D01*
X145969285Y-97951142D01*
X146026428Y-97894000D01*
X146140714Y-97836857D01*
X146369285Y-97836857D01*
X146483571Y-97894000D01*
X148483571Y-98636857D02*
X148483571Y-97436857D01*
X148483571Y-98579714D02*
X148369285Y-98636857D01*
X148140714Y-98636857D01*
X148026428Y-98579714D01*
X147969285Y-98522571D01*
X147912142Y-98408285D01*
X147912142Y-98065428D01*
X147969285Y-97951142D01*
X148026428Y-97894000D01*
X148140714Y-97836857D01*
X148369285Y-97836857D01*
X148483571Y-97894000D01*
X149055000Y-98636857D02*
X149055000Y-97836857D01*
X149055000Y-98065428D02*
X149112142Y-97951142D01*
X149169285Y-97894000D01*
X149283571Y-97836857D01*
X149397857Y-97836857D01*
X150312142Y-98636857D02*
X150312142Y-98008285D01*
X150255000Y-97894000D01*
X150140714Y-97836857D01*
X149912142Y-97836857D01*
X149797857Y-97894000D01*
X150312142Y-98579714D02*
X150197857Y-98636857D01*
X149912142Y-98636857D01*
X149797857Y-98579714D01*
X149740714Y-98465428D01*
X149740714Y-98351142D01*
X149797857Y-98236857D01*
X149912142Y-98179714D01*
X150197857Y-98179714D01*
X150312142Y-98122571D01*
X150769285Y-97836857D02*
X150997857Y-98636857D01*
X151226428Y-98065428D01*
X151455000Y-98636857D01*
X151683571Y-97836857D01*
X152140714Y-98636857D02*
X152140714Y-97836857D01*
X152140714Y-97436857D02*
X152083571Y-97494000D01*
X152140714Y-97551142D01*
X152197857Y-97494000D01*
X152140714Y-97436857D01*
X152140714Y-97551142D01*
X152712142Y-97836857D02*
X152712142Y-98636857D01*
X152712142Y-97951142D02*
X152769285Y-97894000D01*
X152883571Y-97836857D01*
X153055000Y-97836857D01*
X153169285Y-97894000D01*
X153226428Y-98008285D01*
X153226428Y-98636857D01*
X154312142Y-97836857D02*
X154312142Y-98808285D01*
X154255000Y-98922571D01*
X154197857Y-98979714D01*
X154083571Y-99036857D01*
X153912142Y-99036857D01*
X153797857Y-98979714D01*
X154312142Y-98579714D02*
X154197857Y-98636857D01*
X153969285Y-98636857D01*
X153855000Y-98579714D01*
X153797857Y-98522571D01*
X153740714Y-98408285D01*
X153740714Y-98065428D01*
X153797857Y-97951142D01*
X153855000Y-97894000D01*
X153969285Y-97836857D01*
X154197857Y-97836857D01*
X154312142Y-97894000D01*
X155797857Y-98636857D02*
X155797857Y-97436857D01*
X155797857Y-97894000D02*
X155912142Y-97836857D01*
X156140714Y-97836857D01*
X156255000Y-97894000D01*
X156312142Y-97951142D01*
X156369285Y-98065428D01*
X156369285Y-98408285D01*
X156312142Y-98522571D01*
X156255000Y-98579714D01*
X156140714Y-98636857D01*
X155912142Y-98636857D01*
X155797857Y-98579714D01*
X156769285Y-97836857D02*
X157055000Y-98636857D01*
X157340714Y-97836857D02*
X157055000Y-98636857D01*
X156940714Y-98922571D01*
X156883571Y-98979714D01*
X156769285Y-99036857D01*
X137283571Y-99368857D02*
X137283571Y-100226000D01*
X137226428Y-100397428D01*
X137112142Y-100511714D01*
X136940714Y-100568857D01*
X136826428Y-100568857D01*
X138026428Y-100568857D02*
X137912142Y-100511714D01*
X137855000Y-100454571D01*
X137797857Y-100340285D01*
X137797857Y-99997428D01*
X137855000Y-99883142D01*
X137912142Y-99826000D01*
X138026428Y-99768857D01*
X138197857Y-99768857D01*
X138312142Y-99826000D01*
X138369285Y-99883142D01*
X138426428Y-99997428D01*
X138426428Y-100340285D01*
X138369285Y-100454571D01*
X138312142Y-100511714D01*
X138197857Y-100568857D01*
X138026428Y-100568857D01*
X138940714Y-100568857D02*
X138940714Y-99368857D01*
X139455000Y-100568857D02*
X139455000Y-99940285D01*
X139397857Y-99826000D01*
X139283571Y-99768857D01*
X139112142Y-99768857D01*
X138997857Y-99826000D01*
X138940714Y-99883142D01*
X140026428Y-99768857D02*
X140026428Y-100568857D01*
X140026428Y-99883142D02*
X140083571Y-99826000D01*
X140197857Y-99768857D01*
X140369285Y-99768857D01*
X140483571Y-99826000D01*
X140540714Y-99940285D01*
X140540714Y-100568857D01*
X142255000Y-99368857D02*
X142483571Y-99368857D01*
X142597857Y-99426000D01*
X142712142Y-99540285D01*
X142769285Y-99768857D01*
X142769285Y-100168857D01*
X142712142Y-100397428D01*
X142597857Y-100511714D01*
X142483571Y-100568857D01*
X142255000Y-100568857D01*
X142140714Y-100511714D01*
X142026428Y-100397428D01*
X141969285Y-100168857D01*
X141969285Y-99768857D01*
X142026428Y-99540285D01*
X142140714Y-99426000D01*
X142255000Y-99368857D01*
X143226428Y-100511714D02*
X143340714Y-100568857D01*
X143569285Y-100568857D01*
X143683571Y-100511714D01*
X143740714Y-100397428D01*
X143740714Y-100340285D01*
X143683571Y-100226000D01*
X143569285Y-100168857D01*
X143397857Y-100168857D01*
X143283571Y-100111714D01*
X143226428Y-99997428D01*
X143226428Y-99940285D01*
X143283571Y-99826000D01*
X143397857Y-99768857D01*
X143569285Y-99768857D01*
X143683571Y-99826000D01*
X144255000Y-100568857D02*
X144255000Y-99368857D01*
X144769285Y-100568857D02*
X144769285Y-99940285D01*
X144712142Y-99826000D01*
X144597857Y-99768857D01*
X144426428Y-99768857D01*
X144312142Y-99826000D01*
X144255000Y-99883142D01*
X145340714Y-100568857D02*
X145340714Y-99768857D01*
X145340714Y-99368857D02*
X145283571Y-99426000D01*
X145340714Y-99483142D01*
X145397857Y-99426000D01*
X145340714Y-99368857D01*
X145340714Y-99483142D01*
X145912142Y-100568857D02*
X145912142Y-99768857D01*
X145912142Y-99997428D02*
X145969285Y-99883142D01*
X146026428Y-99826000D01*
X146140714Y-99768857D01*
X146255000Y-99768857D01*
X146826428Y-100568857D02*
X146712142Y-100511714D01*
X146655000Y-100454571D01*
X146597857Y-100340285D01*
X146597857Y-99997428D01*
X146655000Y-99883142D01*
X146712142Y-99826000D01*
X146826428Y-99768857D01*
X146997857Y-99768857D01*
X147112142Y-99826000D01*
X147169285Y-99883142D01*
X147226428Y-99997428D01*
X147226428Y-100340285D01*
X147169285Y-100454571D01*
X147112142Y-100511714D01*
X146997857Y-100568857D01*
X146826428Y-100568857D01*
X149512142Y-99483142D02*
X149569285Y-99426000D01*
X149683571Y-99368857D01*
X149969285Y-99368857D01*
X150083571Y-99426000D01*
X150140714Y-99483142D01*
X150197857Y-99597428D01*
X150197857Y-99711714D01*
X150140714Y-99883142D01*
X149455000Y-100568857D01*
X150197857Y-100568857D01*
X150883571Y-99883142D02*
X150769285Y-99826000D01*
X150712142Y-99768857D01*
X150655000Y-99654571D01*
X150655000Y-99597428D01*
X150712142Y-99483142D01*
X150769285Y-99426000D01*
X150883571Y-99368857D01*
X151112142Y-99368857D01*
X151226428Y-99426000D01*
X151283571Y-99483142D01*
X151340714Y-99597428D01*
X151340714Y-99654571D01*
X151283571Y-99768857D01*
X151226428Y-99826000D01*
X151112142Y-99883142D01*
X150883571Y-99883142D01*
X150769285Y-99940285D01*
X150712142Y-99997428D01*
X150655000Y-100111714D01*
X150655000Y-100340285D01*
X150712142Y-100454571D01*
X150769285Y-100511714D01*
X150883571Y-100568857D01*
X151112142Y-100568857D01*
X151226428Y-100511714D01*
X151283571Y-100454571D01*
X151340714Y-100340285D01*
X151340714Y-100111714D01*
X151283571Y-99997428D01*
X151226428Y-99940285D01*
X151112142Y-99883142D01*
X151855000Y-100111714D02*
X152769285Y-100111714D01*
X153569285Y-99368857D02*
X153683571Y-99368857D01*
X153797857Y-99426000D01*
X153855000Y-99483142D01*
X153912142Y-99597428D01*
X153969285Y-99826000D01*
X153969285Y-100111714D01*
X153912142Y-100340285D01*
X153855000Y-100454571D01*
X153797857Y-100511714D01*
X153683571Y-100568857D01*
X153569285Y-100568857D01*
X153455000Y-100511714D01*
X153397857Y-100454571D01*
X153340714Y-100340285D01*
X153283571Y-100111714D01*
X153283571Y-99826000D01*
X153340714Y-99597428D01*
X153397857Y-99483142D01*
X153455000Y-99426000D01*
X153569285Y-99368857D01*
X154997857Y-99768857D02*
X154997857Y-100568857D01*
X154712142Y-99311714D02*
X154426428Y-100168857D01*
X155169285Y-100168857D01*
X155626428Y-100111714D02*
X156540714Y-100111714D01*
X157055000Y-99483142D02*
X157112142Y-99426000D01*
X157226428Y-99368857D01*
X157512142Y-99368857D01*
X157626428Y-99426000D01*
X157683571Y-99483142D01*
X157740714Y-99597428D01*
X157740714Y-99711714D01*
X157683571Y-99883142D01*
X156997857Y-100568857D01*
X157740714Y-100568857D01*
X158483571Y-99368857D02*
X158597857Y-99368857D01*
X158712142Y-99426000D01*
X158769285Y-99483142D01*
X158826428Y-99597428D01*
X158883571Y-99826000D01*
X158883571Y-100111714D01*
X158826428Y-100340285D01*
X158769285Y-100454571D01*
X158712142Y-100511714D01*
X158597857Y-100568857D01*
X158483571Y-100568857D01*
X158369285Y-100511714D01*
X158312142Y-100454571D01*
X158255000Y-100340285D01*
X158197857Y-100111714D01*
X158197857Y-99826000D01*
X158255000Y-99597428D01*
X158312142Y-99483142D01*
X158369285Y-99426000D01*
X158483571Y-99368857D01*
X159340714Y-99483142D02*
X159397857Y-99426000D01*
X159512142Y-99368857D01*
X159797857Y-99368857D01*
X159912142Y-99426000D01*
X159969285Y-99483142D01*
X160026428Y-99597428D01*
X160026428Y-99711714D01*
X159969285Y-99883142D01*
X159283571Y-100568857D01*
X160026428Y-100568857D01*
X160483571Y-99483142D02*
X160540714Y-99426000D01*
X160655000Y-99368857D01*
X160940714Y-99368857D01*
X161055000Y-99426000D01*
X161112142Y-99483142D01*
X161169285Y-99597428D01*
X161169285Y-99711714D01*
X161112142Y-99883142D01*
X160426428Y-100568857D01*
X161169285Y-100568857D01*
D10*
%TO.C,U1*%
X105497380Y-61086904D02*
X106306904Y-61086904D01*
X106402142Y-61039285D01*
X106449761Y-60991666D01*
X106497380Y-60896428D01*
X106497380Y-60705952D01*
X106449761Y-60610714D01*
X106402142Y-60563095D01*
X106306904Y-60515476D01*
X105497380Y-60515476D01*
X106497380Y-59515476D02*
X106497380Y-60086904D01*
X106497380Y-59801190D02*
X105497380Y-59801190D01*
X105640238Y-59896428D01*
X105735476Y-59991666D01*
X105783095Y-60086904D01*
%TO.C,U8*%
X118197380Y-91566904D02*
X119006904Y-91566904D01*
X119102142Y-91519285D01*
X119149761Y-91471666D01*
X119197380Y-91376428D01*
X119197380Y-91185952D01*
X119149761Y-91090714D01*
X119102142Y-91043095D01*
X119006904Y-90995476D01*
X118197380Y-90995476D01*
X118625952Y-90376428D02*
X118578333Y-90471666D01*
X118530714Y-90519285D01*
X118435476Y-90566904D01*
X118387857Y-90566904D01*
X118292619Y-90519285D01*
X118245000Y-90471666D01*
X118197380Y-90376428D01*
X118197380Y-90185952D01*
X118245000Y-90090714D01*
X118292619Y-90043095D01*
X118387857Y-89995476D01*
X118435476Y-89995476D01*
X118530714Y-90043095D01*
X118578333Y-90090714D01*
X118625952Y-90185952D01*
X118625952Y-90376428D01*
X118673571Y-90471666D01*
X118721190Y-90519285D01*
X118816428Y-90566904D01*
X119006904Y-90566904D01*
X119102142Y-90519285D01*
X119149761Y-90471666D01*
X119197380Y-90376428D01*
X119197380Y-90185952D01*
X119149761Y-90090714D01*
X119102142Y-90043095D01*
X119006904Y-89995476D01*
X118816428Y-89995476D01*
X118721190Y-90043095D01*
X118673571Y-90090714D01*
X118625952Y-90185952D01*
%TO.C,C16*%
X169537142Y-132397142D02*
X169489523Y-132444761D01*
X169346666Y-132492380D01*
X169251428Y-132492380D01*
X169108571Y-132444761D01*
X169013333Y-132349523D01*
X168965714Y-132254285D01*
X168918095Y-132063809D01*
X168918095Y-131920952D01*
X168965714Y-131730476D01*
X169013333Y-131635238D01*
X169108571Y-131540000D01*
X169251428Y-131492380D01*
X169346666Y-131492380D01*
X169489523Y-131540000D01*
X169537142Y-131587619D01*
X170489523Y-132492380D02*
X169918095Y-132492380D01*
X170203809Y-132492380D02*
X170203809Y-131492380D01*
X170108571Y-131635238D01*
X170013333Y-131730476D01*
X169918095Y-131778095D01*
X171346666Y-131492380D02*
X171156190Y-131492380D01*
X171060952Y-131540000D01*
X171013333Y-131587619D01*
X170918095Y-131730476D01*
X170870476Y-131920952D01*
X170870476Y-132301904D01*
X170918095Y-132397142D01*
X170965714Y-132444761D01*
X171060952Y-132492380D01*
X171251428Y-132492380D01*
X171346666Y-132444761D01*
X171394285Y-132397142D01*
X171441904Y-132301904D01*
X171441904Y-132063809D01*
X171394285Y-131968571D01*
X171346666Y-131920952D01*
X171251428Y-131873333D01*
X171060952Y-131873333D01*
X170965714Y-131920952D01*
X170918095Y-131968571D01*
X170870476Y-132063809D01*
%TO.C,U7*%
X105497380Y-91566904D02*
X106306904Y-91566904D01*
X106402142Y-91519285D01*
X106449761Y-91471666D01*
X106497380Y-91376428D01*
X106497380Y-91185952D01*
X106449761Y-91090714D01*
X106402142Y-91043095D01*
X106306904Y-90995476D01*
X105497380Y-90995476D01*
X105497380Y-90614523D02*
X105497380Y-89947857D01*
X106497380Y-90376428D01*
%TO.C,C18*%
X106037142Y-134977142D02*
X105989523Y-135024761D01*
X105846666Y-135072380D01*
X105751428Y-135072380D01*
X105608571Y-135024761D01*
X105513333Y-134929523D01*
X105465714Y-134834285D01*
X105418095Y-134643809D01*
X105418095Y-134500952D01*
X105465714Y-134310476D01*
X105513333Y-134215238D01*
X105608571Y-134120000D01*
X105751428Y-134072380D01*
X105846666Y-134072380D01*
X105989523Y-134120000D01*
X106037142Y-134167619D01*
X106989523Y-135072380D02*
X106418095Y-135072380D01*
X106703809Y-135072380D02*
X106703809Y-134072380D01*
X106608571Y-134215238D01*
X106513333Y-134310476D01*
X106418095Y-134358095D01*
X107560952Y-134500952D02*
X107465714Y-134453333D01*
X107418095Y-134405714D01*
X107370476Y-134310476D01*
X107370476Y-134262857D01*
X107418095Y-134167619D01*
X107465714Y-134120000D01*
X107560952Y-134072380D01*
X107751428Y-134072380D01*
X107846666Y-134120000D01*
X107894285Y-134167619D01*
X107941904Y-134262857D01*
X107941904Y-134310476D01*
X107894285Y-134405714D01*
X107846666Y-134453333D01*
X107751428Y-134500952D01*
X107560952Y-134500952D01*
X107465714Y-134548571D01*
X107418095Y-134596190D01*
X107370476Y-134691428D01*
X107370476Y-134881904D01*
X107418095Y-134977142D01*
X107465714Y-135024761D01*
X107560952Y-135072380D01*
X107751428Y-135072380D01*
X107846666Y-135024761D01*
X107894285Y-134977142D01*
X107941904Y-134881904D01*
X107941904Y-134691428D01*
X107894285Y-134596190D01*
X107846666Y-134548571D01*
X107751428Y-134500952D01*
%TO.C,C3*%
X154773333Y-49252142D02*
X154725714Y-49299761D01*
X154582857Y-49347380D01*
X154487619Y-49347380D01*
X154344761Y-49299761D01*
X154249523Y-49204523D01*
X154201904Y-49109285D01*
X154154285Y-48918809D01*
X154154285Y-48775952D01*
X154201904Y-48585476D01*
X154249523Y-48490238D01*
X154344761Y-48395000D01*
X154487619Y-48347380D01*
X154582857Y-48347380D01*
X154725714Y-48395000D01*
X154773333Y-48442619D01*
X155106666Y-48347380D02*
X155725714Y-48347380D01*
X155392380Y-48728333D01*
X155535238Y-48728333D01*
X155630476Y-48775952D01*
X155678095Y-48823571D01*
X155725714Y-48918809D01*
X155725714Y-49156904D01*
X155678095Y-49252142D01*
X155630476Y-49299761D01*
X155535238Y-49347380D01*
X155249523Y-49347380D01*
X155154285Y-49299761D01*
X155106666Y-49252142D01*
%TO.C,U2*%
X163282380Y-62356904D02*
X164091904Y-62356904D01*
X164187142Y-62309285D01*
X164234761Y-62261666D01*
X164282380Y-62166428D01*
X164282380Y-61975952D01*
X164234761Y-61880714D01*
X164187142Y-61833095D01*
X164091904Y-61785476D01*
X163282380Y-61785476D01*
X163377619Y-61356904D02*
X163330000Y-61309285D01*
X163282380Y-61214047D01*
X163282380Y-60975952D01*
X163330000Y-60880714D01*
X163377619Y-60833095D01*
X163472857Y-60785476D01*
X163568095Y-60785476D01*
X163710952Y-60833095D01*
X164282380Y-61404523D01*
X164282380Y-60785476D01*
%TO.C,C14*%
X95877142Y-108942142D02*
X95829523Y-108989761D01*
X95686666Y-109037380D01*
X95591428Y-109037380D01*
X95448571Y-108989761D01*
X95353333Y-108894523D01*
X95305714Y-108799285D01*
X95258095Y-108608809D01*
X95258095Y-108465952D01*
X95305714Y-108275476D01*
X95353333Y-108180238D01*
X95448571Y-108085000D01*
X95591428Y-108037380D01*
X95686666Y-108037380D01*
X95829523Y-108085000D01*
X95877142Y-108132619D01*
X96829523Y-109037380D02*
X96258095Y-109037380D01*
X96543809Y-109037380D02*
X96543809Y-108037380D01*
X96448571Y-108180238D01*
X96353333Y-108275476D01*
X96258095Y-108323095D01*
X97686666Y-108370714D02*
X97686666Y-109037380D01*
X97448571Y-107989761D02*
X97210476Y-108704047D01*
X97829523Y-108704047D01*
%TO.C,C17*%
X171422142Y-122902142D02*
X171374523Y-122949761D01*
X171231666Y-122997380D01*
X171136428Y-122997380D01*
X170993571Y-122949761D01*
X170898333Y-122854523D01*
X170850714Y-122759285D01*
X170803095Y-122568809D01*
X170803095Y-122425952D01*
X170850714Y-122235476D01*
X170898333Y-122140238D01*
X170993571Y-122045000D01*
X171136428Y-121997380D01*
X171231666Y-121997380D01*
X171374523Y-122045000D01*
X171422142Y-122092619D01*
X172374523Y-122997380D02*
X171803095Y-122997380D01*
X172088809Y-122997380D02*
X172088809Y-121997380D01*
X171993571Y-122140238D01*
X171898333Y-122235476D01*
X171803095Y-122283095D01*
X172707857Y-121997380D02*
X173374523Y-121997380D01*
X172945952Y-122997380D01*
%TO.C,C10*%
X109212142Y-75922142D02*
X109164523Y-75969761D01*
X109021666Y-76017380D01*
X108926428Y-76017380D01*
X108783571Y-75969761D01*
X108688333Y-75874523D01*
X108640714Y-75779285D01*
X108593095Y-75588809D01*
X108593095Y-75445952D01*
X108640714Y-75255476D01*
X108688333Y-75160238D01*
X108783571Y-75065000D01*
X108926428Y-75017380D01*
X109021666Y-75017380D01*
X109164523Y-75065000D01*
X109212142Y-75112619D01*
X110164523Y-76017380D02*
X109593095Y-76017380D01*
X109878809Y-76017380D02*
X109878809Y-75017380D01*
X109783571Y-75160238D01*
X109688333Y-75255476D01*
X109593095Y-75303095D01*
X110783571Y-75017380D02*
X110878809Y-75017380D01*
X110974047Y-75065000D01*
X111021666Y-75112619D01*
X111069285Y-75207857D01*
X111116904Y-75398333D01*
X111116904Y-75636428D01*
X111069285Y-75826904D01*
X111021666Y-75922142D01*
X110974047Y-75969761D01*
X110878809Y-76017380D01*
X110783571Y-76017380D01*
X110688333Y-75969761D01*
X110640714Y-75922142D01*
X110593095Y-75826904D01*
X110545476Y-75636428D01*
X110545476Y-75398333D01*
X110593095Y-75207857D01*
X110640714Y-75112619D01*
X110688333Y-75065000D01*
X110783571Y-75017380D01*
%TO.C,J1*%
X86026666Y-54697380D02*
X86026666Y-55411666D01*
X85979047Y-55554523D01*
X85883809Y-55649761D01*
X85740952Y-55697380D01*
X85645714Y-55697380D01*
X87026666Y-55697380D02*
X86455238Y-55697380D01*
X86740952Y-55697380D02*
X86740952Y-54697380D01*
X86645714Y-54840238D01*
X86550476Y-54935476D01*
X86455238Y-54983095D01*
%TO.C,C7*%
X147768333Y-73997142D02*
X147720714Y-74044761D01*
X147577857Y-74092380D01*
X147482619Y-74092380D01*
X147339761Y-74044761D01*
X147244523Y-73949523D01*
X147196904Y-73854285D01*
X147149285Y-73663809D01*
X147149285Y-73520952D01*
X147196904Y-73330476D01*
X147244523Y-73235238D01*
X147339761Y-73140000D01*
X147482619Y-73092380D01*
X147577857Y-73092380D01*
X147720714Y-73140000D01*
X147768333Y-73187619D01*
X148101666Y-73092380D02*
X148768333Y-73092380D01*
X148339761Y-74092380D01*
%TO.C,R10*%
X81310980Y-122791457D02*
X80834790Y-123124790D01*
X81310980Y-123362885D02*
X80310980Y-123362885D01*
X80310980Y-122981933D01*
X80358600Y-122886695D01*
X80406219Y-122839076D01*
X80501457Y-122791457D01*
X80644314Y-122791457D01*
X80739552Y-122839076D01*
X80787171Y-122886695D01*
X80834790Y-122981933D01*
X80834790Y-123362885D01*
X81310980Y-121839076D02*
X81310980Y-122410504D01*
X81310980Y-122124790D02*
X80310980Y-122124790D01*
X80453838Y-122220028D01*
X80549076Y-122315266D01*
X80596695Y-122410504D01*
X80310980Y-121220028D02*
X80310980Y-121124790D01*
X80358600Y-121029552D01*
X80406219Y-120981933D01*
X80501457Y-120934314D01*
X80691933Y-120886695D01*
X80930028Y-120886695D01*
X81120504Y-120934314D01*
X81215742Y-120981933D01*
X81263361Y-121029552D01*
X81310980Y-121124790D01*
X81310980Y-121220028D01*
X81263361Y-121315266D01*
X81215742Y-121362885D01*
X81120504Y-121410504D01*
X80930028Y-121458123D01*
X80691933Y-121458123D01*
X80501457Y-121410504D01*
X80406219Y-121362885D01*
X80358600Y-121315266D01*
X80310980Y-121220028D01*
%TO.C,U11*%
X156237380Y-87598095D02*
X157046904Y-87598095D01*
X157142142Y-87550476D01*
X157189761Y-87502857D01*
X157237380Y-87407619D01*
X157237380Y-87217142D01*
X157189761Y-87121904D01*
X157142142Y-87074285D01*
X157046904Y-87026666D01*
X156237380Y-87026666D01*
X157237380Y-86026666D02*
X157237380Y-86598095D01*
X157237380Y-86312380D02*
X156237380Y-86312380D01*
X156380238Y-86407619D01*
X156475476Y-86502857D01*
X156523095Y-86598095D01*
X157237380Y-85074285D02*
X157237380Y-85645714D01*
X157237380Y-85360000D02*
X156237380Y-85360000D01*
X156380238Y-85455238D01*
X156475476Y-85550476D01*
X156523095Y-85645714D01*
%TO.C,C1*%
X119848333Y-49252142D02*
X119800714Y-49299761D01*
X119657857Y-49347380D01*
X119562619Y-49347380D01*
X119419761Y-49299761D01*
X119324523Y-49204523D01*
X119276904Y-49109285D01*
X119229285Y-48918809D01*
X119229285Y-48775952D01*
X119276904Y-48585476D01*
X119324523Y-48490238D01*
X119419761Y-48395000D01*
X119562619Y-48347380D01*
X119657857Y-48347380D01*
X119800714Y-48395000D01*
X119848333Y-48442619D01*
X120800714Y-49347380D02*
X120229285Y-49347380D01*
X120515000Y-49347380D02*
X120515000Y-48347380D01*
X120419761Y-48490238D01*
X120324523Y-48585476D01*
X120229285Y-48633095D01*
%TO.C,C20*%
X81576942Y-114860342D02*
X81529323Y-114907961D01*
X81386466Y-114955580D01*
X81291228Y-114955580D01*
X81148371Y-114907961D01*
X81053133Y-114812723D01*
X81005514Y-114717485D01*
X80957895Y-114527009D01*
X80957895Y-114384152D01*
X81005514Y-114193676D01*
X81053133Y-114098438D01*
X81148371Y-114003200D01*
X81291228Y-113955580D01*
X81386466Y-113955580D01*
X81529323Y-114003200D01*
X81576942Y-114050819D01*
X81957895Y-114050819D02*
X82005514Y-114003200D01*
X82100752Y-113955580D01*
X82338847Y-113955580D01*
X82434085Y-114003200D01*
X82481704Y-114050819D01*
X82529323Y-114146057D01*
X82529323Y-114241295D01*
X82481704Y-114384152D01*
X81910276Y-114955580D01*
X82529323Y-114955580D01*
X83148371Y-113955580D02*
X83243609Y-113955580D01*
X83338847Y-114003200D01*
X83386466Y-114050819D01*
X83434085Y-114146057D01*
X83481704Y-114336533D01*
X83481704Y-114574628D01*
X83434085Y-114765104D01*
X83386466Y-114860342D01*
X83338847Y-114907961D01*
X83243609Y-114955580D01*
X83148371Y-114955580D01*
X83053133Y-114907961D01*
X83005514Y-114860342D01*
X82957895Y-114765104D01*
X82910276Y-114574628D01*
X82910276Y-114336533D01*
X82957895Y-114146057D01*
X83005514Y-114050819D01*
X83053133Y-114003200D01*
X83148371Y-113955580D01*
%TO.C,U18*%
X154971904Y-127722380D02*
X154971904Y-128531904D01*
X155019523Y-128627142D01*
X155067142Y-128674761D01*
X155162380Y-128722380D01*
X155352857Y-128722380D01*
X155448095Y-128674761D01*
X155495714Y-128627142D01*
X155543333Y-128531904D01*
X155543333Y-127722380D01*
X156543333Y-128722380D02*
X155971904Y-128722380D01*
X156257619Y-128722380D02*
X156257619Y-127722380D01*
X156162380Y-127865238D01*
X156067142Y-127960476D01*
X155971904Y-128008095D01*
X157114761Y-128150952D02*
X157019523Y-128103333D01*
X156971904Y-128055714D01*
X156924285Y-127960476D01*
X156924285Y-127912857D01*
X156971904Y-127817619D01*
X157019523Y-127770000D01*
X157114761Y-127722380D01*
X157305238Y-127722380D01*
X157400476Y-127770000D01*
X157448095Y-127817619D01*
X157495714Y-127912857D01*
X157495714Y-127960476D01*
X157448095Y-128055714D01*
X157400476Y-128103333D01*
X157305238Y-128150952D01*
X157114761Y-128150952D01*
X157019523Y-128198571D01*
X156971904Y-128246190D01*
X156924285Y-128341428D01*
X156924285Y-128531904D01*
X156971904Y-128627142D01*
X157019523Y-128674761D01*
X157114761Y-128722380D01*
X157305238Y-128722380D01*
X157400476Y-128674761D01*
X157448095Y-128627142D01*
X157495714Y-128531904D01*
X157495714Y-128341428D01*
X157448095Y-128246190D01*
X157400476Y-128198571D01*
X157305238Y-128150952D01*
%TO.C,Y1*%
X172243809Y-55221190D02*
X172243809Y-55697380D01*
X171910476Y-54697380D02*
X172243809Y-55221190D01*
X172577142Y-54697380D01*
X173434285Y-55697380D02*
X172862857Y-55697380D01*
X173148571Y-55697380D02*
X173148571Y-54697380D01*
X173053333Y-54840238D01*
X172958095Y-54935476D01*
X172862857Y-54983095D01*
X170743809Y-65920952D02*
X170648571Y-65873333D01*
X170600952Y-65825714D01*
X170553333Y-65730476D01*
X170553333Y-65682857D01*
X170600952Y-65587619D01*
X170648571Y-65540000D01*
X170743809Y-65492380D01*
X170934285Y-65492380D01*
X171029523Y-65540000D01*
X171077142Y-65587619D01*
X171124761Y-65682857D01*
X171124761Y-65730476D01*
X171077142Y-65825714D01*
X171029523Y-65873333D01*
X170934285Y-65920952D01*
X170743809Y-65920952D01*
X170648571Y-65968571D01*
X170600952Y-66016190D01*
X170553333Y-66111428D01*
X170553333Y-66301904D01*
X170600952Y-66397142D01*
X170648571Y-66444761D01*
X170743809Y-66492380D01*
X170934285Y-66492380D01*
X171029523Y-66444761D01*
X171077142Y-66397142D01*
X171124761Y-66301904D01*
X171124761Y-66111428D01*
X171077142Y-66016190D01*
X171029523Y-65968571D01*
X170934285Y-65920952D01*
X172315238Y-66492380D02*
X172315238Y-65492380D01*
X172648571Y-66206666D01*
X172981904Y-65492380D01*
X172981904Y-66492380D01*
X173458095Y-66492380D02*
X173458095Y-65492380D01*
X173458095Y-65968571D02*
X174029523Y-65968571D01*
X174029523Y-66492380D02*
X174029523Y-65492380D01*
X174410476Y-65825714D02*
X174934285Y-65825714D01*
X174410476Y-66492380D01*
X174934285Y-66492380D01*
%TO.C,C5*%
X173168333Y-73997142D02*
X173120714Y-74044761D01*
X172977857Y-74092380D01*
X172882619Y-74092380D01*
X172739761Y-74044761D01*
X172644523Y-73949523D01*
X172596904Y-73854285D01*
X172549285Y-73663809D01*
X172549285Y-73520952D01*
X172596904Y-73330476D01*
X172644523Y-73235238D01*
X172739761Y-73140000D01*
X172882619Y-73092380D01*
X172977857Y-73092380D01*
X173120714Y-73140000D01*
X173168333Y-73187619D01*
X174073095Y-73092380D02*
X173596904Y-73092380D01*
X173549285Y-73568571D01*
X173596904Y-73520952D01*
X173692142Y-73473333D01*
X173930238Y-73473333D01*
X174025476Y-73520952D01*
X174073095Y-73568571D01*
X174120714Y-73663809D01*
X174120714Y-73901904D01*
X174073095Y-73997142D01*
X174025476Y-74044761D01*
X173930238Y-74092380D01*
X173692142Y-74092380D01*
X173596904Y-74044761D01*
X173549285Y-73997142D01*
%TO.C,C6*%
X160468333Y-73997142D02*
X160420714Y-74044761D01*
X160277857Y-74092380D01*
X160182619Y-74092380D01*
X160039761Y-74044761D01*
X159944523Y-73949523D01*
X159896904Y-73854285D01*
X159849285Y-73663809D01*
X159849285Y-73520952D01*
X159896904Y-73330476D01*
X159944523Y-73235238D01*
X160039761Y-73140000D01*
X160182619Y-73092380D01*
X160277857Y-73092380D01*
X160420714Y-73140000D01*
X160468333Y-73187619D01*
X161325476Y-73092380D02*
X161135000Y-73092380D01*
X161039761Y-73140000D01*
X160992142Y-73187619D01*
X160896904Y-73330476D01*
X160849285Y-73520952D01*
X160849285Y-73901904D01*
X160896904Y-73997142D01*
X160944523Y-74044761D01*
X161039761Y-74092380D01*
X161230238Y-74092380D01*
X161325476Y-74044761D01*
X161373095Y-73997142D01*
X161420714Y-73901904D01*
X161420714Y-73663809D01*
X161373095Y-73568571D01*
X161325476Y-73520952D01*
X161230238Y-73473333D01*
X161039761Y-73473333D01*
X160944523Y-73520952D01*
X160896904Y-73568571D01*
X160849285Y-73663809D01*
%TO.C,U13*%
X155606904Y-111847380D02*
X155606904Y-112656904D01*
X155654523Y-112752142D01*
X155702142Y-112799761D01*
X155797380Y-112847380D01*
X155987857Y-112847380D01*
X156083095Y-112799761D01*
X156130714Y-112752142D01*
X156178333Y-112656904D01*
X156178333Y-111847380D01*
X157178333Y-112847380D02*
X156606904Y-112847380D01*
X156892619Y-112847380D02*
X156892619Y-111847380D01*
X156797380Y-111990238D01*
X156702142Y-112085476D01*
X156606904Y-112133095D01*
X157511666Y-111847380D02*
X158130714Y-111847380D01*
X157797380Y-112228333D01*
X157940238Y-112228333D01*
X158035476Y-112275952D01*
X158083095Y-112323571D01*
X158130714Y-112418809D01*
X158130714Y-112656904D01*
X158083095Y-112752142D01*
X158035476Y-112799761D01*
X157940238Y-112847380D01*
X157654523Y-112847380D01*
X157559285Y-112799761D01*
X157511666Y-112752142D01*
%TO.C,U5*%
X92162380Y-94106904D02*
X92971904Y-94106904D01*
X93067142Y-94059285D01*
X93114761Y-94011666D01*
X93162380Y-93916428D01*
X93162380Y-93725952D01*
X93114761Y-93630714D01*
X93067142Y-93583095D01*
X92971904Y-93535476D01*
X92162380Y-93535476D01*
X92162380Y-92583095D02*
X92162380Y-93059285D01*
X92638571Y-93106904D01*
X92590952Y-93059285D01*
X92543333Y-92964047D01*
X92543333Y-92725952D01*
X92590952Y-92630714D01*
X92638571Y-92583095D01*
X92733809Y-92535476D01*
X92971904Y-92535476D01*
X93067142Y-92583095D01*
X93114761Y-92630714D01*
X93162380Y-92725952D01*
X93162380Y-92964047D01*
X93114761Y-93059285D01*
X93067142Y-93106904D01*
%TO.C,U4*%
X150582380Y-62356904D02*
X151391904Y-62356904D01*
X151487142Y-62309285D01*
X151534761Y-62261666D01*
X151582380Y-62166428D01*
X151582380Y-61975952D01*
X151534761Y-61880714D01*
X151487142Y-61833095D01*
X151391904Y-61785476D01*
X150582380Y-61785476D01*
X150915714Y-60880714D02*
X151582380Y-60880714D01*
X150534761Y-61118809D02*
X151249047Y-61356904D01*
X151249047Y-60737857D01*
%TO.C,C4*%
X167473333Y-49252142D02*
X167425714Y-49299761D01*
X167282857Y-49347380D01*
X167187619Y-49347380D01*
X167044761Y-49299761D01*
X166949523Y-49204523D01*
X166901904Y-49109285D01*
X166854285Y-48918809D01*
X166854285Y-48775952D01*
X166901904Y-48585476D01*
X166949523Y-48490238D01*
X167044761Y-48395000D01*
X167187619Y-48347380D01*
X167282857Y-48347380D01*
X167425714Y-48395000D01*
X167473333Y-48442619D01*
X168330476Y-48680714D02*
X168330476Y-49347380D01*
X168092380Y-48299761D02*
X167854285Y-49014047D01*
X168473333Y-49014047D01*
%TO.C,C13*%
X95877142Y-49252142D02*
X95829523Y-49299761D01*
X95686666Y-49347380D01*
X95591428Y-49347380D01*
X95448571Y-49299761D01*
X95353333Y-49204523D01*
X95305714Y-49109285D01*
X95258095Y-48918809D01*
X95258095Y-48775952D01*
X95305714Y-48585476D01*
X95353333Y-48490238D01*
X95448571Y-48395000D01*
X95591428Y-48347380D01*
X95686666Y-48347380D01*
X95829523Y-48395000D01*
X95877142Y-48442619D01*
X96829523Y-49347380D02*
X96258095Y-49347380D01*
X96543809Y-49347380D02*
X96543809Y-48347380D01*
X96448571Y-48490238D01*
X96353333Y-48585476D01*
X96258095Y-48633095D01*
X97162857Y-48347380D02*
X97781904Y-48347380D01*
X97448571Y-48728333D01*
X97591428Y-48728333D01*
X97686666Y-48775952D01*
X97734285Y-48823571D01*
X97781904Y-48918809D01*
X97781904Y-49156904D01*
X97734285Y-49252142D01*
X97686666Y-49299761D01*
X97591428Y-49347380D01*
X97305714Y-49347380D01*
X97210476Y-49299761D01*
X97162857Y-49252142D01*
%TO.C,C11*%
X140942142Y-122902142D02*
X140894523Y-122949761D01*
X140751666Y-122997380D01*
X140656428Y-122997380D01*
X140513571Y-122949761D01*
X140418333Y-122854523D01*
X140370714Y-122759285D01*
X140323095Y-122568809D01*
X140323095Y-122425952D01*
X140370714Y-122235476D01*
X140418333Y-122140238D01*
X140513571Y-122045000D01*
X140656428Y-121997380D01*
X140751666Y-121997380D01*
X140894523Y-122045000D01*
X140942142Y-122092619D01*
X141894523Y-122997380D02*
X141323095Y-122997380D01*
X141608809Y-122997380D02*
X141608809Y-121997380D01*
X141513571Y-122140238D01*
X141418333Y-122235476D01*
X141323095Y-122283095D01*
X142846904Y-122997380D02*
X142275476Y-122997380D01*
X142561190Y-122997380D02*
X142561190Y-121997380D01*
X142465952Y-122140238D01*
X142370714Y-122235476D01*
X142275476Y-122283095D01*
%TO.C,D1*%
X82116704Y-133903980D02*
X82116704Y-132903980D01*
X82354800Y-132903980D01*
X82497657Y-132951600D01*
X82592895Y-133046838D01*
X82640514Y-133142076D01*
X82688133Y-133332552D01*
X82688133Y-133475409D01*
X82640514Y-133665885D01*
X82592895Y-133761123D01*
X82497657Y-133856361D01*
X82354800Y-133903980D01*
X82116704Y-133903980D01*
X83640514Y-133903980D02*
X83069085Y-133903980D01*
X83354800Y-133903980D02*
X83354800Y-132903980D01*
X83259561Y-133046838D01*
X83164323Y-133142076D01*
X83069085Y-133189695D01*
%TO.C,U17*%
X154971904Y-137882380D02*
X154971904Y-138691904D01*
X155019523Y-138787142D01*
X155067142Y-138834761D01*
X155162380Y-138882380D01*
X155352857Y-138882380D01*
X155448095Y-138834761D01*
X155495714Y-138787142D01*
X155543333Y-138691904D01*
X155543333Y-137882380D01*
X156543333Y-138882380D02*
X155971904Y-138882380D01*
X156257619Y-138882380D02*
X156257619Y-137882380D01*
X156162380Y-138025238D01*
X156067142Y-138120476D01*
X155971904Y-138168095D01*
X156876666Y-137882380D02*
X157543333Y-137882380D01*
X157114761Y-138882380D01*
%TO.C,SW1*%
X99250666Y-138834761D02*
X99393523Y-138882380D01*
X99631619Y-138882380D01*
X99726857Y-138834761D01*
X99774476Y-138787142D01*
X99822095Y-138691904D01*
X99822095Y-138596666D01*
X99774476Y-138501428D01*
X99726857Y-138453809D01*
X99631619Y-138406190D01*
X99441142Y-138358571D01*
X99345904Y-138310952D01*
X99298285Y-138263333D01*
X99250666Y-138168095D01*
X99250666Y-138072857D01*
X99298285Y-137977619D01*
X99345904Y-137930000D01*
X99441142Y-137882380D01*
X99679238Y-137882380D01*
X99822095Y-137930000D01*
X100155428Y-137882380D02*
X100393523Y-138882380D01*
X100584000Y-138168095D01*
X100774476Y-138882380D01*
X101012571Y-137882380D01*
X101917333Y-138882380D02*
X101345904Y-138882380D01*
X101631619Y-138882380D02*
X101631619Y-137882380D01*
X101536380Y-138025238D01*
X101441142Y-138120476D01*
X101345904Y-138168095D01*
%TO.C,U6*%
X92162380Y-64896904D02*
X92971904Y-64896904D01*
X93067142Y-64849285D01*
X93114761Y-64801666D01*
X93162380Y-64706428D01*
X93162380Y-64515952D01*
X93114761Y-64420714D01*
X93067142Y-64373095D01*
X92971904Y-64325476D01*
X92162380Y-64325476D01*
X92162380Y-63420714D02*
X92162380Y-63611190D01*
X92210000Y-63706428D01*
X92257619Y-63754047D01*
X92400476Y-63849285D01*
X92590952Y-63896904D01*
X92971904Y-63896904D01*
X93067142Y-63849285D01*
X93114761Y-63801666D01*
X93162380Y-63706428D01*
X93162380Y-63515952D01*
X93114761Y-63420714D01*
X93067142Y-63373095D01*
X92971904Y-63325476D01*
X92733809Y-63325476D01*
X92638571Y-63373095D01*
X92590952Y-63420714D01*
X92543333Y-63515952D01*
X92543333Y-63706428D01*
X92590952Y-63801666D01*
X92638571Y-63849285D01*
X92733809Y-63896904D01*
%TO.C,U12*%
X168937380Y-87598095D02*
X169746904Y-87598095D01*
X169842142Y-87550476D01*
X169889761Y-87502857D01*
X169937380Y-87407619D01*
X169937380Y-87217142D01*
X169889761Y-87121904D01*
X169842142Y-87074285D01*
X169746904Y-87026666D01*
X168937380Y-87026666D01*
X169937380Y-86026666D02*
X169937380Y-86598095D01*
X169937380Y-86312380D02*
X168937380Y-86312380D01*
X169080238Y-86407619D01*
X169175476Y-86502857D01*
X169223095Y-86598095D01*
X169032619Y-85645714D02*
X168985000Y-85598095D01*
X168937380Y-85502857D01*
X168937380Y-85264761D01*
X168985000Y-85169523D01*
X169032619Y-85121904D01*
X169127857Y-85074285D01*
X169223095Y-85074285D01*
X169365952Y-85121904D01*
X169937380Y-85693333D01*
X169937380Y-85074285D01*
%TO.C,U14*%
X117506904Y-116927380D02*
X117506904Y-117736904D01*
X117554523Y-117832142D01*
X117602142Y-117879761D01*
X117697380Y-117927380D01*
X117887857Y-117927380D01*
X117983095Y-117879761D01*
X118030714Y-117832142D01*
X118078333Y-117736904D01*
X118078333Y-116927380D01*
X119078333Y-117927380D02*
X118506904Y-117927380D01*
X118792619Y-117927380D02*
X118792619Y-116927380D01*
X118697380Y-117070238D01*
X118602142Y-117165476D01*
X118506904Y-117213095D01*
X119935476Y-117260714D02*
X119935476Y-117927380D01*
X119697380Y-116879761D02*
X119459285Y-117594047D01*
X120078333Y-117594047D01*
%TO.C,U16*%
X121951904Y-137882380D02*
X121951904Y-138691904D01*
X121999523Y-138787142D01*
X122047142Y-138834761D01*
X122142380Y-138882380D01*
X122332857Y-138882380D01*
X122428095Y-138834761D01*
X122475714Y-138787142D01*
X122523333Y-138691904D01*
X122523333Y-137882380D01*
X123523333Y-138882380D02*
X122951904Y-138882380D01*
X123237619Y-138882380D02*
X123237619Y-137882380D01*
X123142380Y-138025238D01*
X123047142Y-138120476D01*
X122951904Y-138168095D01*
X124380476Y-137882380D02*
X124190000Y-137882380D01*
X124094761Y-137930000D01*
X124047142Y-137977619D01*
X123951904Y-138120476D01*
X123904285Y-138310952D01*
X123904285Y-138691904D01*
X123951904Y-138787142D01*
X123999523Y-138834761D01*
X124094761Y-138882380D01*
X124285238Y-138882380D01*
X124380476Y-138834761D01*
X124428095Y-138787142D01*
X124475714Y-138691904D01*
X124475714Y-138453809D01*
X124428095Y-138358571D01*
X124380476Y-138310952D01*
X124285238Y-138263333D01*
X124094761Y-138263333D01*
X123999523Y-138310952D01*
X123951904Y-138358571D01*
X123904285Y-138453809D01*
%TO.C,U9*%
X130897380Y-87121904D02*
X131706904Y-87121904D01*
X131802142Y-87074285D01*
X131849761Y-87026666D01*
X131897380Y-86931428D01*
X131897380Y-86740952D01*
X131849761Y-86645714D01*
X131802142Y-86598095D01*
X131706904Y-86550476D01*
X130897380Y-86550476D01*
X131897380Y-86026666D02*
X131897380Y-85836190D01*
X131849761Y-85740952D01*
X131802142Y-85693333D01*
X131659285Y-85598095D01*
X131468809Y-85550476D01*
X131087857Y-85550476D01*
X130992619Y-85598095D01*
X130945000Y-85645714D01*
X130897380Y-85740952D01*
X130897380Y-85931428D01*
X130945000Y-86026666D01*
X130992619Y-86074285D01*
X131087857Y-86121904D01*
X131325952Y-86121904D01*
X131421190Y-86074285D01*
X131468809Y-86026666D01*
X131516428Y-85931428D01*
X131516428Y-85740952D01*
X131468809Y-85645714D01*
X131421190Y-85598095D01*
X131325952Y-85550476D01*
%TO.C,U3*%
X137882380Y-62356904D02*
X138691904Y-62356904D01*
X138787142Y-62309285D01*
X138834761Y-62261666D01*
X138882380Y-62166428D01*
X138882380Y-61975952D01*
X138834761Y-61880714D01*
X138787142Y-61833095D01*
X138691904Y-61785476D01*
X137882380Y-61785476D01*
X137882380Y-61404523D02*
X137882380Y-60785476D01*
X138263333Y-61118809D01*
X138263333Y-60975952D01*
X138310952Y-60880714D01*
X138358571Y-60833095D01*
X138453809Y-60785476D01*
X138691904Y-60785476D01*
X138787142Y-60833095D01*
X138834761Y-60880714D01*
X138882380Y-60975952D01*
X138882380Y-61261666D01*
X138834761Y-61356904D01*
X138787142Y-61404523D01*
%TO.C,U10*%
X143537380Y-87598095D02*
X144346904Y-87598095D01*
X144442142Y-87550476D01*
X144489761Y-87502857D01*
X144537380Y-87407619D01*
X144537380Y-87217142D01*
X144489761Y-87121904D01*
X144442142Y-87074285D01*
X144346904Y-87026666D01*
X143537380Y-87026666D01*
X144537380Y-86026666D02*
X144537380Y-86598095D01*
X144537380Y-86312380D02*
X143537380Y-86312380D01*
X143680238Y-86407619D01*
X143775476Y-86502857D01*
X143823095Y-86598095D01*
X143537380Y-85407619D02*
X143537380Y-85312380D01*
X143585000Y-85217142D01*
X143632619Y-85169523D01*
X143727857Y-85121904D01*
X143918333Y-85074285D01*
X144156428Y-85074285D01*
X144346904Y-85121904D01*
X144442142Y-85169523D01*
X144489761Y-85217142D01*
X144537380Y-85312380D01*
X144537380Y-85407619D01*
X144489761Y-85502857D01*
X144442142Y-85550476D01*
X144346904Y-85598095D01*
X144156428Y-85645714D01*
X143918333Y-85645714D01*
X143727857Y-85598095D01*
X143632619Y-85550476D01*
X143585000Y-85502857D01*
X143537380Y-85407619D01*
%TO.C,C8*%
X135068333Y-73997142D02*
X135020714Y-74044761D01*
X134877857Y-74092380D01*
X134782619Y-74092380D01*
X134639761Y-74044761D01*
X134544523Y-73949523D01*
X134496904Y-73854285D01*
X134449285Y-73663809D01*
X134449285Y-73520952D01*
X134496904Y-73330476D01*
X134544523Y-73235238D01*
X134639761Y-73140000D01*
X134782619Y-73092380D01*
X134877857Y-73092380D01*
X135020714Y-73140000D01*
X135068333Y-73187619D01*
X135639761Y-73520952D02*
X135544523Y-73473333D01*
X135496904Y-73425714D01*
X135449285Y-73330476D01*
X135449285Y-73282857D01*
X135496904Y-73187619D01*
X135544523Y-73140000D01*
X135639761Y-73092380D01*
X135830238Y-73092380D01*
X135925476Y-73140000D01*
X135973095Y-73187619D01*
X136020714Y-73282857D01*
X136020714Y-73330476D01*
X135973095Y-73425714D01*
X135925476Y-73473333D01*
X135830238Y-73520952D01*
X135639761Y-73520952D01*
X135544523Y-73568571D01*
X135496904Y-73616190D01*
X135449285Y-73711428D01*
X135449285Y-73901904D01*
X135496904Y-73997142D01*
X135544523Y-74044761D01*
X135639761Y-74092380D01*
X135830238Y-74092380D01*
X135925476Y-74044761D01*
X135973095Y-73997142D01*
X136020714Y-73901904D01*
X136020714Y-73711428D01*
X135973095Y-73616190D01*
X135925476Y-73568571D01*
X135830238Y-73520952D01*
%TO.C,C12*%
X172077142Y-101322142D02*
X172029523Y-101369761D01*
X171886666Y-101417380D01*
X171791428Y-101417380D01*
X171648571Y-101369761D01*
X171553333Y-101274523D01*
X171505714Y-101179285D01*
X171458095Y-100988809D01*
X171458095Y-100845952D01*
X171505714Y-100655476D01*
X171553333Y-100560238D01*
X171648571Y-100465000D01*
X171791428Y-100417380D01*
X171886666Y-100417380D01*
X172029523Y-100465000D01*
X172077142Y-100512619D01*
X173029523Y-101417380D02*
X172458095Y-101417380D01*
X172743809Y-101417380D02*
X172743809Y-100417380D01*
X172648571Y-100560238D01*
X172553333Y-100655476D01*
X172458095Y-100703095D01*
X173410476Y-100512619D02*
X173458095Y-100465000D01*
X173553333Y-100417380D01*
X173791428Y-100417380D01*
X173886666Y-100465000D01*
X173934285Y-100512619D01*
X173981904Y-100607857D01*
X173981904Y-100703095D01*
X173934285Y-100845952D01*
X173362857Y-101417380D01*
X173981904Y-101417380D01*
%TO.C,C9*%
X122348333Y-75922142D02*
X122300714Y-75969761D01*
X122157857Y-76017380D01*
X122062619Y-76017380D01*
X121919761Y-75969761D01*
X121824523Y-75874523D01*
X121776904Y-75779285D01*
X121729285Y-75588809D01*
X121729285Y-75445952D01*
X121776904Y-75255476D01*
X121824523Y-75160238D01*
X121919761Y-75065000D01*
X122062619Y-75017380D01*
X122157857Y-75017380D01*
X122300714Y-75065000D01*
X122348333Y-75112619D01*
X122824523Y-76017380D02*
X123015000Y-76017380D01*
X123110238Y-75969761D01*
X123157857Y-75922142D01*
X123253095Y-75779285D01*
X123300714Y-75588809D01*
X123300714Y-75207857D01*
X123253095Y-75112619D01*
X123205476Y-75065000D01*
X123110238Y-75017380D01*
X122919761Y-75017380D01*
X122824523Y-75065000D01*
X122776904Y-75112619D01*
X122729285Y-75207857D01*
X122729285Y-75445952D01*
X122776904Y-75541190D01*
X122824523Y-75588809D01*
X122919761Y-75636428D01*
X123110238Y-75636428D01*
X123205476Y-75588809D01*
X123253095Y-75541190D01*
X123300714Y-75445952D01*
%TO.C,R11*%
X99915742Y-130586980D02*
X99582409Y-130110790D01*
X99344314Y-130586980D02*
X99344314Y-129586980D01*
X99725266Y-129586980D01*
X99820504Y-129634600D01*
X99868123Y-129682219D01*
X99915742Y-129777457D01*
X99915742Y-129920314D01*
X99868123Y-130015552D01*
X99820504Y-130063171D01*
X99725266Y-130110790D01*
X99344314Y-130110790D01*
X100868123Y-130586980D02*
X100296695Y-130586980D01*
X100582409Y-130586980D02*
X100582409Y-129586980D01*
X100487171Y-129729838D01*
X100391933Y-129825076D01*
X100296695Y-129872695D01*
X101820504Y-130586980D02*
X101249076Y-130586980D01*
X101534790Y-130586980D02*
X101534790Y-129586980D01*
X101439552Y-129729838D01*
X101344314Y-129825076D01*
X101249076Y-129872695D01*
%TO.C,R9*%
X172823333Y-67762380D02*
X172490000Y-67286190D01*
X172251904Y-67762380D02*
X172251904Y-66762380D01*
X172632857Y-66762380D01*
X172728095Y-66810000D01*
X172775714Y-66857619D01*
X172823333Y-66952857D01*
X172823333Y-67095714D01*
X172775714Y-67190952D01*
X172728095Y-67238571D01*
X172632857Y-67286190D01*
X172251904Y-67286190D01*
X173299523Y-67762380D02*
X173490000Y-67762380D01*
X173585238Y-67714761D01*
X173632857Y-67667142D01*
X173728095Y-67524285D01*
X173775714Y-67333809D01*
X173775714Y-66952857D01*
X173728095Y-66857619D01*
X173680476Y-66810000D01*
X173585238Y-66762380D01*
X173394761Y-66762380D01*
X173299523Y-66810000D01*
X173251904Y-66857619D01*
X173204285Y-66952857D01*
X173204285Y-67190952D01*
X173251904Y-67286190D01*
X173299523Y-67333809D01*
X173394761Y-67381428D01*
X173585238Y-67381428D01*
X173680476Y-67333809D01*
X173728095Y-67286190D01*
X173775714Y-67190952D01*
%TO.C,U15*%
X89622380Y-126968095D02*
X90431904Y-126968095D01*
X90527142Y-126920476D01*
X90574761Y-126872857D01*
X90622380Y-126777619D01*
X90622380Y-126587142D01*
X90574761Y-126491904D01*
X90527142Y-126444285D01*
X90431904Y-126396666D01*
X89622380Y-126396666D01*
X90622380Y-125396666D02*
X90622380Y-125968095D01*
X90622380Y-125682380D02*
X89622380Y-125682380D01*
X89765238Y-125777619D01*
X89860476Y-125872857D01*
X89908095Y-125968095D01*
X89622380Y-124491904D02*
X89622380Y-124968095D01*
X90098571Y-125015714D01*
X90050952Y-124968095D01*
X90003333Y-124872857D01*
X90003333Y-124634761D01*
X90050952Y-124539523D01*
X90098571Y-124491904D01*
X90193809Y-124444285D01*
X90431904Y-124444285D01*
X90527142Y-124491904D01*
X90574761Y-124539523D01*
X90622380Y-124634761D01*
X90622380Y-124872857D01*
X90574761Y-124968095D01*
X90527142Y-125015714D01*
%TO.C,C15*%
X93972142Y-141327142D02*
X93924523Y-141374761D01*
X93781666Y-141422380D01*
X93686428Y-141422380D01*
X93543571Y-141374761D01*
X93448333Y-141279523D01*
X93400714Y-141184285D01*
X93353095Y-140993809D01*
X93353095Y-140850952D01*
X93400714Y-140660476D01*
X93448333Y-140565238D01*
X93543571Y-140470000D01*
X93686428Y-140422380D01*
X93781666Y-140422380D01*
X93924523Y-140470000D01*
X93972142Y-140517619D01*
X94924523Y-141422380D02*
X94353095Y-141422380D01*
X94638809Y-141422380D02*
X94638809Y-140422380D01*
X94543571Y-140565238D01*
X94448333Y-140660476D01*
X94353095Y-140708095D01*
X95829285Y-140422380D02*
X95353095Y-140422380D01*
X95305476Y-140898571D01*
X95353095Y-140850952D01*
X95448333Y-140803333D01*
X95686428Y-140803333D01*
X95781666Y-140850952D01*
X95829285Y-140898571D01*
X95876904Y-140993809D01*
X95876904Y-141231904D01*
X95829285Y-141327142D01*
X95781666Y-141374761D01*
X95686428Y-141422380D01*
X95448333Y-141422380D01*
X95353095Y-141374761D01*
X95305476Y-141327142D01*
%TO.C,C2*%
X142073333Y-49252142D02*
X142025714Y-49299761D01*
X141882857Y-49347380D01*
X141787619Y-49347380D01*
X141644761Y-49299761D01*
X141549523Y-49204523D01*
X141501904Y-49109285D01*
X141454285Y-48918809D01*
X141454285Y-48775952D01*
X141501904Y-48585476D01*
X141549523Y-48490238D01*
X141644761Y-48395000D01*
X141787619Y-48347380D01*
X141882857Y-48347380D01*
X142025714Y-48395000D01*
X142073333Y-48442619D01*
X142454285Y-48442619D02*
X142501904Y-48395000D01*
X142597142Y-48347380D01*
X142835238Y-48347380D01*
X142930476Y-48395000D01*
X142978095Y-48442619D01*
X143025714Y-48537857D01*
X143025714Y-48633095D01*
X142978095Y-48775952D01*
X142406666Y-49347380D01*
X143025714Y-49347380D01*
D12*
%TO.C,D3*%
X128326371Y-57150000D02*
X128440000Y-57150000D01*
X128326371Y-57150000D02*
G75*
G03*
X128326371Y-57150000I-1326371J0D01*
G01*
%TO.C,U1*%
X108695000Y-47565000D02*
X107045000Y-47565000D01*
X108695000Y-73085000D02*
X108695000Y-47565000D01*
X103395000Y-73085000D02*
X108695000Y-73085000D01*
X103395000Y-47565000D02*
X103395000Y-73085000D01*
X105045000Y-47565000D02*
X103395000Y-47565000D01*
X105045000Y-47565000D02*
G75*
G03*
X107045000Y-47565000I1000000J0D01*
G01*
%TO.C,U8*%
X116055000Y-78045000D02*
X116055000Y-103565000D01*
X121355000Y-78045000D02*
X119705000Y-78045000D01*
X121355000Y-103565000D02*
X121355000Y-78045000D01*
X116055000Y-103565000D02*
X121355000Y-103565000D01*
X117705000Y-78045000D02*
X116055000Y-78045000D01*
X117705000Y-78045000D02*
G75*
G03*
X119705000Y-78045000I1000000J0D01*
G01*
%TO.C,R2*%
X115855000Y-56515000D02*
X116475000Y-56515000D01*
X115855000Y-56515000D02*
G75*
G03*
X115855000Y-56515000I-920000J0D01*
G01*
%TO.C,R20*%
X121570000Y-53975000D02*
X122190000Y-53975000D01*
X121570000Y-53975000D02*
G75*
G03*
X121570000Y-53975000I-920000J0D01*
G01*
%TO.C,C16*%
X171600000Y-137890000D02*
X171600000Y-133850000D01*
X168760000Y-137890000D02*
X169385000Y-137890000D01*
X170975000Y-133850000D02*
X171600000Y-133850000D01*
X168760000Y-137890000D02*
X168760000Y-133850000D01*
X168760000Y-133850000D02*
X169385000Y-133850000D01*
X170975000Y-137890000D02*
X171600000Y-137890000D01*
%TO.C,U7*%
X108655000Y-78045000D02*
X107005000Y-78045000D01*
X105005000Y-78045000D02*
X103355000Y-78045000D01*
X108655000Y-103565000D02*
X108655000Y-78045000D01*
X103355000Y-103565000D02*
X108655000Y-103565000D01*
X103355000Y-78045000D02*
X103355000Y-103565000D01*
X105005000Y-78045000D02*
G75*
G03*
X107005000Y-78045000I1000000J0D01*
G01*
%TO.C,C18*%
X108100000Y-136390000D02*
X107475000Y-136390000D01*
X108100000Y-136390000D02*
X108100000Y-140430000D01*
X105885000Y-136390000D02*
X105260000Y-136390000D01*
X108100000Y-140430000D02*
X107475000Y-140430000D01*
X105885000Y-140430000D02*
X105260000Y-140430000D01*
X105260000Y-136390000D02*
X105260000Y-140430000D01*
%TO.C,C3*%
X153130000Y-47475000D02*
X153130000Y-48100000D01*
X153130000Y-49690000D02*
X153130000Y-50315000D01*
X149090000Y-47475000D02*
X149090000Y-48100000D01*
X149090000Y-47475000D02*
X153130000Y-47475000D01*
X149090000Y-50315000D02*
X153130000Y-50315000D01*
X149090000Y-49690000D02*
X149090000Y-50315000D01*
%TO.C,U2*%
X166480000Y-52645000D02*
X164830000Y-52645000D01*
X166480000Y-70545000D02*
X166480000Y-52645000D01*
X161180000Y-52645000D02*
X161180000Y-70545000D01*
X161180000Y-70545000D02*
X166480000Y-70545000D01*
X162830000Y-52645000D02*
X161180000Y-52645000D01*
X162830000Y-52645000D02*
G75*
G03*
X164830000Y-52645000I1000000J0D01*
G01*
%TO.C,C14*%
X94750000Y-107038000D02*
X90710000Y-107038000D01*
X94750000Y-109878000D02*
X94750000Y-109253000D01*
X90710000Y-107663000D02*
X90710000Y-107038000D01*
X94750000Y-107663000D02*
X94750000Y-107038000D01*
X90710000Y-109878000D02*
X90710000Y-109253000D01*
X94750000Y-109878000D02*
X90710000Y-109878000D01*
%TO.C,C17*%
X170045000Y-126515000D02*
X174085000Y-126515000D01*
X170045000Y-123675000D02*
X174085000Y-123675000D01*
X174085000Y-123675000D02*
X174085000Y-124300000D01*
X170045000Y-125890000D02*
X170045000Y-126515000D01*
X174085000Y-125890000D02*
X174085000Y-126515000D01*
X170045000Y-123675000D02*
X170045000Y-124300000D01*
%TO.C,C10*%
X104045000Y-74770000D02*
X104045000Y-74145000D01*
X108085000Y-74770000D02*
X108085000Y-74145000D01*
X104045000Y-76985000D02*
X104045000Y-76360000D01*
X108085000Y-76985000D02*
X108085000Y-76360000D01*
X108085000Y-74145000D02*
X104045000Y-74145000D01*
X108085000Y-76985000D02*
X104045000Y-76985000D01*
%TO.C,R6*%
X115855000Y-66675000D02*
X116475000Y-66675000D01*
X115855000Y-66675000D02*
G75*
G03*
X115855000Y-66675000I-920000J0D01*
G01*
%TO.C,R5*%
X115855000Y-64135000D02*
X116475000Y-64135000D01*
X115855000Y-64135000D02*
G75*
G03*
X115855000Y-64135000I-920000J0D01*
G01*
%TO.C,R17*%
X121570000Y-61595000D02*
X122190000Y-61595000D01*
X121570000Y-61595000D02*
G75*
G03*
X121570000Y-61595000I-920000J0D01*
G01*
%TO.C,J1*%
X82490000Y-56515000D02*
X85150000Y-56515000D01*
X82490000Y-55245000D02*
X82490000Y-53915000D01*
X82490000Y-104835000D02*
X85150000Y-104835000D01*
X82490000Y-56515000D02*
X82490000Y-104835000D01*
X82490000Y-53915000D02*
X83820000Y-53915000D01*
X85150000Y-56515000D02*
X85150000Y-104835000D01*
%TO.C,R18*%
X121570000Y-59055000D02*
X122190000Y-59055000D01*
X121570000Y-59055000D02*
G75*
G03*
X121570000Y-59055000I-920000J0D01*
G01*
%TO.C,G\u002A\u002A\u002A*%
G36*
X124340058Y-104496322D02*
G01*
X124048367Y-104198888D01*
X123863623Y-103945990D01*
X123848590Y-103918161D01*
X123811454Y-103830824D01*
X123782749Y-103719311D01*
X123761082Y-103566284D01*
X123745060Y-103354408D01*
X123733288Y-103066346D01*
X123724373Y-102684762D01*
X123718326Y-102297826D01*
X123712783Y-101838291D01*
X123711130Y-101484802D01*
X123714578Y-101218616D01*
X123723984Y-101028109D01*
X123955570Y-101028109D01*
X123962585Y-101219898D01*
X124032295Y-101402262D01*
X124175748Y-101597589D01*
X124403992Y-101828266D01*
X124587092Y-101993709D01*
X125102110Y-102435627D01*
X125544363Y-102787682D01*
X125921697Y-103055304D01*
X126241958Y-103243926D01*
X126512990Y-103358979D01*
X126591467Y-103381358D01*
X126895795Y-103433337D01*
X127261803Y-103460512D01*
X127655402Y-103463991D01*
X128042503Y-103444885D01*
X128389019Y-103404303D01*
X128660860Y-103343355D01*
X128746172Y-103311222D01*
X129025342Y-103147750D01*
X129327633Y-102911974D01*
X129612284Y-102638814D01*
X129816629Y-102394119D01*
X129941986Y-102178174D01*
X129990695Y-101953503D01*
X129994330Y-101843035D01*
X129986346Y-101665687D01*
X129954304Y-101508435D01*
X129886067Y-101346689D01*
X129769497Y-101155858D01*
X129598269Y-100919380D01*
X133056754Y-100919380D01*
X133105611Y-100962621D01*
X133236698Y-101046395D01*
X133421952Y-101152804D01*
X133427503Y-101155856D01*
X133801209Y-101361128D01*
X133801209Y-101704828D01*
X133795055Y-101907640D01*
X133765131Y-102027224D01*
X133694242Y-102104997D01*
X133614380Y-102154838D01*
X133488597Y-102239926D01*
X133428099Y-102307393D01*
X133427157Y-102313009D01*
X133477362Y-102307946D01*
X133612612Y-102251887D01*
X133809307Y-102155284D01*
X133941627Y-102085132D01*
X134456492Y-101805395D01*
X135564231Y-102435331D01*
X136671971Y-103065268D01*
X136671971Y-103426266D01*
X136665090Y-103639246D01*
X136635552Y-103767371D01*
X136570015Y-103850252D01*
X136515951Y-103889492D01*
X136407543Y-103989771D01*
X136359864Y-104090358D01*
X136384725Y-104155920D01*
X136423982Y-104164589D01*
X136498784Y-104123405D01*
X136629126Y-104016257D01*
X136762925Y-103889696D01*
X136958762Y-103666505D01*
X137126247Y-103425689D01*
X137245232Y-103200494D01*
X137295567Y-103024165D01*
X137296050Y-103010044D01*
X137241779Y-102793659D01*
X137084470Y-102528696D01*
X136832376Y-102223082D01*
X136493750Y-101884747D01*
X136076845Y-101521617D01*
X135589915Y-101141623D01*
X135041211Y-100752693D01*
X134736042Y-100550732D01*
X134164170Y-100180906D01*
X133611941Y-100534541D01*
X133384367Y-100682888D01*
X133201775Y-100806882D01*
X133086202Y-100891246D01*
X133056754Y-100919380D01*
X129598269Y-100919380D01*
X129592456Y-100911353D01*
X129430610Y-100700953D01*
X129249383Y-100457958D01*
X129086096Y-100220776D01*
X128964976Y-100025404D01*
X128926597Y-99952058D01*
X128820878Y-99601978D01*
X128835024Y-99264043D01*
X128970456Y-98933620D01*
X129228592Y-98606074D01*
X129383685Y-98459676D01*
X129713494Y-98170775D01*
X129495067Y-98208873D01*
X129194501Y-98268795D01*
X128812387Y-98355921D01*
X128386440Y-98460655D01*
X127954379Y-98573399D01*
X127553919Y-98684555D01*
X127222779Y-98784524D01*
X127185976Y-98796465D01*
X126411896Y-99072544D01*
X125735776Y-99360014D01*
X125162232Y-99655965D01*
X124695878Y-99957488D01*
X124341331Y-100261674D01*
X124103205Y-100565615D01*
X124000201Y-100804510D01*
X123955570Y-101028109D01*
X123723984Y-101028109D01*
X123724336Y-101020992D01*
X123741614Y-100873189D01*
X123767621Y-100756464D01*
X123803568Y-100652076D01*
X123828427Y-100592172D01*
X124031641Y-100263466D01*
X124356061Y-99936277D01*
X124798080Y-99612863D01*
X125354091Y-99295483D01*
X126020486Y-98986393D01*
X126793659Y-98687853D01*
X126967548Y-98627295D01*
X127725209Y-98385305D01*
X128410851Y-98201829D01*
X129013807Y-98079345D01*
X129523407Y-98020329D01*
X129595263Y-98016953D01*
X129870476Y-98003056D01*
X130078395Y-97976610D01*
X130264471Y-97925536D01*
X130474155Y-97837754D01*
X130718605Y-97718391D01*
X131525054Y-97354977D01*
X132375241Y-97045357D01*
X133129886Y-96830889D01*
X133699566Y-96719118D01*
X134182314Y-96680049D01*
X134574308Y-96713334D01*
X134871726Y-96818624D01*
X135070745Y-96995569D01*
X135079726Y-97008842D01*
X135182321Y-97265979D01*
X135218673Y-97603699D01*
X135193327Y-97999782D01*
X135110827Y-98432009D01*
X134975716Y-98878159D01*
X134792537Y-99316014D01*
X134565834Y-99723353D01*
X134506373Y-99812771D01*
X134415162Y-99956319D01*
X134369433Y-100050995D01*
X134369211Y-100068806D01*
X134428133Y-100109634D01*
X134569329Y-100204717D01*
X134770984Y-100339429D01*
X134986959Y-100483010D01*
X135620058Y-100921347D01*
X136169371Y-101339707D01*
X136628016Y-101731971D01*
X136989111Y-102092019D01*
X137245774Y-102413734D01*
X137342784Y-102577768D01*
X137383058Y-102667140D01*
X137413149Y-102764921D01*
X137434274Y-102889329D01*
X137447646Y-103058583D01*
X137454482Y-103290902D01*
X137455996Y-103604504D01*
X137453403Y-104017609D01*
X137451551Y-104208656D01*
X137437391Y-105594493D01*
X137234402Y-105910824D01*
X136948822Y-106274615D01*
X136560621Y-106649362D01*
X136090009Y-107023861D01*
X135557199Y-107386907D01*
X134982402Y-107727297D01*
X134385829Y-108033824D01*
X133787691Y-108295286D01*
X133208201Y-108500478D01*
X132667569Y-108638195D01*
X132209809Y-108696257D01*
X131907361Y-108700847D01*
X131665411Y-108676080D01*
X131421332Y-108613064D01*
X131277511Y-108563930D01*
X131019205Y-108461330D01*
X130674050Y-108309670D01*
X130264599Y-108119981D01*
X129813403Y-107903292D01*
X129343012Y-107670634D01*
X128875979Y-107433038D01*
X128434854Y-107201532D01*
X128042188Y-106987149D01*
X127966074Y-106944245D01*
X127171457Y-106481572D01*
X126444142Y-106034298D01*
X125790738Y-105607280D01*
X125217850Y-105205374D01*
X124902640Y-104964024D01*
X129169932Y-104964024D01*
X129195267Y-105015260D01*
X129315643Y-105104297D01*
X129510940Y-105220799D01*
X129761038Y-105354433D01*
X130045817Y-105494866D01*
X130345157Y-105631764D01*
X130638937Y-105754792D01*
X130892387Y-105848677D01*
X131124817Y-105924906D01*
X131308917Y-105980252D01*
X131415535Y-106006151D01*
X131429710Y-106006474D01*
X131473537Y-105980953D01*
X132365828Y-105980953D01*
X132380088Y-106112852D01*
X132441059Y-106154384D01*
X132506246Y-106150379D01*
X132604431Y-106110504D01*
X132652289Y-106003949D01*
X132666033Y-105896407D01*
X132670115Y-105773047D01*
X132927499Y-105773047D01*
X132935855Y-105943807D01*
X132969002Y-106018382D01*
X133036713Y-106025214D01*
X133106059Y-105981490D01*
X133145897Y-105865307D01*
X133164790Y-105677395D01*
X133166092Y-105508554D01*
X133426762Y-105508554D01*
X133434392Y-105715973D01*
X133467102Y-105819940D01*
X133539622Y-105841390D01*
X133640085Y-105811720D01*
X133699664Y-105753850D01*
X133730500Y-105621642D01*
X133738801Y-105406069D01*
X133736639Y-105258922D01*
X133926025Y-105258922D01*
X133931926Y-105487756D01*
X133957648Y-105612628D01*
X134015218Y-105654153D01*
X134116664Y-105632940D01*
X134139348Y-105624497D01*
X134194478Y-105573776D01*
X134225374Y-105457772D01*
X134237355Y-105251265D01*
X134237661Y-105210284D01*
X134433355Y-105210284D01*
X134450339Y-105348662D01*
X134498935Y-105402729D01*
X134588972Y-105392452D01*
X134638611Y-105374865D01*
X134689948Y-105329528D01*
X134720501Y-105225879D01*
X134734715Y-105039693D01*
X134737327Y-104836787D01*
X134737327Y-104668243D01*
X134986959Y-104668243D01*
X134988660Y-104914596D01*
X134997963Y-105057966D01*
X135021168Y-105120179D01*
X135064575Y-105123062D01*
X135111774Y-105100707D01*
X135175010Y-105051678D01*
X135212661Y-104969110D01*
X135231049Y-104824330D01*
X135236496Y-104588665D01*
X135236590Y-104534645D01*
X135235343Y-104354008D01*
X135486221Y-104354008D01*
X135487910Y-104601031D01*
X135497148Y-104745041D01*
X135520195Y-104807832D01*
X135563309Y-104811200D01*
X135611037Y-104788668D01*
X135675827Y-104737812D01*
X135713658Y-104651728D01*
X135731382Y-104500803D01*
X135735852Y-104255425D01*
X135735853Y-104249328D01*
X135732516Y-104012961D01*
X136047892Y-104012961D01*
X136049792Y-104249613D01*
X136060109Y-104383733D01*
X136085773Y-104437593D01*
X136133712Y-104433469D01*
X136172708Y-104414220D01*
X136237773Y-104363036D01*
X136275631Y-104276316D01*
X136293232Y-104124283D01*
X136297524Y-103879362D01*
X136295624Y-103642710D01*
X136285307Y-103508590D01*
X136259643Y-103454729D01*
X136211704Y-103458854D01*
X136172708Y-103478103D01*
X136107643Y-103529286D01*
X136069785Y-103616007D01*
X136052184Y-103768040D01*
X136047892Y-104012961D01*
X135732516Y-104012961D01*
X135732458Y-104008853D01*
X135718905Y-103870838D01*
X135690140Y-103813036D01*
X135641110Y-103813196D01*
X135637137Y-103814669D01*
X135537652Y-103847712D01*
X135512321Y-103852550D01*
X135500224Y-103910041D01*
X135491104Y-104062868D01*
X135486495Y-104281557D01*
X135486221Y-104354008D01*
X135235343Y-104354008D01*
X135234889Y-104288292D01*
X135225585Y-104144922D01*
X135202380Y-104082709D01*
X135158974Y-104079826D01*
X135111774Y-104102181D01*
X135048538Y-104151210D01*
X135010888Y-104233778D01*
X134992500Y-104378558D01*
X134987053Y-104614223D01*
X134986959Y-104668243D01*
X134737327Y-104668243D01*
X134737327Y-104336589D01*
X134596909Y-104429551D01*
X134520931Y-104497016D01*
X134475259Y-104596394D01*
X134450189Y-104760578D01*
X134438156Y-104967629D01*
X134433355Y-105210284D01*
X134237661Y-105210284D01*
X134238064Y-105156438D01*
X134233378Y-104942945D01*
X134221061Y-104789000D01*
X134203724Y-104726420D01*
X134202758Y-104726260D01*
X134125435Y-104752470D01*
X134046738Y-104790863D01*
X133979131Y-104848280D01*
X133942128Y-104950101D01*
X133927509Y-105128190D01*
X133926025Y-105258922D01*
X133736639Y-105258922D01*
X133735633Y-105190474D01*
X133717364Y-105078851D01*
X133670850Y-105050373D01*
X133582948Y-105084212D01*
X133547475Y-105102903D01*
X133474167Y-105168731D01*
X133437358Y-105287543D01*
X133426786Y-105493818D01*
X133426762Y-105508554D01*
X133166092Y-105508554D01*
X133166199Y-105494806D01*
X133149611Y-105376091D01*
X133130466Y-105350338D01*
X133019543Y-105407527D01*
X132948866Y-105565913D01*
X132927499Y-105773047D01*
X132670115Y-105773047D01*
X132671477Y-105731892D01*
X132637573Y-105671823D01*
X132544343Y-105697342D01*
X132486541Y-105726981D01*
X132386344Y-105848492D01*
X132365828Y-105980953D01*
X131473537Y-105980953D01*
X131488040Y-105972508D01*
X131642591Y-105880868D01*
X131882515Y-105738028D01*
X132196964Y-105550462D01*
X132575090Y-105324644D01*
X133006045Y-105067048D01*
X133478980Y-104784150D01*
X133879219Y-104544589D01*
X134376768Y-104246238D01*
X134839817Y-103967670D01*
X135257684Y-103715379D01*
X135619690Y-103495855D01*
X135915153Y-103315588D01*
X136133392Y-103181071D01*
X136263725Y-103098794D01*
X136297524Y-103074924D01*
X136248621Y-103033943D01*
X136123309Y-102952595D01*
X136019653Y-102890264D01*
X135833814Y-102793932D01*
X135673843Y-102754509D01*
X135475803Y-102759421D01*
X135397405Y-102767896D01*
X135091096Y-102773789D01*
X134880956Y-102710037D01*
X134770963Y-102578982D01*
X134762860Y-102394248D01*
X134772572Y-102243017D01*
X134708679Y-102146911D01*
X134626292Y-102091993D01*
X134452302Y-101989215D01*
X131840195Y-103447541D01*
X131315621Y-103740929D01*
X130823834Y-104016987D01*
X130375702Y-104269541D01*
X129982091Y-104492420D01*
X129653869Y-104679454D01*
X129401903Y-104824469D01*
X129237059Y-104921295D01*
X129170205Y-104963761D01*
X129169932Y-104964024D01*
X124902640Y-104964024D01*
X124732088Y-104833436D01*
X124340058Y-104496322D01*
G37*
D13*
X124340058Y-104496322D02*
X124048367Y-104198888D01*
X123863623Y-103945990D01*
X123848590Y-103918161D01*
X123811454Y-103830824D01*
X123782749Y-103719311D01*
X123761082Y-103566284D01*
X123745060Y-103354408D01*
X123733288Y-103066346D01*
X123724373Y-102684762D01*
X123718326Y-102297826D01*
X123712783Y-101838291D01*
X123711130Y-101484802D01*
X123714578Y-101218616D01*
X123723984Y-101028109D01*
X123955570Y-101028109D01*
X123962585Y-101219898D01*
X124032295Y-101402262D01*
X124175748Y-101597589D01*
X124403992Y-101828266D01*
X124587092Y-101993709D01*
X125102110Y-102435627D01*
X125544363Y-102787682D01*
X125921697Y-103055304D01*
X126241958Y-103243926D01*
X126512990Y-103358979D01*
X126591467Y-103381358D01*
X126895795Y-103433337D01*
X127261803Y-103460512D01*
X127655402Y-103463991D01*
X128042503Y-103444885D01*
X128389019Y-103404303D01*
X128660860Y-103343355D01*
X128746172Y-103311222D01*
X129025342Y-103147750D01*
X129327633Y-102911974D01*
X129612284Y-102638814D01*
X129816629Y-102394119D01*
X129941986Y-102178174D01*
X129990695Y-101953503D01*
X129994330Y-101843035D01*
X129986346Y-101665687D01*
X129954304Y-101508435D01*
X129886067Y-101346689D01*
X129769497Y-101155858D01*
X129598269Y-100919380D01*
X133056754Y-100919380D01*
X133105611Y-100962621D01*
X133236698Y-101046395D01*
X133421952Y-101152804D01*
X133427503Y-101155856D01*
X133801209Y-101361128D01*
X133801209Y-101704828D01*
X133795055Y-101907640D01*
X133765131Y-102027224D01*
X133694242Y-102104997D01*
X133614380Y-102154838D01*
X133488597Y-102239926D01*
X133428099Y-102307393D01*
X133427157Y-102313009D01*
X133477362Y-102307946D01*
X133612612Y-102251887D01*
X133809307Y-102155284D01*
X133941627Y-102085132D01*
X134456492Y-101805395D01*
X135564231Y-102435331D01*
X136671971Y-103065268D01*
X136671971Y-103426266D01*
X136665090Y-103639246D01*
X136635552Y-103767371D01*
X136570015Y-103850252D01*
X136515951Y-103889492D01*
X136407543Y-103989771D01*
X136359864Y-104090358D01*
X136384725Y-104155920D01*
X136423982Y-104164589D01*
X136498784Y-104123405D01*
X136629126Y-104016257D01*
X136762925Y-103889696D01*
X136958762Y-103666505D01*
X137126247Y-103425689D01*
X137245232Y-103200494D01*
X137295567Y-103024165D01*
X137296050Y-103010044D01*
X137241779Y-102793659D01*
X137084470Y-102528696D01*
X136832376Y-102223082D01*
X136493750Y-101884747D01*
X136076845Y-101521617D01*
X135589915Y-101141623D01*
X135041211Y-100752693D01*
X134736042Y-100550732D01*
X134164170Y-100180906D01*
X133611941Y-100534541D01*
X133384367Y-100682888D01*
X133201775Y-100806882D01*
X133086202Y-100891246D01*
X133056754Y-100919380D01*
X129598269Y-100919380D01*
X129592456Y-100911353D01*
X129430610Y-100700953D01*
X129249383Y-100457958D01*
X129086096Y-100220776D01*
X128964976Y-100025404D01*
X128926597Y-99952058D01*
X128820878Y-99601978D01*
X128835024Y-99264043D01*
X128970456Y-98933620D01*
X129228592Y-98606074D01*
X129383685Y-98459676D01*
X129713494Y-98170775D01*
X129495067Y-98208873D01*
X129194501Y-98268795D01*
X128812387Y-98355921D01*
X128386440Y-98460655D01*
X127954379Y-98573399D01*
X127553919Y-98684555D01*
X127222779Y-98784524D01*
X127185976Y-98796465D01*
X126411896Y-99072544D01*
X125735776Y-99360014D01*
X125162232Y-99655965D01*
X124695878Y-99957488D01*
X124341331Y-100261674D01*
X124103205Y-100565615D01*
X124000201Y-100804510D01*
X123955570Y-101028109D01*
X123723984Y-101028109D01*
X123724336Y-101020992D01*
X123741614Y-100873189D01*
X123767621Y-100756464D01*
X123803568Y-100652076D01*
X123828427Y-100592172D01*
X124031641Y-100263466D01*
X124356061Y-99936277D01*
X124798080Y-99612863D01*
X125354091Y-99295483D01*
X126020486Y-98986393D01*
X126793659Y-98687853D01*
X126967548Y-98627295D01*
X127725209Y-98385305D01*
X128410851Y-98201829D01*
X129013807Y-98079345D01*
X129523407Y-98020329D01*
X129595263Y-98016953D01*
X129870476Y-98003056D01*
X130078395Y-97976610D01*
X130264471Y-97925536D01*
X130474155Y-97837754D01*
X130718605Y-97718391D01*
X131525054Y-97354977D01*
X132375241Y-97045357D01*
X133129886Y-96830889D01*
X133699566Y-96719118D01*
X134182314Y-96680049D01*
X134574308Y-96713334D01*
X134871726Y-96818624D01*
X135070745Y-96995569D01*
X135079726Y-97008842D01*
X135182321Y-97265979D01*
X135218673Y-97603699D01*
X135193327Y-97999782D01*
X135110827Y-98432009D01*
X134975716Y-98878159D01*
X134792537Y-99316014D01*
X134565834Y-99723353D01*
X134506373Y-99812771D01*
X134415162Y-99956319D01*
X134369433Y-100050995D01*
X134369211Y-100068806D01*
X134428133Y-100109634D01*
X134569329Y-100204717D01*
X134770984Y-100339429D01*
X134986959Y-100483010D01*
X135620058Y-100921347D01*
X136169371Y-101339707D01*
X136628016Y-101731971D01*
X136989111Y-102092019D01*
X137245774Y-102413734D01*
X137342784Y-102577768D01*
X137383058Y-102667140D01*
X137413149Y-102764921D01*
X137434274Y-102889329D01*
X137447646Y-103058583D01*
X137454482Y-103290902D01*
X137455996Y-103604504D01*
X137453403Y-104017609D01*
X137451551Y-104208656D01*
X137437391Y-105594493D01*
X137234402Y-105910824D01*
X136948822Y-106274615D01*
X136560621Y-106649362D01*
X136090009Y-107023861D01*
X135557199Y-107386907D01*
X134982402Y-107727297D01*
X134385829Y-108033824D01*
X133787691Y-108295286D01*
X133208201Y-108500478D01*
X132667569Y-108638195D01*
X132209809Y-108696257D01*
X131907361Y-108700847D01*
X131665411Y-108676080D01*
X131421332Y-108613064D01*
X131277511Y-108563930D01*
X131019205Y-108461330D01*
X130674050Y-108309670D01*
X130264599Y-108119981D01*
X129813403Y-107903292D01*
X129343012Y-107670634D01*
X128875979Y-107433038D01*
X128434854Y-107201532D01*
X128042188Y-106987149D01*
X127966074Y-106944245D01*
X127171457Y-106481572D01*
X126444142Y-106034298D01*
X125790738Y-105607280D01*
X125217850Y-105205374D01*
X124902640Y-104964024D01*
X129169932Y-104964024D01*
X129195267Y-105015260D01*
X129315643Y-105104297D01*
X129510940Y-105220799D01*
X129761038Y-105354433D01*
X130045817Y-105494866D01*
X130345157Y-105631764D01*
X130638937Y-105754792D01*
X130892387Y-105848677D01*
X131124817Y-105924906D01*
X131308917Y-105980252D01*
X131415535Y-106006151D01*
X131429710Y-106006474D01*
X131473537Y-105980953D01*
X132365828Y-105980953D01*
X132380088Y-106112852D01*
X132441059Y-106154384D01*
X132506246Y-106150379D01*
X132604431Y-106110504D01*
X132652289Y-106003949D01*
X132666033Y-105896407D01*
X132670115Y-105773047D01*
X132927499Y-105773047D01*
X132935855Y-105943807D01*
X132969002Y-106018382D01*
X133036713Y-106025214D01*
X133106059Y-105981490D01*
X133145897Y-105865307D01*
X133164790Y-105677395D01*
X133166092Y-105508554D01*
X133426762Y-105508554D01*
X133434392Y-105715973D01*
X133467102Y-105819940D01*
X133539622Y-105841390D01*
X133640085Y-105811720D01*
X133699664Y-105753850D01*
X133730500Y-105621642D01*
X133738801Y-105406069D01*
X133736639Y-105258922D01*
X133926025Y-105258922D01*
X133931926Y-105487756D01*
X133957648Y-105612628D01*
X134015218Y-105654153D01*
X134116664Y-105632940D01*
X134139348Y-105624497D01*
X134194478Y-105573776D01*
X134225374Y-105457772D01*
X134237355Y-105251265D01*
X134237661Y-105210284D01*
X134433355Y-105210284D01*
X134450339Y-105348662D01*
X134498935Y-105402729D01*
X134588972Y-105392452D01*
X134638611Y-105374865D01*
X134689948Y-105329528D01*
X134720501Y-105225879D01*
X134734715Y-105039693D01*
X134737327Y-104836787D01*
X134737327Y-104668243D01*
X134986959Y-104668243D01*
X134988660Y-104914596D01*
X134997963Y-105057966D01*
X135021168Y-105120179D01*
X135064575Y-105123062D01*
X135111774Y-105100707D01*
X135175010Y-105051678D01*
X135212661Y-104969110D01*
X135231049Y-104824330D01*
X135236496Y-104588665D01*
X135236590Y-104534645D01*
X135235343Y-104354008D01*
X135486221Y-104354008D01*
X135487910Y-104601031D01*
X135497148Y-104745041D01*
X135520195Y-104807832D01*
X135563309Y-104811200D01*
X135611037Y-104788668D01*
X135675827Y-104737812D01*
X135713658Y-104651728D01*
X135731382Y-104500803D01*
X135735852Y-104255425D01*
X135735853Y-104249328D01*
X135732516Y-104012961D01*
X136047892Y-104012961D01*
X136049792Y-104249613D01*
X136060109Y-104383733D01*
X136085773Y-104437593D01*
X136133712Y-104433469D01*
X136172708Y-104414220D01*
X136237773Y-104363036D01*
X136275631Y-104276316D01*
X136293232Y-104124283D01*
X136297524Y-103879362D01*
X136295624Y-103642710D01*
X136285307Y-103508590D01*
X136259643Y-103454729D01*
X136211704Y-103458854D01*
X136172708Y-103478103D01*
X136107643Y-103529286D01*
X136069785Y-103616007D01*
X136052184Y-103768040D01*
X136047892Y-104012961D01*
X135732516Y-104012961D01*
X135732458Y-104008853D01*
X135718905Y-103870838D01*
X135690140Y-103813036D01*
X135641110Y-103813196D01*
X135637137Y-103814669D01*
X135537652Y-103847712D01*
X135512321Y-103852550D01*
X135500224Y-103910041D01*
X135491104Y-104062868D01*
X135486495Y-104281557D01*
X135486221Y-104354008D01*
X135235343Y-104354008D01*
X135234889Y-104288292D01*
X135225585Y-104144922D01*
X135202380Y-104082709D01*
X135158974Y-104079826D01*
X135111774Y-104102181D01*
X135048538Y-104151210D01*
X135010888Y-104233778D01*
X134992500Y-104378558D01*
X134987053Y-104614223D01*
X134986959Y-104668243D01*
X134737327Y-104668243D01*
X134737327Y-104336589D01*
X134596909Y-104429551D01*
X134520931Y-104497016D01*
X134475259Y-104596394D01*
X134450189Y-104760578D01*
X134438156Y-104967629D01*
X134433355Y-105210284D01*
X134237661Y-105210284D01*
X134238064Y-105156438D01*
X134233378Y-104942945D01*
X134221061Y-104789000D01*
X134203724Y-104726420D01*
X134202758Y-104726260D01*
X134125435Y-104752470D01*
X134046738Y-104790863D01*
X133979131Y-104848280D01*
X133942128Y-104950101D01*
X133927509Y-105128190D01*
X133926025Y-105258922D01*
X133736639Y-105258922D01*
X133735633Y-105190474D01*
X133717364Y-105078851D01*
X133670850Y-105050373D01*
X133582948Y-105084212D01*
X133547475Y-105102903D01*
X133474167Y-105168731D01*
X133437358Y-105287543D01*
X133426786Y-105493818D01*
X133426762Y-105508554D01*
X133166092Y-105508554D01*
X133166199Y-105494806D01*
X133149611Y-105376091D01*
X133130466Y-105350338D01*
X133019543Y-105407527D01*
X132948866Y-105565913D01*
X132927499Y-105773047D01*
X132670115Y-105773047D01*
X132671477Y-105731892D01*
X132637573Y-105671823D01*
X132544343Y-105697342D01*
X132486541Y-105726981D01*
X132386344Y-105848492D01*
X132365828Y-105980953D01*
X131473537Y-105980953D01*
X131488040Y-105972508D01*
X131642591Y-105880868D01*
X131882515Y-105738028D01*
X132196964Y-105550462D01*
X132575090Y-105324644D01*
X133006045Y-105067048D01*
X133478980Y-104784150D01*
X133879219Y-104544589D01*
X134376768Y-104246238D01*
X134839817Y-103967670D01*
X135257684Y-103715379D01*
X135619690Y-103495855D01*
X135915153Y-103315588D01*
X136133392Y-103181071D01*
X136263725Y-103098794D01*
X136297524Y-103074924D01*
X136248621Y-103033943D01*
X136123309Y-102952595D01*
X136019653Y-102890264D01*
X135833814Y-102793932D01*
X135673843Y-102754509D01*
X135475803Y-102759421D01*
X135397405Y-102767896D01*
X135091096Y-102773789D01*
X134880956Y-102710037D01*
X134770963Y-102578982D01*
X134762860Y-102394248D01*
X134772572Y-102243017D01*
X134708679Y-102146911D01*
X134626292Y-102091993D01*
X134452302Y-101989215D01*
X131840195Y-103447541D01*
X131315621Y-103740929D01*
X130823834Y-104016987D01*
X130375702Y-104269541D01*
X129982091Y-104492420D01*
X129653869Y-104679454D01*
X129401903Y-104824469D01*
X129237059Y-104921295D01*
X129170205Y-104963761D01*
X129169932Y-104964024D01*
X124902640Y-104964024D01*
X124732088Y-104833436D01*
X124340058Y-104496322D01*
D12*
%TO.C,R1*%
X115855000Y-53975000D02*
X116475000Y-53975000D01*
X115855000Y-53975000D02*
G75*
G03*
X115855000Y-53975000I-920000J0D01*
G01*
%TO.C,C7*%
X146165000Y-72220000D02*
X142125000Y-72220000D01*
X146165000Y-72845000D02*
X146165000Y-72220000D01*
X146165000Y-75060000D02*
X142125000Y-75060000D01*
X142125000Y-72845000D02*
X142125000Y-72220000D01*
X146165000Y-75060000D02*
X146165000Y-74435000D01*
X142125000Y-75060000D02*
X142125000Y-74435000D01*
%TO.C,R4*%
X115855000Y-61595000D02*
X116475000Y-61595000D01*
X115855000Y-61595000D02*
G75*
G03*
X115855000Y-61595000I-920000J0D01*
G01*
%TO.C,R10*%
X81858600Y-124068600D02*
X83698600Y-124068600D01*
X81858600Y-120228600D02*
X81858600Y-124068600D01*
X82778600Y-119278600D02*
X82778600Y-120228600D01*
X83698600Y-120228600D02*
X81858600Y-120228600D01*
X82778600Y-125018600D02*
X82778600Y-124068600D01*
X83698600Y-124068600D02*
X83698600Y-120228600D01*
%TO.C,U11*%
X154135000Y-75916800D02*
X154135000Y-96356800D01*
X159435000Y-96356800D02*
X159435000Y-75916800D01*
X159435000Y-75916800D02*
X157785000Y-75916800D01*
X155785000Y-75916800D02*
X154135000Y-75916800D01*
X154135000Y-96356800D02*
X159435000Y-96356800D01*
X155785000Y-75916800D02*
G75*
G03*
X157785000Y-75916800I1000000J0D01*
G01*
%TO.C,C1*%
X118205000Y-47475000D02*
X118205000Y-48100000D01*
X118205000Y-49690000D02*
X118205000Y-50315000D01*
X114165000Y-47475000D02*
X114165000Y-48100000D01*
X114165000Y-49690000D02*
X114165000Y-50315000D01*
X114165000Y-47475000D02*
X118205000Y-47475000D01*
X114165000Y-50315000D02*
X118205000Y-50315000D01*
%TO.C,R14*%
X121570000Y-69215000D02*
X122190000Y-69215000D01*
X121570000Y-69215000D02*
G75*
G03*
X121570000Y-69215000I-920000J0D01*
G01*
%TO.C,C20*%
X84849200Y-110566200D02*
G75*
G03*
X84849200Y-110566200I-2620000J0D01*
G01*
%TO.C,R12*%
X127920000Y-53975000D02*
X128540000Y-53975000D01*
X127920000Y-53975000D02*
G75*
G03*
X127920000Y-53975000I-920000J0D01*
G01*
%TO.C,R15*%
X121570000Y-66675000D02*
X122190000Y-66675000D01*
X121570000Y-66675000D02*
G75*
G03*
X121570000Y-66675000I-920000J0D01*
G01*
%TO.C,U18*%
X145990000Y-125620000D02*
X145990000Y-130920000D01*
X166430000Y-130920000D02*
X166430000Y-129270000D01*
X166430000Y-125620000D02*
X145990000Y-125620000D01*
X145990000Y-130920000D02*
X166430000Y-130920000D01*
X166430000Y-127270000D02*
X166430000Y-125620000D01*
X166430000Y-127270000D02*
G75*
G03*
X166430000Y-129270000I0J-1000000D01*
G01*
%TO.C,Y1*%
X175245000Y-62725000D02*
X175245000Y-56475000D01*
X170195000Y-62725000D02*
X170195000Y-56475000D01*
X175245000Y-56475000D02*
G75*
G03*
X170195000Y-56475000I-2525000J0D01*
G01*
X170195000Y-62725000D02*
G75*
G03*
X175245000Y-62725000I2525000J0D01*
G01*
%TO.C,R7*%
X115855000Y-69215000D02*
X116475000Y-69215000D01*
X115855000Y-69215000D02*
G75*
G03*
X115855000Y-69215000I-920000J0D01*
G01*
%TO.C,C5*%
X171565000Y-75060000D02*
X171565000Y-74435000D01*
X171565000Y-75060000D02*
X167525000Y-75060000D01*
X171565000Y-72845000D02*
X171565000Y-72220000D01*
X167525000Y-75060000D02*
X167525000Y-74435000D01*
X167525000Y-72845000D02*
X167525000Y-72220000D01*
X171565000Y-72220000D02*
X167525000Y-72220000D01*
%TO.C,C6*%
X158865000Y-72220000D02*
X154825000Y-72220000D01*
X154825000Y-72845000D02*
X154825000Y-72220000D01*
X158865000Y-75060000D02*
X158865000Y-74435000D01*
X158865000Y-72845000D02*
X158865000Y-72220000D01*
X158865000Y-75060000D02*
X154825000Y-75060000D01*
X154825000Y-75060000D02*
X154825000Y-74435000D01*
%TO.C,U13*%
X139005000Y-118855000D02*
X174685000Y-118855000D01*
X174685000Y-111395000D02*
X174685000Y-105935000D01*
X174685000Y-105935000D02*
X139005000Y-105935000D01*
X139005000Y-105935000D02*
X139005000Y-118855000D01*
X174685000Y-118855000D02*
X174685000Y-113395000D01*
X174685000Y-111395000D02*
G75*
G03*
X174685000Y-113395000I0J-1000000D01*
G01*
%TO.C,U5*%
X90060000Y-80585000D02*
X90060000Y-106105000D01*
X95360000Y-106105000D02*
X95360000Y-80585000D01*
X90060000Y-106105000D02*
X95360000Y-106105000D01*
X91710000Y-80585000D02*
X90060000Y-80585000D01*
X95360000Y-80585000D02*
X93710000Y-80585000D01*
X91710000Y-80585000D02*
G75*
G03*
X93710000Y-80585000I1000000J0D01*
G01*
%TO.C,U4*%
X148480000Y-52645000D02*
X148480000Y-70545000D01*
X153780000Y-52645000D02*
X152130000Y-52645000D01*
X150130000Y-52645000D02*
X148480000Y-52645000D01*
X153780000Y-70545000D02*
X153780000Y-52645000D01*
X148480000Y-70545000D02*
X153780000Y-70545000D01*
X150130000Y-52645000D02*
G75*
G03*
X152130000Y-52645000I1000000J0D01*
G01*
%TO.C,C4*%
X161790000Y-47475000D02*
X161790000Y-48100000D01*
X161790000Y-49690000D02*
X161790000Y-50315000D01*
X165830000Y-47475000D02*
X165830000Y-48100000D01*
X165830000Y-49690000D02*
X165830000Y-50315000D01*
X161790000Y-50315000D02*
X165830000Y-50315000D01*
X161790000Y-47475000D02*
X165830000Y-47475000D01*
%TO.C,C13*%
X90710000Y-48100000D02*
X90710000Y-47475000D01*
X94750000Y-47475000D02*
X90710000Y-47475000D01*
X94750000Y-48100000D02*
X94750000Y-47475000D01*
X94750000Y-50315000D02*
X94750000Y-49690000D01*
X90710000Y-50315000D02*
X90710000Y-49690000D01*
X94750000Y-50315000D02*
X90710000Y-50315000D01*
%TO.C,R16*%
X121570000Y-64135000D02*
X122190000Y-64135000D01*
X121570000Y-64135000D02*
G75*
G03*
X121570000Y-64135000I-920000J0D01*
G01*
%TO.C,C11*%
X139565000Y-123675000D02*
X139565000Y-124300000D01*
X143605000Y-125890000D02*
X143605000Y-126515000D01*
X139565000Y-125890000D02*
X139565000Y-126515000D01*
X139565000Y-123675000D02*
X143605000Y-123675000D01*
X143605000Y-123675000D02*
X143605000Y-124300000D01*
X139565000Y-126515000D02*
X143605000Y-126515000D01*
%TO.C,D1*%
X83833200Y-131481000D02*
X83989200Y-131481000D01*
X81517200Y-131481000D02*
X81673200Y-131481000D01*
X83988716Y-131481000D02*
G75*
G03*
X83831808Y-128248665I-1235516J1560000D01*
G01*
X81674592Y-128248665D02*
G75*
G03*
X81517684Y-131481000I1078608J-1672335D01*
G01*
X81673363Y-128879870D02*
G75*
G03*
X81673200Y-130961961I1079837J-1041130D01*
G01*
X83833200Y-130961961D02*
G75*
G03*
X83833037Y-128879870I-1080000J1040961D01*
G01*
%TO.C,U17*%
X166430000Y-135780000D02*
X145990000Y-135780000D01*
X145990000Y-135780000D02*
X145990000Y-141080000D01*
X166430000Y-141080000D02*
X166430000Y-139430000D01*
X145990000Y-141080000D02*
X166430000Y-141080000D01*
X166430000Y-137430000D02*
X166430000Y-135780000D01*
X166430000Y-137430000D02*
G75*
G03*
X166430000Y-139430000I0J-1000000D01*
G01*
%TO.C,SW1*%
X103692200Y-140859000D02*
X103692200Y-136359000D01*
X99692200Y-142109000D02*
X101192200Y-142109000D01*
X97192200Y-136359000D02*
X97192200Y-140859000D01*
X101192200Y-135109000D02*
X99692200Y-135109000D01*
%TO.C,R8*%
X115855000Y-71755000D02*
X116475000Y-71755000D01*
X115855000Y-71755000D02*
G75*
G03*
X115855000Y-71755000I-920000J0D01*
G01*
%TO.C,U6*%
X90060000Y-51375000D02*
X90060000Y-76895000D01*
X95360000Y-76895000D02*
X95360000Y-51375000D01*
X95360000Y-51375000D02*
X93710000Y-51375000D01*
X91710000Y-51375000D02*
X90060000Y-51375000D01*
X90060000Y-76895000D02*
X95360000Y-76895000D01*
X91710000Y-51375000D02*
G75*
G03*
X93710000Y-51375000I1000000J0D01*
G01*
%TO.C,U12*%
X166835000Y-75916800D02*
X166835000Y-96356800D01*
X172135000Y-96356800D02*
X172135000Y-75916800D01*
X166835000Y-96356800D02*
X172135000Y-96356800D01*
X172135000Y-75916800D02*
X170485000Y-75916800D01*
X168485000Y-75916800D02*
X166835000Y-75916800D01*
X168485000Y-75916800D02*
G75*
G03*
X170485000Y-75916800I1000000J0D01*
G01*
%TO.C,U14*%
X100905000Y-123935000D02*
X136585000Y-123935000D01*
X136585000Y-111015000D02*
X100905000Y-111015000D01*
X136585000Y-123935000D02*
X136585000Y-118475000D01*
X100905000Y-111015000D02*
X100905000Y-123935000D01*
X136585000Y-116475000D02*
X136585000Y-111015000D01*
X136585000Y-116475000D02*
G75*
G03*
X136585000Y-118475000I0J-1000000D01*
G01*
%TO.C,U16*%
X110430000Y-135780000D02*
X110430000Y-137430000D01*
X110430000Y-139430000D02*
X110430000Y-141080000D01*
X110430000Y-141080000D02*
X135950000Y-141080000D01*
X135950000Y-141080000D02*
X135950000Y-135780000D01*
X135950000Y-135780000D02*
X110430000Y-135780000D01*
X110430000Y-139430000D02*
G75*
G03*
X110430000Y-137430000I0J1000000D01*
G01*
%TO.C,U9*%
X130385000Y-75916800D02*
X128735000Y-75916800D01*
X134035000Y-96356800D02*
X134035000Y-75916800D01*
X128735000Y-75916800D02*
X128735000Y-96356800D01*
X128735000Y-96356800D02*
X134035000Y-96356800D01*
X134035000Y-75916800D02*
X132385000Y-75916800D01*
X130385000Y-75916800D02*
G75*
G03*
X132385000Y-75916800I1000000J0D01*
G01*
%TO.C,U3*%
X141080000Y-70545000D02*
X141080000Y-52645000D01*
X137430000Y-52645000D02*
X135780000Y-52645000D01*
X135780000Y-52645000D02*
X135780000Y-70545000D01*
X141080000Y-52645000D02*
X139430000Y-52645000D01*
X135780000Y-70545000D02*
X141080000Y-70545000D01*
X137430000Y-52645000D02*
G75*
G03*
X139430000Y-52645000I1000000J0D01*
G01*
%TO.C,U10*%
X146735000Y-96356800D02*
X146735000Y-75916800D01*
X141435000Y-96356800D02*
X146735000Y-96356800D01*
X146735000Y-75916800D02*
X145085000Y-75916800D01*
X143085000Y-75916800D02*
X141435000Y-75916800D01*
X141435000Y-75916800D02*
X141435000Y-96356800D01*
X143085000Y-75916800D02*
G75*
G03*
X145085000Y-75916800I1000000J0D01*
G01*
%TO.C,D2*%
X128326371Y-60960000D02*
X128440000Y-60960000D01*
X128326371Y-60960000D02*
G75*
G03*
X128326371Y-60960000I-1326371J0D01*
G01*
%TO.C,R13*%
X121570000Y-71755000D02*
X122190000Y-71755000D01*
X121570000Y-71755000D02*
G75*
G03*
X121570000Y-71755000I-920000J0D01*
G01*
%TO.C,C8*%
X133465000Y-75060000D02*
X133465000Y-74435000D01*
X133465000Y-72845000D02*
X133465000Y-72220000D01*
X133465000Y-72220000D02*
X129425000Y-72220000D01*
X129425000Y-75060000D02*
X129425000Y-74435000D01*
X133465000Y-75060000D02*
X129425000Y-75060000D01*
X129425000Y-72845000D02*
X129425000Y-72220000D01*
%TO.C,C12*%
X170910000Y-101887000D02*
X170910000Y-102512000D01*
X170910000Y-99672000D02*
X170910000Y-100297000D01*
X166870000Y-99672000D02*
X166870000Y-100297000D01*
X166870000Y-102512000D02*
X170910000Y-102512000D01*
X166870000Y-99672000D02*
X170910000Y-99672000D01*
X166870000Y-101887000D02*
X166870000Y-102512000D01*
%TO.C,C9*%
X120745000Y-74770000D02*
X120745000Y-74145000D01*
X120745000Y-74145000D02*
X116705000Y-74145000D01*
X120745000Y-76985000D02*
X120745000Y-76360000D01*
X116705000Y-76985000D02*
X116705000Y-76360000D01*
X120745000Y-76985000D02*
X116705000Y-76985000D01*
X116705000Y-74770000D02*
X116705000Y-74145000D01*
%TO.C,R11*%
X100208600Y-132054600D02*
X100828600Y-132054600D01*
X100208600Y-132054600D02*
G75*
G03*
X100208600Y-132054600I-920000J0D01*
G01*
%TO.C,R9*%
X172370000Y-69215000D02*
X172990000Y-69215000D01*
X172370000Y-69215000D02*
G75*
G03*
X172370000Y-69215000I-920000J0D01*
G01*
%TO.C,U15*%
X92820000Y-112970000D02*
X91170000Y-112970000D01*
X92820000Y-138490000D02*
X92820000Y-112970000D01*
X87520000Y-138490000D02*
X92820000Y-138490000D01*
X87520000Y-112970000D02*
X87520000Y-138490000D01*
X89170000Y-112970000D02*
X87520000Y-112970000D01*
X89170000Y-112970000D02*
G75*
G03*
X91170000Y-112970000I1000000J0D01*
G01*
%TO.C,R3*%
X115855000Y-59055000D02*
X116475000Y-59055000D01*
X115855000Y-59055000D02*
G75*
G03*
X115855000Y-59055000I-920000J0D01*
G01*
%TO.C,C15*%
X92210000Y-142390000D02*
X92210000Y-141765000D01*
X92210000Y-142390000D02*
X88170000Y-142390000D01*
X92210000Y-139550000D02*
X88170000Y-139550000D01*
X92210000Y-140175000D02*
X92210000Y-139550000D01*
X88170000Y-140175000D02*
X88170000Y-139550000D01*
X88170000Y-142390000D02*
X88170000Y-141765000D01*
%TO.C,R19*%
X121570000Y-56515000D02*
X122190000Y-56515000D01*
X121570000Y-56515000D02*
G75*
G03*
X121570000Y-56515000I-920000J0D01*
G01*
%TO.C,C2*%
X140430000Y-49690000D02*
X140430000Y-50315000D01*
X136390000Y-47475000D02*
X136390000Y-48100000D01*
X140430000Y-47475000D02*
X140430000Y-48100000D01*
X136390000Y-49690000D02*
X136390000Y-50315000D01*
X136390000Y-47475000D02*
X140430000Y-47475000D01*
X136390000Y-50315000D02*
X140430000Y-50315000D01*
%TD*%
M02*
