%TF.GenerationSoftware,KiCad,Pcbnew,(6.0.4)*%
%TF.CreationDate,2022-05-02T14:31:14-05:00*%
%TF.ProjectId,Schematic,53636865-6d61-4746-9963-2e6b69636164,1.0*%
%TF.SameCoordinates,Original*%
%TF.FileFunction,Legend,Bot*%
%TF.FilePolarity,Positive*%
%FSLAX46Y46*%
G04 Gerber Fmt 4.6, Leading zero omitted, Abs format (unit mm)*
G04 Created by KiCad (PCBNEW (6.0.4)) date 2022-05-02 14:31:14*
%MOMM*%
%LPD*%
G01*
G04 APERTURE LIST*
%ADD10C,0.150000*%
G04 APERTURE END LIST*
D10*
X95250000Y-139065000D02*
X95250000Y-143510000D01*
X145415000Y-123190000D02*
X145415000Y-127635000D01*
X97790000Y-106680000D02*
X87630000Y-106680000D01*
X87630000Y-106680000D02*
X87630000Y-50800000D01*
X87630000Y-50800000D02*
X97790000Y-50800000D01*
X97790000Y-50800000D02*
X97790000Y-106680000D01*
X85090000Y-112395000D02*
X85090000Y-139065000D01*
X135255000Y-47625000D02*
X100965000Y-47625000D01*
X145415000Y-127635000D02*
X95250000Y-127635000D01*
X128270000Y-73660000D02*
X128270000Y-71120000D01*
X100965000Y-47625000D02*
X100965000Y-73660000D01*
X175895000Y-71120000D02*
X175895000Y-52070000D01*
X175895000Y-52070000D02*
X135255000Y-52070000D01*
X100965000Y-77470000D02*
X123825000Y-77470000D01*
X123825000Y-77470000D02*
X123825000Y-106680000D01*
X123825000Y-106680000D02*
X100965000Y-106680000D01*
X100965000Y-106680000D02*
X100965000Y-77470000D01*
X95250000Y-127635000D02*
X95250000Y-112395000D01*
X125730000Y-99695000D02*
X175260000Y-99695000D01*
X175260000Y-99695000D02*
X175260000Y-74930000D01*
X175260000Y-74930000D02*
X125730000Y-74930000D01*
X125730000Y-74930000D02*
X125730000Y-99695000D01*
X95250000Y-112395000D02*
X85090000Y-112395000D01*
X175260000Y-103505000D02*
X138430000Y-103505000D01*
X138430000Y-103505000D02*
X138430000Y-121285000D01*
X138430000Y-121285000D02*
X175260000Y-121285000D01*
X175260000Y-121285000D02*
X175260000Y-103505000D01*
X128270000Y-71120000D02*
X175895000Y-71120000D01*
X95250000Y-143510000D02*
X167005000Y-143510000D01*
X85090000Y-139065000D02*
X95250000Y-139065000D01*
X135255000Y-52070000D02*
X135255000Y-47625000D01*
X100965000Y-73660000D02*
X128270000Y-73660000D01*
X167005000Y-123190000D02*
X145415000Y-123190000D01*
X167005000Y-143510000D02*
X167005000Y-123190000D01*
X137160000Y-126365000D02*
X100330000Y-126365000D01*
X100330000Y-126365000D02*
X100330000Y-108585000D01*
X100330000Y-108585000D02*
X137160000Y-108585000D01*
X137160000Y-108585000D02*
X137160000Y-126365000D01*
X93757619Y-103787380D02*
X93757619Y-102787380D01*
X92567142Y-102739761D02*
X93424285Y-104025476D01*
X92043333Y-102787380D02*
X91852857Y-102787380D01*
X91757619Y-102835000D01*
X91662380Y-102930238D01*
X91614761Y-103120714D01*
X91614761Y-103454047D01*
X91662380Y-103644523D01*
X91757619Y-103739761D01*
X91852857Y-103787380D01*
X92043333Y-103787380D01*
X92138571Y-103739761D01*
X92233809Y-103644523D01*
X92281428Y-103454047D01*
X92281428Y-103120714D01*
X92233809Y-102930238D01*
X92138571Y-102835000D01*
X92043333Y-102787380D01*
X94424285Y-105397380D02*
X94424285Y-104397380D01*
X94043333Y-104397380D01*
X93948095Y-104445000D01*
X93900476Y-104492619D01*
X93852857Y-104587857D01*
X93852857Y-104730714D01*
X93900476Y-104825952D01*
X93948095Y-104873571D01*
X94043333Y-104921190D01*
X94424285Y-104921190D01*
X93281428Y-105397380D02*
X93376666Y-105349761D01*
X93424285Y-105302142D01*
X93471904Y-105206904D01*
X93471904Y-104921190D01*
X93424285Y-104825952D01*
X93376666Y-104778333D01*
X93281428Y-104730714D01*
X93138571Y-104730714D01*
X93043333Y-104778333D01*
X92995714Y-104825952D01*
X92948095Y-104921190D01*
X92948095Y-105206904D01*
X92995714Y-105302142D01*
X93043333Y-105349761D01*
X93138571Y-105397380D01*
X93281428Y-105397380D01*
X92519523Y-105397380D02*
X92519523Y-104730714D01*
X92519523Y-104921190D02*
X92471904Y-104825952D01*
X92424285Y-104778333D01*
X92329047Y-104730714D01*
X92233809Y-104730714D01*
X92043333Y-104730714D02*
X91662380Y-104730714D01*
X91900476Y-104397380D02*
X91900476Y-105254523D01*
X91852857Y-105349761D01*
X91757619Y-105397380D01*
X91662380Y-105397380D01*
X91376666Y-105349761D02*
X91281428Y-105397380D01*
X91090952Y-105397380D01*
X90995714Y-105349761D01*
X90948095Y-105254523D01*
X90948095Y-105206904D01*
X90995714Y-105111666D01*
X91090952Y-105064047D01*
X91233809Y-105064047D01*
X91329047Y-105016428D01*
X91376666Y-104921190D01*
X91376666Y-104873571D01*
X91329047Y-104778333D01*
X91233809Y-104730714D01*
X91090952Y-104730714D01*
X90995714Y-104778333D01*
X123292619Y-116122380D02*
X122673571Y-116122380D01*
X123006904Y-116503333D01*
X122864047Y-116503333D01*
X122768809Y-116550952D01*
X122721190Y-116598571D01*
X122673571Y-116693809D01*
X122673571Y-116931904D01*
X122721190Y-117027142D01*
X122768809Y-117074761D01*
X122864047Y-117122380D01*
X123149761Y-117122380D01*
X123245000Y-117074761D01*
X123292619Y-117027142D01*
X122292619Y-116217619D02*
X122245000Y-116170000D01*
X122149761Y-116122380D01*
X121911666Y-116122380D01*
X121816428Y-116170000D01*
X121768809Y-116217619D01*
X121721190Y-116312857D01*
X121721190Y-116408095D01*
X121768809Y-116550952D01*
X122340238Y-117122380D01*
X121721190Y-117122380D01*
X120530714Y-117122380D02*
X120530714Y-116122380D01*
X119959285Y-117122380D02*
X120387857Y-116550952D01*
X119959285Y-116122380D02*
X120530714Y-116693809D01*
X119197380Y-116598571D02*
X119054523Y-116646190D01*
X119006904Y-116693809D01*
X118959285Y-116789047D01*
X118959285Y-116931904D01*
X119006904Y-117027142D01*
X119054523Y-117074761D01*
X119149761Y-117122380D01*
X119530714Y-117122380D01*
X119530714Y-116122380D01*
X119197380Y-116122380D01*
X119102142Y-116170000D01*
X119054523Y-116217619D01*
X119006904Y-116312857D01*
X119006904Y-116408095D01*
X119054523Y-116503333D01*
X119102142Y-116550952D01*
X119197380Y-116598571D01*
X119530714Y-116598571D01*
X117816428Y-117074761D02*
X117673571Y-117122380D01*
X117435476Y-117122380D01*
X117340238Y-117074761D01*
X117292619Y-117027142D01*
X117245000Y-116931904D01*
X117245000Y-116836666D01*
X117292619Y-116741428D01*
X117340238Y-116693809D01*
X117435476Y-116646190D01*
X117625952Y-116598571D01*
X117721190Y-116550952D01*
X117768809Y-116503333D01*
X117816428Y-116408095D01*
X117816428Y-116312857D01*
X117768809Y-116217619D01*
X117721190Y-116170000D01*
X117625952Y-116122380D01*
X117387857Y-116122380D01*
X117245000Y-116170000D01*
X116245000Y-117122380D02*
X116578333Y-116646190D01*
X116816428Y-117122380D02*
X116816428Y-116122380D01*
X116435476Y-116122380D01*
X116340238Y-116170000D01*
X116292619Y-116217619D01*
X116245000Y-116312857D01*
X116245000Y-116455714D01*
X116292619Y-116550952D01*
X116340238Y-116598571D01*
X116435476Y-116646190D01*
X116816428Y-116646190D01*
X115864047Y-116836666D02*
X115387857Y-116836666D01*
X115959285Y-117122380D02*
X115625952Y-116122380D01*
X115292619Y-117122380D01*
X114959285Y-117122380D02*
X114959285Y-116122380D01*
X114625952Y-116836666D01*
X114292619Y-116122380D01*
X114292619Y-117122380D01*
X123483095Y-118732380D02*
X123483095Y-117732380D01*
X123245000Y-117732380D01*
X123102142Y-117780000D01*
X123006904Y-117875238D01*
X122959285Y-117970476D01*
X122911666Y-118160952D01*
X122911666Y-118303809D01*
X122959285Y-118494285D01*
X123006904Y-118589523D01*
X123102142Y-118684761D01*
X123245000Y-118732380D01*
X123483095Y-118732380D01*
X122054523Y-118732380D02*
X122054523Y-118208571D01*
X122102142Y-118113333D01*
X122197380Y-118065714D01*
X122387857Y-118065714D01*
X122483095Y-118113333D01*
X122054523Y-118684761D02*
X122149761Y-118732380D01*
X122387857Y-118732380D01*
X122483095Y-118684761D01*
X122530714Y-118589523D01*
X122530714Y-118494285D01*
X122483095Y-118399047D01*
X122387857Y-118351428D01*
X122149761Y-118351428D01*
X122054523Y-118303809D01*
X121721190Y-118065714D02*
X121340238Y-118065714D01*
X121578333Y-117732380D02*
X121578333Y-118589523D01*
X121530714Y-118684761D01*
X121435476Y-118732380D01*
X121340238Y-118732380D01*
X120578333Y-118732380D02*
X120578333Y-118208571D01*
X120625952Y-118113333D01*
X120721190Y-118065714D01*
X120911666Y-118065714D01*
X121006904Y-118113333D01*
X120578333Y-118684761D02*
X120673571Y-118732380D01*
X120911666Y-118732380D01*
X121006904Y-118684761D01*
X121054523Y-118589523D01*
X121054523Y-118494285D01*
X121006904Y-118399047D01*
X120911666Y-118351428D01*
X120673571Y-118351428D01*
X120578333Y-118303809D01*
X119340238Y-118732380D02*
X119340238Y-118065714D01*
X119340238Y-118160952D02*
X119292619Y-118113333D01*
X119197380Y-118065714D01*
X119054523Y-118065714D01*
X118959285Y-118113333D01*
X118911666Y-118208571D01*
X118911666Y-118732380D01*
X118911666Y-118208571D02*
X118864047Y-118113333D01*
X118768809Y-118065714D01*
X118625952Y-118065714D01*
X118530714Y-118113333D01*
X118483095Y-118208571D01*
X118483095Y-118732380D01*
X117625952Y-118684761D02*
X117721190Y-118732380D01*
X117911666Y-118732380D01*
X118006904Y-118684761D01*
X118054523Y-118589523D01*
X118054523Y-118208571D01*
X118006904Y-118113333D01*
X117911666Y-118065714D01*
X117721190Y-118065714D01*
X117625952Y-118113333D01*
X117578333Y-118208571D01*
X117578333Y-118303809D01*
X118054523Y-118399047D01*
X117149761Y-118732380D02*
X117149761Y-118065714D01*
X117149761Y-118160952D02*
X117102142Y-118113333D01*
X117006904Y-118065714D01*
X116864047Y-118065714D01*
X116768809Y-118113333D01*
X116721190Y-118208571D01*
X116721190Y-118732380D01*
X116721190Y-118208571D02*
X116673571Y-118113333D01*
X116578333Y-118065714D01*
X116435476Y-118065714D01*
X116340238Y-118113333D01*
X116292619Y-118208571D01*
X116292619Y-118732380D01*
X115673571Y-118732380D02*
X115768809Y-118684761D01*
X115816428Y-118637142D01*
X115864047Y-118541904D01*
X115864047Y-118256190D01*
X115816428Y-118160952D01*
X115768809Y-118113333D01*
X115673571Y-118065714D01*
X115530714Y-118065714D01*
X115435476Y-118113333D01*
X115387857Y-118160952D01*
X115340238Y-118256190D01*
X115340238Y-118541904D01*
X115387857Y-118637142D01*
X115435476Y-118684761D01*
X115530714Y-118732380D01*
X115673571Y-118732380D01*
X114911666Y-118732380D02*
X114911666Y-118065714D01*
X114911666Y-118256190D02*
X114864047Y-118160952D01*
X114816428Y-118113333D01*
X114721190Y-118065714D01*
X114625952Y-118065714D01*
X114387857Y-118065714D02*
X114149761Y-118732380D01*
X113911666Y-118065714D02*
X114149761Y-118732380D01*
X114245000Y-118970476D01*
X114292619Y-119018095D01*
X114387857Y-119065714D01*
X127618571Y-138596666D02*
X127142380Y-138596666D01*
X127713809Y-138882380D02*
X127380476Y-137882380D01*
X127047142Y-138882380D01*
X126285238Y-138834761D02*
X126380476Y-138882380D01*
X126570952Y-138882380D01*
X126666190Y-138834761D01*
X126713809Y-138787142D01*
X126761428Y-138691904D01*
X126761428Y-138406190D01*
X126713809Y-138310952D01*
X126666190Y-138263333D01*
X126570952Y-138215714D01*
X126380476Y-138215714D01*
X126285238Y-138263333D01*
X125428095Y-138834761D02*
X125523333Y-138882380D01*
X125713809Y-138882380D01*
X125809047Y-138834761D01*
X125856666Y-138787142D01*
X125904285Y-138691904D01*
X125904285Y-138406190D01*
X125856666Y-138310952D01*
X125809047Y-138263333D01*
X125713809Y-138215714D01*
X125523333Y-138215714D01*
X125428095Y-138263333D01*
X124570952Y-138215714D02*
X124570952Y-138882380D01*
X124999523Y-138215714D02*
X124999523Y-138739523D01*
X124951904Y-138834761D01*
X124856666Y-138882380D01*
X124713809Y-138882380D01*
X124618571Y-138834761D01*
X124570952Y-138787142D01*
X124094761Y-138882380D02*
X124094761Y-138215714D01*
X124094761Y-138310952D02*
X124047142Y-138263333D01*
X123951904Y-138215714D01*
X123809047Y-138215714D01*
X123713809Y-138263333D01*
X123666190Y-138358571D01*
X123666190Y-138882380D01*
X123666190Y-138358571D02*
X123618571Y-138263333D01*
X123523333Y-138215714D01*
X123380476Y-138215714D01*
X123285238Y-138263333D01*
X123237619Y-138358571D01*
X123237619Y-138882380D01*
X122332857Y-138215714D02*
X122332857Y-138882380D01*
X122761428Y-138215714D02*
X122761428Y-138739523D01*
X122713809Y-138834761D01*
X122618571Y-138882380D01*
X122475714Y-138882380D01*
X122380476Y-138834761D01*
X122332857Y-138787142D01*
X121713809Y-138882380D02*
X121809047Y-138834761D01*
X121856666Y-138739523D01*
X121856666Y-137882380D01*
X120904285Y-138882380D02*
X120904285Y-138358571D01*
X120951904Y-138263333D01*
X121047142Y-138215714D01*
X121237619Y-138215714D01*
X121332857Y-138263333D01*
X120904285Y-138834761D02*
X120999523Y-138882380D01*
X121237619Y-138882380D01*
X121332857Y-138834761D01*
X121380476Y-138739523D01*
X121380476Y-138644285D01*
X121332857Y-138549047D01*
X121237619Y-138501428D01*
X120999523Y-138501428D01*
X120904285Y-138453809D01*
X120570952Y-138215714D02*
X120190000Y-138215714D01*
X120428095Y-137882380D02*
X120428095Y-138739523D01*
X120380476Y-138834761D01*
X120285238Y-138882380D01*
X120190000Y-138882380D01*
X119713809Y-138882380D02*
X119809047Y-138834761D01*
X119856666Y-138787142D01*
X119904285Y-138691904D01*
X119904285Y-138406190D01*
X119856666Y-138310952D01*
X119809047Y-138263333D01*
X119713809Y-138215714D01*
X119570952Y-138215714D01*
X119475714Y-138263333D01*
X119428095Y-138310952D01*
X119380476Y-138406190D01*
X119380476Y-138691904D01*
X119428095Y-138787142D01*
X119475714Y-138834761D01*
X119570952Y-138882380D01*
X119713809Y-138882380D01*
X118951904Y-138882380D02*
X118951904Y-138215714D01*
X118951904Y-138406190D02*
X118904285Y-138310952D01*
X118856666Y-138263333D01*
X118761428Y-138215714D01*
X118666190Y-138215714D01*
X173735238Y-98877380D02*
X173735238Y-97877380D01*
X173354285Y-97877380D01*
X173259047Y-97925000D01*
X173211428Y-97972619D01*
X173163809Y-98067857D01*
X173163809Y-98210714D01*
X173211428Y-98305952D01*
X173259047Y-98353571D01*
X173354285Y-98401190D01*
X173735238Y-98401190D01*
X172735238Y-98877380D02*
X172735238Y-98210714D01*
X172735238Y-98401190D02*
X172687619Y-98305952D01*
X172640000Y-98258333D01*
X172544761Y-98210714D01*
X172449523Y-98210714D01*
X171973333Y-98877380D02*
X172068571Y-98829761D01*
X172116190Y-98782142D01*
X172163809Y-98686904D01*
X172163809Y-98401190D01*
X172116190Y-98305952D01*
X172068571Y-98258333D01*
X171973333Y-98210714D01*
X171830476Y-98210714D01*
X171735238Y-98258333D01*
X171687619Y-98305952D01*
X171640000Y-98401190D01*
X171640000Y-98686904D01*
X171687619Y-98782142D01*
X171735238Y-98829761D01*
X171830476Y-98877380D01*
X171973333Y-98877380D01*
X170782857Y-98210714D02*
X170782857Y-99020238D01*
X170830476Y-99115476D01*
X170878095Y-99163095D01*
X170973333Y-99210714D01*
X171116190Y-99210714D01*
X171211428Y-99163095D01*
X170782857Y-98829761D02*
X170878095Y-98877380D01*
X171068571Y-98877380D01*
X171163809Y-98829761D01*
X171211428Y-98782142D01*
X171259047Y-98686904D01*
X171259047Y-98401190D01*
X171211428Y-98305952D01*
X171163809Y-98258333D01*
X171068571Y-98210714D01*
X170878095Y-98210714D01*
X170782857Y-98258333D01*
X170306666Y-98877380D02*
X170306666Y-98210714D01*
X170306666Y-98401190D02*
X170259047Y-98305952D01*
X170211428Y-98258333D01*
X170116190Y-98210714D01*
X170020952Y-98210714D01*
X169259047Y-98877380D02*
X169259047Y-98353571D01*
X169306666Y-98258333D01*
X169401904Y-98210714D01*
X169592380Y-98210714D01*
X169687619Y-98258333D01*
X169259047Y-98829761D02*
X169354285Y-98877380D01*
X169592380Y-98877380D01*
X169687619Y-98829761D01*
X169735238Y-98734523D01*
X169735238Y-98639285D01*
X169687619Y-98544047D01*
X169592380Y-98496428D01*
X169354285Y-98496428D01*
X169259047Y-98448809D01*
X168782857Y-98877380D02*
X168782857Y-98210714D01*
X168782857Y-98305952D02*
X168735238Y-98258333D01*
X168640000Y-98210714D01*
X168497142Y-98210714D01*
X168401904Y-98258333D01*
X168354285Y-98353571D01*
X168354285Y-98877380D01*
X168354285Y-98353571D02*
X168306666Y-98258333D01*
X168211428Y-98210714D01*
X168068571Y-98210714D01*
X167973333Y-98258333D01*
X167925714Y-98353571D01*
X167925714Y-98877380D01*
X166259047Y-98829761D02*
X166354285Y-98877380D01*
X166544761Y-98877380D01*
X166640000Y-98829761D01*
X166687619Y-98782142D01*
X166735238Y-98686904D01*
X166735238Y-98401190D01*
X166687619Y-98305952D01*
X166640000Y-98258333D01*
X166544761Y-98210714D01*
X166354285Y-98210714D01*
X166259047Y-98258333D01*
X165687619Y-98877380D02*
X165782857Y-98829761D01*
X165830476Y-98782142D01*
X165878095Y-98686904D01*
X165878095Y-98401190D01*
X165830476Y-98305952D01*
X165782857Y-98258333D01*
X165687619Y-98210714D01*
X165544761Y-98210714D01*
X165449523Y-98258333D01*
X165401904Y-98305952D01*
X165354285Y-98401190D01*
X165354285Y-98686904D01*
X165401904Y-98782142D01*
X165449523Y-98829761D01*
X165544761Y-98877380D01*
X165687619Y-98877380D01*
X164497142Y-98210714D02*
X164497142Y-98877380D01*
X164925714Y-98210714D02*
X164925714Y-98734523D01*
X164878095Y-98829761D01*
X164782857Y-98877380D01*
X164640000Y-98877380D01*
X164544761Y-98829761D01*
X164497142Y-98782142D01*
X164020952Y-98210714D02*
X164020952Y-98877380D01*
X164020952Y-98305952D02*
X163973333Y-98258333D01*
X163878095Y-98210714D01*
X163735238Y-98210714D01*
X163640000Y-98258333D01*
X163592380Y-98353571D01*
X163592380Y-98877380D01*
X163259047Y-98210714D02*
X162878095Y-98210714D01*
X163116190Y-97877380D02*
X163116190Y-98734523D01*
X163068571Y-98829761D01*
X162973333Y-98877380D01*
X162878095Y-98877380D01*
X162163809Y-98829761D02*
X162259047Y-98877380D01*
X162449523Y-98877380D01*
X162544761Y-98829761D01*
X162592380Y-98734523D01*
X162592380Y-98353571D01*
X162544761Y-98258333D01*
X162449523Y-98210714D01*
X162259047Y-98210714D01*
X162163809Y-98258333D01*
X162116190Y-98353571D01*
X162116190Y-98448809D01*
X162592380Y-98544047D01*
X161687619Y-98877380D02*
X161687619Y-98210714D01*
X161687619Y-98401190D02*
X161640000Y-98305952D01*
X161592380Y-98258333D01*
X161497142Y-98210714D01*
X161401904Y-98210714D01*
X137882380Y-58595000D02*
X137882380Y-58785476D01*
X137930000Y-58880714D01*
X138025238Y-58975952D01*
X138215714Y-59023571D01*
X138549047Y-59023571D01*
X138739523Y-58975952D01*
X138834761Y-58880714D01*
X138882380Y-58785476D01*
X138882380Y-58595000D01*
X138834761Y-58499761D01*
X138739523Y-58404523D01*
X138549047Y-58356904D01*
X138215714Y-58356904D01*
X138025238Y-58404523D01*
X137930000Y-58499761D01*
X137882380Y-58595000D01*
X138882380Y-60023571D02*
X138406190Y-59690238D01*
X138882380Y-59452142D02*
X137882380Y-59452142D01*
X137882380Y-59833095D01*
X137930000Y-59928333D01*
X137977619Y-59975952D01*
X138072857Y-60023571D01*
X138215714Y-60023571D01*
X138310952Y-59975952D01*
X138358571Y-59928333D01*
X138406190Y-59833095D01*
X138406190Y-59452142D01*
X138215714Y-61642619D02*
X139025238Y-61642619D01*
X139120476Y-61595000D01*
X139168095Y-61547380D01*
X139215714Y-61452142D01*
X139215714Y-61309285D01*
X139168095Y-61214047D01*
X138834761Y-61642619D02*
X138882380Y-61547380D01*
X138882380Y-61356904D01*
X138834761Y-61261666D01*
X138787142Y-61214047D01*
X138691904Y-61166428D01*
X138406190Y-61166428D01*
X138310952Y-61214047D01*
X138263333Y-61261666D01*
X138215714Y-61356904D01*
X138215714Y-61547380D01*
X138263333Y-61642619D01*
X138882380Y-62547380D02*
X138358571Y-62547380D01*
X138263333Y-62499761D01*
X138215714Y-62404523D01*
X138215714Y-62214047D01*
X138263333Y-62118809D01*
X138834761Y-62547380D02*
X138882380Y-62452142D01*
X138882380Y-62214047D01*
X138834761Y-62118809D01*
X138739523Y-62071190D01*
X138644285Y-62071190D01*
X138549047Y-62118809D01*
X138501428Y-62214047D01*
X138501428Y-62452142D01*
X138453809Y-62547380D01*
X138215714Y-62880714D02*
X138215714Y-63261666D01*
X137882380Y-63023571D02*
X138739523Y-63023571D01*
X138834761Y-63071190D01*
X138882380Y-63166428D01*
X138882380Y-63261666D01*
X138834761Y-63975952D02*
X138882380Y-63880714D01*
X138882380Y-63690238D01*
X138834761Y-63595000D01*
X138739523Y-63547380D01*
X138358571Y-63547380D01*
X138263333Y-63595000D01*
X138215714Y-63690238D01*
X138215714Y-63880714D01*
X138263333Y-63975952D01*
X138358571Y-64023571D01*
X138453809Y-64023571D01*
X138549047Y-63547380D01*
X138834761Y-64404523D02*
X138882380Y-64499761D01*
X138882380Y-64690238D01*
X138834761Y-64785476D01*
X138739523Y-64833095D01*
X138691904Y-64833095D01*
X138596666Y-64785476D01*
X138549047Y-64690238D01*
X138549047Y-64547380D01*
X138501428Y-64452142D01*
X138406190Y-64404523D01*
X138358571Y-64404523D01*
X138263333Y-64452142D01*
X138215714Y-64547380D01*
X138215714Y-64690238D01*
X138263333Y-64785476D01*
X92162380Y-58873095D02*
X92162380Y-59063571D01*
X92210000Y-59158809D01*
X92305238Y-59254047D01*
X92495714Y-59301666D01*
X92829047Y-59301666D01*
X93019523Y-59254047D01*
X93114761Y-59158809D01*
X93162380Y-59063571D01*
X93162380Y-58873095D01*
X93114761Y-58777857D01*
X93019523Y-58682619D01*
X92829047Y-58635000D01*
X92495714Y-58635000D01*
X92305238Y-58682619D01*
X92210000Y-58777857D01*
X92162380Y-58873095D01*
X92495714Y-60158809D02*
X93162380Y-60158809D01*
X92495714Y-59730238D02*
X93019523Y-59730238D01*
X93114761Y-59777857D01*
X93162380Y-59873095D01*
X93162380Y-60015952D01*
X93114761Y-60111190D01*
X93067142Y-60158809D01*
X92495714Y-60492142D02*
X92495714Y-60873095D01*
X92162380Y-60635000D02*
X93019523Y-60635000D01*
X93114761Y-60682619D01*
X93162380Y-60777857D01*
X93162380Y-60873095D01*
X92495714Y-61206428D02*
X93495714Y-61206428D01*
X92543333Y-61206428D02*
X92495714Y-61301666D01*
X92495714Y-61492142D01*
X92543333Y-61587380D01*
X92590952Y-61635000D01*
X92686190Y-61682619D01*
X92971904Y-61682619D01*
X93067142Y-61635000D01*
X93114761Y-61587380D01*
X93162380Y-61492142D01*
X93162380Y-61301666D01*
X93114761Y-61206428D01*
X92495714Y-62539761D02*
X93162380Y-62539761D01*
X92495714Y-62111190D02*
X93019523Y-62111190D01*
X93114761Y-62158809D01*
X93162380Y-62254047D01*
X93162380Y-62396904D01*
X93114761Y-62492142D01*
X93067142Y-62539761D01*
X92495714Y-62873095D02*
X92495714Y-63254047D01*
X92162380Y-63015952D02*
X93019523Y-63015952D01*
X93114761Y-63063571D01*
X93162380Y-63158809D01*
X93162380Y-63254047D01*
X93162380Y-64349285D02*
X92495714Y-64349285D01*
X92686190Y-64349285D02*
X92590952Y-64396904D01*
X92543333Y-64444523D01*
X92495714Y-64539761D01*
X92495714Y-64635000D01*
X93114761Y-65349285D02*
X93162380Y-65254047D01*
X93162380Y-65063571D01*
X93114761Y-64968333D01*
X93019523Y-64920714D01*
X92638571Y-64920714D01*
X92543333Y-64968333D01*
X92495714Y-65063571D01*
X92495714Y-65254047D01*
X92543333Y-65349285D01*
X92638571Y-65396904D01*
X92733809Y-65396904D01*
X92829047Y-64920714D01*
X92495714Y-66254047D02*
X93305238Y-66254047D01*
X93400476Y-66206428D01*
X93448095Y-66158809D01*
X93495714Y-66063571D01*
X93495714Y-65920714D01*
X93448095Y-65825476D01*
X93114761Y-66254047D02*
X93162380Y-66158809D01*
X93162380Y-65968333D01*
X93114761Y-65873095D01*
X93067142Y-65825476D01*
X92971904Y-65777857D01*
X92686190Y-65777857D01*
X92590952Y-65825476D01*
X92543333Y-65873095D01*
X92495714Y-65968333D01*
X92495714Y-66158809D01*
X92543333Y-66254047D01*
X93162380Y-66730238D02*
X92495714Y-66730238D01*
X92162380Y-66730238D02*
X92210000Y-66682619D01*
X92257619Y-66730238D01*
X92210000Y-66777857D01*
X92162380Y-66730238D01*
X92257619Y-66730238D01*
X93114761Y-67158809D02*
X93162380Y-67254047D01*
X93162380Y-67444523D01*
X93114761Y-67539761D01*
X93019523Y-67587380D01*
X92971904Y-67587380D01*
X92876666Y-67539761D01*
X92829047Y-67444523D01*
X92829047Y-67301666D01*
X92781428Y-67206428D01*
X92686190Y-67158809D01*
X92638571Y-67158809D01*
X92543333Y-67206428D01*
X92495714Y-67301666D01*
X92495714Y-67444523D01*
X92543333Y-67539761D01*
X92495714Y-67873095D02*
X92495714Y-68254047D01*
X92162380Y-68015952D02*
X93019523Y-68015952D01*
X93114761Y-68063571D01*
X93162380Y-68158809D01*
X93162380Y-68254047D01*
X93114761Y-68968333D02*
X93162380Y-68873095D01*
X93162380Y-68682619D01*
X93114761Y-68587380D01*
X93019523Y-68539761D01*
X92638571Y-68539761D01*
X92543333Y-68587380D01*
X92495714Y-68682619D01*
X92495714Y-68873095D01*
X92543333Y-68968333D01*
X92638571Y-69015952D01*
X92733809Y-69015952D01*
X92829047Y-68539761D01*
X93162380Y-69444523D02*
X92495714Y-69444523D01*
X92686190Y-69444523D02*
X92590952Y-69492142D01*
X92543333Y-69539761D01*
X92495714Y-69635000D01*
X92495714Y-69730238D01*
X93162380Y-89106904D02*
X92162380Y-89106904D01*
X92495714Y-89583095D02*
X93162380Y-89583095D01*
X92590952Y-89583095D02*
X92543333Y-89630714D01*
X92495714Y-89725952D01*
X92495714Y-89868809D01*
X92543333Y-89964047D01*
X92638571Y-90011666D01*
X93162380Y-90011666D01*
X92495714Y-90487857D02*
X93495714Y-90487857D01*
X92543333Y-90487857D02*
X92495714Y-90583095D01*
X92495714Y-90773571D01*
X92543333Y-90868809D01*
X92590952Y-90916428D01*
X92686190Y-90964047D01*
X92971904Y-90964047D01*
X93067142Y-90916428D01*
X93114761Y-90868809D01*
X93162380Y-90773571D01*
X93162380Y-90583095D01*
X93114761Y-90487857D01*
X92495714Y-91821190D02*
X93162380Y-91821190D01*
X92495714Y-91392619D02*
X93019523Y-91392619D01*
X93114761Y-91440238D01*
X93162380Y-91535476D01*
X93162380Y-91678333D01*
X93114761Y-91773571D01*
X93067142Y-91821190D01*
X92495714Y-92154523D02*
X92495714Y-92535476D01*
X92162380Y-92297380D02*
X93019523Y-92297380D01*
X93114761Y-92345000D01*
X93162380Y-92440238D01*
X93162380Y-92535476D01*
X93162380Y-93630714D02*
X92162380Y-93630714D01*
X92543333Y-93630714D02*
X92495714Y-93725952D01*
X92495714Y-93916428D01*
X92543333Y-94011666D01*
X92590952Y-94059285D01*
X92686190Y-94106904D01*
X92971904Y-94106904D01*
X93067142Y-94059285D01*
X93114761Y-94011666D01*
X93162380Y-93916428D01*
X93162380Y-93725952D01*
X93114761Y-93630714D01*
X92495714Y-94964047D02*
X93162380Y-94964047D01*
X92495714Y-94535476D02*
X93019523Y-94535476D01*
X93114761Y-94583095D01*
X93162380Y-94678333D01*
X93162380Y-94821190D01*
X93114761Y-94916428D01*
X93067142Y-94964047D01*
X92495714Y-95297380D02*
X92495714Y-95678333D01*
X93162380Y-95440238D02*
X92305238Y-95440238D01*
X92210000Y-95487857D01*
X92162380Y-95583095D01*
X92162380Y-95678333D01*
X92495714Y-95868809D02*
X92495714Y-96249761D01*
X93162380Y-96011666D02*
X92305238Y-96011666D01*
X92210000Y-96059285D01*
X92162380Y-96154523D01*
X92162380Y-96249761D01*
X93114761Y-96964047D02*
X93162380Y-96868809D01*
X93162380Y-96678333D01*
X93114761Y-96583095D01*
X93019523Y-96535476D01*
X92638571Y-96535476D01*
X92543333Y-96583095D01*
X92495714Y-96678333D01*
X92495714Y-96868809D01*
X92543333Y-96964047D01*
X92638571Y-97011666D01*
X92733809Y-97011666D01*
X92829047Y-96535476D01*
X93162380Y-97440238D02*
X92495714Y-97440238D01*
X92686190Y-97440238D02*
X92590952Y-97487857D01*
X92543333Y-97535476D01*
X92495714Y-97630714D01*
X92495714Y-97725952D01*
X144502142Y-81479047D02*
X144549761Y-81431428D01*
X144597380Y-81288571D01*
X144597380Y-81193333D01*
X144549761Y-81050476D01*
X144454523Y-80955238D01*
X144359285Y-80907619D01*
X144168809Y-80860000D01*
X144025952Y-80860000D01*
X143835476Y-80907619D01*
X143740238Y-80955238D01*
X143645000Y-81050476D01*
X143597380Y-81193333D01*
X143597380Y-81288571D01*
X143645000Y-81431428D01*
X143692619Y-81479047D01*
X144597380Y-82050476D02*
X144549761Y-81955238D01*
X144502142Y-81907619D01*
X144406904Y-81860000D01*
X144121190Y-81860000D01*
X144025952Y-81907619D01*
X143978333Y-81955238D01*
X143930714Y-82050476D01*
X143930714Y-82193333D01*
X143978333Y-82288571D01*
X144025952Y-82336190D01*
X144121190Y-82383809D01*
X144406904Y-82383809D01*
X144502142Y-82336190D01*
X144549761Y-82288571D01*
X144597380Y-82193333D01*
X144597380Y-82050476D01*
X143930714Y-83240952D02*
X144597380Y-83240952D01*
X143930714Y-82812380D02*
X144454523Y-82812380D01*
X144549761Y-82860000D01*
X144597380Y-82955238D01*
X144597380Y-83098095D01*
X144549761Y-83193333D01*
X144502142Y-83240952D01*
X143930714Y-83717142D02*
X144597380Y-83717142D01*
X144025952Y-83717142D02*
X143978333Y-83764761D01*
X143930714Y-83860000D01*
X143930714Y-84002857D01*
X143978333Y-84098095D01*
X144073571Y-84145714D01*
X144597380Y-84145714D01*
X143930714Y-84479047D02*
X143930714Y-84860000D01*
X143597380Y-84621904D02*
X144454523Y-84621904D01*
X144549761Y-84669523D01*
X144597380Y-84764761D01*
X144597380Y-84860000D01*
X144549761Y-85574285D02*
X144597380Y-85479047D01*
X144597380Y-85288571D01*
X144549761Y-85193333D01*
X144454523Y-85145714D01*
X144073571Y-85145714D01*
X143978333Y-85193333D01*
X143930714Y-85288571D01*
X143930714Y-85479047D01*
X143978333Y-85574285D01*
X144073571Y-85621904D01*
X144168809Y-85621904D01*
X144264047Y-85145714D01*
X144597380Y-86050476D02*
X143930714Y-86050476D01*
X144121190Y-86050476D02*
X144025952Y-86098095D01*
X143978333Y-86145714D01*
X143930714Y-86240952D01*
X143930714Y-86336190D01*
X144311666Y-87383809D02*
X144311666Y-87860000D01*
X144597380Y-87288571D02*
X143597380Y-87621904D01*
X144597380Y-87955238D01*
X143930714Y-88717142D02*
X144597380Y-88717142D01*
X143549761Y-88479047D02*
X144264047Y-88240952D01*
X144264047Y-88860000D01*
X144216428Y-89240952D02*
X144216428Y-90002857D01*
X144311666Y-90431428D02*
X144311666Y-90907619D01*
X144597380Y-90336190D02*
X143597380Y-90669523D01*
X144597380Y-91002857D01*
X143597380Y-91240952D02*
X143597380Y-91907619D01*
X144597380Y-91479047D01*
X164282380Y-57999761D02*
X163282380Y-57999761D01*
X164282380Y-58571190D01*
X163282380Y-58571190D01*
X163282380Y-59237857D02*
X163282380Y-59428333D01*
X163330000Y-59523571D01*
X163425238Y-59618809D01*
X163615714Y-59666428D01*
X163949047Y-59666428D01*
X164139523Y-59618809D01*
X164234761Y-59523571D01*
X164282380Y-59428333D01*
X164282380Y-59237857D01*
X164234761Y-59142619D01*
X164139523Y-59047380D01*
X163949047Y-58999761D01*
X163615714Y-58999761D01*
X163425238Y-59047380D01*
X163330000Y-59142619D01*
X163282380Y-59237857D01*
X163282380Y-59952142D02*
X163282380Y-60523571D01*
X164282380Y-60237857D02*
X163282380Y-60237857D01*
X163615714Y-62047380D02*
X164425238Y-62047380D01*
X164520476Y-61999761D01*
X164568095Y-61952142D01*
X164615714Y-61856904D01*
X164615714Y-61714047D01*
X164568095Y-61618809D01*
X164234761Y-62047380D02*
X164282380Y-61952142D01*
X164282380Y-61761666D01*
X164234761Y-61666428D01*
X164187142Y-61618809D01*
X164091904Y-61571190D01*
X163806190Y-61571190D01*
X163710952Y-61618809D01*
X163663333Y-61666428D01*
X163615714Y-61761666D01*
X163615714Y-61952142D01*
X163663333Y-62047380D01*
X164282380Y-62952142D02*
X163758571Y-62952142D01*
X163663333Y-62904523D01*
X163615714Y-62809285D01*
X163615714Y-62618809D01*
X163663333Y-62523571D01*
X164234761Y-62952142D02*
X164282380Y-62856904D01*
X164282380Y-62618809D01*
X164234761Y-62523571D01*
X164139523Y-62475952D01*
X164044285Y-62475952D01*
X163949047Y-62523571D01*
X163901428Y-62618809D01*
X163901428Y-62856904D01*
X163853809Y-62952142D01*
X163615714Y-63285476D02*
X163615714Y-63666428D01*
X163282380Y-63428333D02*
X164139523Y-63428333D01*
X164234761Y-63475952D01*
X164282380Y-63571190D01*
X164282380Y-63666428D01*
X164234761Y-64380714D02*
X164282380Y-64285476D01*
X164282380Y-64095000D01*
X164234761Y-63999761D01*
X164139523Y-63952142D01*
X163758571Y-63952142D01*
X163663333Y-63999761D01*
X163615714Y-64095000D01*
X163615714Y-64285476D01*
X163663333Y-64380714D01*
X163758571Y-64428333D01*
X163853809Y-64428333D01*
X163949047Y-63952142D01*
X164234761Y-64809285D02*
X164282380Y-64904523D01*
X164282380Y-65095000D01*
X164234761Y-65190238D01*
X164139523Y-65237857D01*
X164091904Y-65237857D01*
X163996666Y-65190238D01*
X163949047Y-65095000D01*
X163949047Y-64952142D01*
X163901428Y-64856904D01*
X163806190Y-64809285D01*
X163758571Y-64809285D01*
X163663333Y-64856904D01*
X163615714Y-64952142D01*
X163615714Y-65095000D01*
X163663333Y-65190238D01*
X162416428Y-111042380D02*
X161797380Y-111042380D01*
X162130714Y-111423333D01*
X161987857Y-111423333D01*
X161892619Y-111470952D01*
X161845000Y-111518571D01*
X161797380Y-111613809D01*
X161797380Y-111851904D01*
X161845000Y-111947142D01*
X161892619Y-111994761D01*
X161987857Y-112042380D01*
X162273571Y-112042380D01*
X162368809Y-111994761D01*
X162416428Y-111947142D01*
X161416428Y-111137619D02*
X161368809Y-111090000D01*
X161273571Y-111042380D01*
X161035476Y-111042380D01*
X160940238Y-111090000D01*
X160892619Y-111137619D01*
X160845000Y-111232857D01*
X160845000Y-111328095D01*
X160892619Y-111470952D01*
X161464047Y-112042380D01*
X160845000Y-112042380D01*
X159654523Y-112042380D02*
X159654523Y-111042380D01*
X159083095Y-112042380D02*
X159511666Y-111470952D01*
X159083095Y-111042380D02*
X159654523Y-111613809D01*
X158321190Y-111518571D02*
X158178333Y-111566190D01*
X158130714Y-111613809D01*
X158083095Y-111709047D01*
X158083095Y-111851904D01*
X158130714Y-111947142D01*
X158178333Y-111994761D01*
X158273571Y-112042380D01*
X158654523Y-112042380D01*
X158654523Y-111042380D01*
X158321190Y-111042380D01*
X158225952Y-111090000D01*
X158178333Y-111137619D01*
X158130714Y-111232857D01*
X158130714Y-111328095D01*
X158178333Y-111423333D01*
X158225952Y-111470952D01*
X158321190Y-111518571D01*
X158654523Y-111518571D01*
X156892619Y-111518571D02*
X156559285Y-111518571D01*
X156416428Y-112042380D02*
X156892619Y-112042380D01*
X156892619Y-111042380D01*
X156416428Y-111042380D01*
X155987857Y-111518571D02*
X155654523Y-111518571D01*
X155511666Y-112042380D02*
X155987857Y-112042380D01*
X155987857Y-111042380D01*
X155511666Y-111042380D01*
X155083095Y-112042380D02*
X155083095Y-111042380D01*
X154702142Y-111042380D01*
X154606904Y-111090000D01*
X154559285Y-111137619D01*
X154511666Y-111232857D01*
X154511666Y-111375714D01*
X154559285Y-111470952D01*
X154606904Y-111518571D01*
X154702142Y-111566190D01*
X155083095Y-111566190D01*
X153511666Y-112042380D02*
X153845000Y-111566190D01*
X154083095Y-112042380D02*
X154083095Y-111042380D01*
X153702142Y-111042380D01*
X153606904Y-111090000D01*
X153559285Y-111137619D01*
X153511666Y-111232857D01*
X153511666Y-111375714D01*
X153559285Y-111470952D01*
X153606904Y-111518571D01*
X153702142Y-111566190D01*
X154083095Y-111566190D01*
X152892619Y-111042380D02*
X152702142Y-111042380D01*
X152606904Y-111090000D01*
X152511666Y-111185238D01*
X152464047Y-111375714D01*
X152464047Y-111709047D01*
X152511666Y-111899523D01*
X152606904Y-111994761D01*
X152702142Y-112042380D01*
X152892619Y-112042380D01*
X152987857Y-111994761D01*
X153083095Y-111899523D01*
X153130714Y-111709047D01*
X153130714Y-111375714D01*
X153083095Y-111185238D01*
X152987857Y-111090000D01*
X152892619Y-111042380D01*
X152035476Y-112042380D02*
X152035476Y-111042380D01*
X151702142Y-111756666D01*
X151368809Y-111042380D01*
X151368809Y-112042380D01*
X163035476Y-113652380D02*
X163035476Y-112652380D01*
X162654523Y-112652380D01*
X162559285Y-112700000D01*
X162511666Y-112747619D01*
X162464047Y-112842857D01*
X162464047Y-112985714D01*
X162511666Y-113080952D01*
X162559285Y-113128571D01*
X162654523Y-113176190D01*
X163035476Y-113176190D01*
X162035476Y-113652380D02*
X162035476Y-112985714D01*
X162035476Y-113176190D02*
X161987857Y-113080952D01*
X161940238Y-113033333D01*
X161845000Y-112985714D01*
X161749761Y-112985714D01*
X161273571Y-113652380D02*
X161368809Y-113604761D01*
X161416428Y-113557142D01*
X161464047Y-113461904D01*
X161464047Y-113176190D01*
X161416428Y-113080952D01*
X161368809Y-113033333D01*
X161273571Y-112985714D01*
X161130714Y-112985714D01*
X161035476Y-113033333D01*
X160987857Y-113080952D01*
X160940238Y-113176190D01*
X160940238Y-113461904D01*
X160987857Y-113557142D01*
X161035476Y-113604761D01*
X161130714Y-113652380D01*
X161273571Y-113652380D01*
X160083095Y-112985714D02*
X160083095Y-113795238D01*
X160130714Y-113890476D01*
X160178333Y-113938095D01*
X160273571Y-113985714D01*
X160416428Y-113985714D01*
X160511666Y-113938095D01*
X160083095Y-113604761D02*
X160178333Y-113652380D01*
X160368809Y-113652380D01*
X160464047Y-113604761D01*
X160511666Y-113557142D01*
X160559285Y-113461904D01*
X160559285Y-113176190D01*
X160511666Y-113080952D01*
X160464047Y-113033333D01*
X160368809Y-112985714D01*
X160178333Y-112985714D01*
X160083095Y-113033333D01*
X159606904Y-113652380D02*
X159606904Y-112985714D01*
X159606904Y-113176190D02*
X159559285Y-113080952D01*
X159511666Y-113033333D01*
X159416428Y-112985714D01*
X159321190Y-112985714D01*
X158559285Y-113652380D02*
X158559285Y-113128571D01*
X158606904Y-113033333D01*
X158702142Y-112985714D01*
X158892619Y-112985714D01*
X158987857Y-113033333D01*
X158559285Y-113604761D02*
X158654523Y-113652380D01*
X158892619Y-113652380D01*
X158987857Y-113604761D01*
X159035476Y-113509523D01*
X159035476Y-113414285D01*
X158987857Y-113319047D01*
X158892619Y-113271428D01*
X158654523Y-113271428D01*
X158559285Y-113223809D01*
X158083095Y-113652380D02*
X158083095Y-112985714D01*
X158083095Y-113080952D02*
X158035476Y-113033333D01*
X157940238Y-112985714D01*
X157797380Y-112985714D01*
X157702142Y-113033333D01*
X157654523Y-113128571D01*
X157654523Y-113652380D01*
X157654523Y-113128571D02*
X157606904Y-113033333D01*
X157511666Y-112985714D01*
X157368809Y-112985714D01*
X157273571Y-113033333D01*
X157225952Y-113128571D01*
X157225952Y-113652380D01*
X155987857Y-113652380D02*
X155987857Y-112985714D01*
X155987857Y-113080952D02*
X155940238Y-113033333D01*
X155845000Y-112985714D01*
X155702142Y-112985714D01*
X155606904Y-113033333D01*
X155559285Y-113128571D01*
X155559285Y-113652380D01*
X155559285Y-113128571D02*
X155511666Y-113033333D01*
X155416428Y-112985714D01*
X155273571Y-112985714D01*
X155178333Y-113033333D01*
X155130714Y-113128571D01*
X155130714Y-113652380D01*
X154273571Y-113604761D02*
X154368809Y-113652380D01*
X154559285Y-113652380D01*
X154654523Y-113604761D01*
X154702142Y-113509523D01*
X154702142Y-113128571D01*
X154654523Y-113033333D01*
X154559285Y-112985714D01*
X154368809Y-112985714D01*
X154273571Y-113033333D01*
X154225952Y-113128571D01*
X154225952Y-113223809D01*
X154702142Y-113319047D01*
X153797380Y-113652380D02*
X153797380Y-112985714D01*
X153797380Y-113080952D02*
X153749761Y-113033333D01*
X153654523Y-112985714D01*
X153511666Y-112985714D01*
X153416428Y-113033333D01*
X153368809Y-113128571D01*
X153368809Y-113652380D01*
X153368809Y-113128571D02*
X153321190Y-113033333D01*
X153225952Y-112985714D01*
X153083095Y-112985714D01*
X152987857Y-113033333D01*
X152940238Y-113128571D01*
X152940238Y-113652380D01*
X152321190Y-113652380D02*
X152416428Y-113604761D01*
X152464047Y-113557142D01*
X152511666Y-113461904D01*
X152511666Y-113176190D01*
X152464047Y-113080952D01*
X152416428Y-113033333D01*
X152321190Y-112985714D01*
X152178333Y-112985714D01*
X152083095Y-113033333D01*
X152035476Y-113080952D01*
X151987857Y-113176190D01*
X151987857Y-113461904D01*
X152035476Y-113557142D01*
X152083095Y-113604761D01*
X152178333Y-113652380D01*
X152321190Y-113652380D01*
X151559285Y-113652380D02*
X151559285Y-112985714D01*
X151559285Y-113176190D02*
X151511666Y-113080952D01*
X151464047Y-113033333D01*
X151368809Y-112985714D01*
X151273571Y-112985714D01*
X151035476Y-112985714D02*
X150797380Y-113652380D01*
X150559285Y-112985714D02*
X150797380Y-113652380D01*
X150892619Y-113890476D01*
X150940238Y-113938095D01*
X151035476Y-113985714D01*
X106452380Y-82344523D02*
X106452380Y-81868333D01*
X105452380Y-81868333D01*
X106452380Y-82820714D02*
X106404761Y-82725476D01*
X106357142Y-82677857D01*
X106261904Y-82630238D01*
X105976190Y-82630238D01*
X105880952Y-82677857D01*
X105833333Y-82725476D01*
X105785714Y-82820714D01*
X105785714Y-82963571D01*
X105833333Y-83058809D01*
X105880952Y-83106428D01*
X105976190Y-83154047D01*
X106261904Y-83154047D01*
X106357142Y-83106428D01*
X106404761Y-83058809D01*
X106452380Y-82963571D01*
X106452380Y-82820714D01*
X105785714Y-83487380D02*
X106452380Y-83677857D01*
X105976190Y-83868333D01*
X106452380Y-84058809D01*
X105785714Y-84249285D01*
X106452380Y-85820714D02*
X105928571Y-85820714D01*
X105833333Y-85773095D01*
X105785714Y-85677857D01*
X105785714Y-85487380D01*
X105833333Y-85392142D01*
X106404761Y-85820714D02*
X106452380Y-85725476D01*
X106452380Y-85487380D01*
X106404761Y-85392142D01*
X106309523Y-85344523D01*
X106214285Y-85344523D01*
X106119047Y-85392142D01*
X106071428Y-85487380D01*
X106071428Y-85725476D01*
X106023809Y-85820714D01*
X106452380Y-86725476D02*
X105452380Y-86725476D01*
X106404761Y-86725476D02*
X106452380Y-86630238D01*
X106452380Y-86439761D01*
X106404761Y-86344523D01*
X106357142Y-86296904D01*
X106261904Y-86249285D01*
X105976190Y-86249285D01*
X105880952Y-86296904D01*
X105833333Y-86344523D01*
X105785714Y-86439761D01*
X105785714Y-86630238D01*
X105833333Y-86725476D01*
X106452380Y-87630238D02*
X105452380Y-87630238D01*
X106404761Y-87630238D02*
X106452380Y-87535000D01*
X106452380Y-87344523D01*
X106404761Y-87249285D01*
X106357142Y-87201666D01*
X106261904Y-87154047D01*
X105976190Y-87154047D01*
X105880952Y-87201666D01*
X105833333Y-87249285D01*
X105785714Y-87344523D01*
X105785714Y-87535000D01*
X105833333Y-87630238D01*
X106452380Y-88106428D02*
X105785714Y-88106428D01*
X105976190Y-88106428D02*
X105880952Y-88154047D01*
X105833333Y-88201666D01*
X105785714Y-88296904D01*
X105785714Y-88392142D01*
X106404761Y-89106428D02*
X106452380Y-89011190D01*
X106452380Y-88820714D01*
X106404761Y-88725476D01*
X106309523Y-88677857D01*
X105928571Y-88677857D01*
X105833333Y-88725476D01*
X105785714Y-88820714D01*
X105785714Y-89011190D01*
X105833333Y-89106428D01*
X105928571Y-89154047D01*
X106023809Y-89154047D01*
X106119047Y-88677857D01*
X106404761Y-89535000D02*
X106452380Y-89630238D01*
X106452380Y-89820714D01*
X106404761Y-89915952D01*
X106309523Y-89963571D01*
X106261904Y-89963571D01*
X106166666Y-89915952D01*
X106119047Y-89820714D01*
X106119047Y-89677857D01*
X106071428Y-89582619D01*
X105976190Y-89535000D01*
X105928571Y-89535000D01*
X105833333Y-89582619D01*
X105785714Y-89677857D01*
X105785714Y-89820714D01*
X105833333Y-89915952D01*
X106404761Y-90344523D02*
X106452380Y-90439761D01*
X106452380Y-90630238D01*
X106404761Y-90725476D01*
X106309523Y-90773095D01*
X106261904Y-90773095D01*
X106166666Y-90725476D01*
X106119047Y-90630238D01*
X106119047Y-90487380D01*
X106071428Y-90392142D01*
X105976190Y-90344523D01*
X105928571Y-90344523D01*
X105833333Y-90392142D01*
X105785714Y-90487380D01*
X105785714Y-90630238D01*
X105833333Y-90725476D01*
X106452380Y-91963571D02*
X105785714Y-91963571D01*
X105976190Y-91963571D02*
X105880952Y-92011190D01*
X105833333Y-92058809D01*
X105785714Y-92154047D01*
X105785714Y-92249285D01*
X106404761Y-92963571D02*
X106452380Y-92868333D01*
X106452380Y-92677857D01*
X106404761Y-92582619D01*
X106309523Y-92535000D01*
X105928571Y-92535000D01*
X105833333Y-92582619D01*
X105785714Y-92677857D01*
X105785714Y-92868333D01*
X105833333Y-92963571D01*
X105928571Y-93011190D01*
X106023809Y-93011190D01*
X106119047Y-92535000D01*
X105785714Y-93868333D02*
X106595238Y-93868333D01*
X106690476Y-93820714D01*
X106738095Y-93773095D01*
X106785714Y-93677857D01*
X106785714Y-93535000D01*
X106738095Y-93439761D01*
X106404761Y-93868333D02*
X106452380Y-93773095D01*
X106452380Y-93582619D01*
X106404761Y-93487380D01*
X106357142Y-93439761D01*
X106261904Y-93392142D01*
X105976190Y-93392142D01*
X105880952Y-93439761D01*
X105833333Y-93487380D01*
X105785714Y-93582619D01*
X105785714Y-93773095D01*
X105833333Y-93868333D01*
X106452380Y-94344523D02*
X105785714Y-94344523D01*
X105452380Y-94344523D02*
X105500000Y-94296904D01*
X105547619Y-94344523D01*
X105500000Y-94392142D01*
X105452380Y-94344523D01*
X105547619Y-94344523D01*
X106404761Y-94773095D02*
X106452380Y-94868333D01*
X106452380Y-95058809D01*
X106404761Y-95154047D01*
X106309523Y-95201666D01*
X106261904Y-95201666D01*
X106166666Y-95154047D01*
X106119047Y-95058809D01*
X106119047Y-94915952D01*
X106071428Y-94820714D01*
X105976190Y-94773095D01*
X105928571Y-94773095D01*
X105833333Y-94820714D01*
X105785714Y-94915952D01*
X105785714Y-95058809D01*
X105833333Y-95154047D01*
X105785714Y-95487380D02*
X105785714Y-95868333D01*
X105452380Y-95630238D02*
X106309523Y-95630238D01*
X106404761Y-95677857D01*
X106452380Y-95773095D01*
X106452380Y-95868333D01*
X106404761Y-96582619D02*
X106452380Y-96487380D01*
X106452380Y-96296904D01*
X106404761Y-96201666D01*
X106309523Y-96154047D01*
X105928571Y-96154047D01*
X105833333Y-96201666D01*
X105785714Y-96296904D01*
X105785714Y-96487380D01*
X105833333Y-96582619D01*
X105928571Y-96630238D01*
X106023809Y-96630238D01*
X106119047Y-96154047D01*
X106452380Y-97058809D02*
X105785714Y-97058809D01*
X105976190Y-97058809D02*
X105880952Y-97106428D01*
X105833333Y-97154047D01*
X105785714Y-97249285D01*
X105785714Y-97344523D01*
X89622380Y-119182380D02*
X89622380Y-119753809D01*
X90622380Y-119468095D02*
X89622380Y-119468095D01*
X90574761Y-120468095D02*
X90622380Y-120372857D01*
X90622380Y-120182380D01*
X90574761Y-120087142D01*
X90479523Y-120039523D01*
X90098571Y-120039523D01*
X90003333Y-120087142D01*
X89955714Y-120182380D01*
X89955714Y-120372857D01*
X90003333Y-120468095D01*
X90098571Y-120515714D01*
X90193809Y-120515714D01*
X90289047Y-120039523D01*
X90622380Y-120944285D02*
X89955714Y-120944285D01*
X90050952Y-120944285D02*
X90003333Y-120991904D01*
X89955714Y-121087142D01*
X89955714Y-121230000D01*
X90003333Y-121325238D01*
X90098571Y-121372857D01*
X90622380Y-121372857D01*
X90098571Y-121372857D02*
X90003333Y-121420476D01*
X89955714Y-121515714D01*
X89955714Y-121658571D01*
X90003333Y-121753809D01*
X90098571Y-121801428D01*
X90622380Y-121801428D01*
X89955714Y-122277619D02*
X90955714Y-122277619D01*
X90003333Y-122277619D02*
X89955714Y-122372857D01*
X89955714Y-122563333D01*
X90003333Y-122658571D01*
X90050952Y-122706190D01*
X90146190Y-122753809D01*
X90431904Y-122753809D01*
X90527142Y-122706190D01*
X90574761Y-122658571D01*
X90622380Y-122563333D01*
X90622380Y-122372857D01*
X90574761Y-122277619D01*
X90622380Y-123325238D02*
X90574761Y-123230000D01*
X90527142Y-123182380D01*
X90431904Y-123134761D01*
X90146190Y-123134761D01*
X90050952Y-123182380D01*
X90003333Y-123230000D01*
X89955714Y-123325238D01*
X89955714Y-123468095D01*
X90003333Y-123563333D01*
X90050952Y-123610952D01*
X90146190Y-123658571D01*
X90431904Y-123658571D01*
X90527142Y-123610952D01*
X90574761Y-123563333D01*
X90622380Y-123468095D01*
X90622380Y-123325238D01*
X90622380Y-124087142D02*
X89955714Y-124087142D01*
X90146190Y-124087142D02*
X90050952Y-124134761D01*
X90003333Y-124182380D01*
X89955714Y-124277619D01*
X89955714Y-124372857D01*
X90622380Y-125134761D02*
X90098571Y-125134761D01*
X90003333Y-125087142D01*
X89955714Y-124991904D01*
X89955714Y-124801428D01*
X90003333Y-124706190D01*
X90574761Y-125134761D02*
X90622380Y-125039523D01*
X90622380Y-124801428D01*
X90574761Y-124706190D01*
X90479523Y-124658571D01*
X90384285Y-124658571D01*
X90289047Y-124706190D01*
X90241428Y-124801428D01*
X90241428Y-125039523D01*
X90193809Y-125134761D01*
X90622380Y-125753809D02*
X90574761Y-125658571D01*
X90479523Y-125610952D01*
X89622380Y-125610952D01*
X90622380Y-126896666D02*
X89955714Y-126896666D01*
X90146190Y-126896666D02*
X90050952Y-126944285D01*
X90003333Y-126991904D01*
X89955714Y-127087142D01*
X89955714Y-127182380D01*
X90574761Y-127896666D02*
X90622380Y-127801428D01*
X90622380Y-127610952D01*
X90574761Y-127515714D01*
X90479523Y-127468095D01*
X90098571Y-127468095D01*
X90003333Y-127515714D01*
X89955714Y-127610952D01*
X89955714Y-127801428D01*
X90003333Y-127896666D01*
X90098571Y-127944285D01*
X90193809Y-127944285D01*
X90289047Y-127468095D01*
X89955714Y-128801428D02*
X90765238Y-128801428D01*
X90860476Y-128753809D01*
X90908095Y-128706190D01*
X90955714Y-128610952D01*
X90955714Y-128468095D01*
X90908095Y-128372857D01*
X90574761Y-128801428D02*
X90622380Y-128706190D01*
X90622380Y-128515714D01*
X90574761Y-128420476D01*
X90527142Y-128372857D01*
X90431904Y-128325238D01*
X90146190Y-128325238D01*
X90050952Y-128372857D01*
X90003333Y-128420476D01*
X89955714Y-128515714D01*
X89955714Y-128706190D01*
X90003333Y-128801428D01*
X90622380Y-129277619D02*
X89955714Y-129277619D01*
X89622380Y-129277619D02*
X89670000Y-129230000D01*
X89717619Y-129277619D01*
X89670000Y-129325238D01*
X89622380Y-129277619D01*
X89717619Y-129277619D01*
X90574761Y-129706190D02*
X90622380Y-129801428D01*
X90622380Y-129991904D01*
X90574761Y-130087142D01*
X90479523Y-130134761D01*
X90431904Y-130134761D01*
X90336666Y-130087142D01*
X90289047Y-129991904D01*
X90289047Y-129849047D01*
X90241428Y-129753809D01*
X90146190Y-129706190D01*
X90098571Y-129706190D01*
X90003333Y-129753809D01*
X89955714Y-129849047D01*
X89955714Y-129991904D01*
X90003333Y-130087142D01*
X89955714Y-130420476D02*
X89955714Y-130801428D01*
X89622380Y-130563333D02*
X90479523Y-130563333D01*
X90574761Y-130610952D01*
X90622380Y-130706190D01*
X90622380Y-130801428D01*
X90574761Y-131515714D02*
X90622380Y-131420476D01*
X90622380Y-131230000D01*
X90574761Y-131134761D01*
X90479523Y-131087142D01*
X90098571Y-131087142D01*
X90003333Y-131134761D01*
X89955714Y-131230000D01*
X89955714Y-131420476D01*
X90003333Y-131515714D01*
X90098571Y-131563333D01*
X90193809Y-131563333D01*
X90289047Y-131087142D01*
X90622380Y-131991904D02*
X89955714Y-131991904D01*
X90146190Y-131991904D02*
X90050952Y-132039523D01*
X90003333Y-132087142D01*
X89955714Y-132182380D01*
X89955714Y-132277619D01*
X160114761Y-138882380D02*
X160114761Y-137882380D01*
X160114761Y-138358571D02*
X159543333Y-138358571D01*
X159543333Y-138882380D02*
X159543333Y-137882380D01*
X159067142Y-138882380D02*
X159067142Y-138215714D01*
X159067142Y-137882380D02*
X159114761Y-137930000D01*
X159067142Y-137977619D01*
X159019523Y-137930000D01*
X159067142Y-137882380D01*
X159067142Y-137977619D01*
X158162380Y-138215714D02*
X158162380Y-139025238D01*
X158210000Y-139120476D01*
X158257619Y-139168095D01*
X158352857Y-139215714D01*
X158495714Y-139215714D01*
X158590952Y-139168095D01*
X158162380Y-138834761D02*
X158257619Y-138882380D01*
X158448095Y-138882380D01*
X158543333Y-138834761D01*
X158590952Y-138787142D01*
X158638571Y-138691904D01*
X158638571Y-138406190D01*
X158590952Y-138310952D01*
X158543333Y-138263333D01*
X158448095Y-138215714D01*
X158257619Y-138215714D01*
X158162380Y-138263333D01*
X157686190Y-138882380D02*
X157686190Y-137882380D01*
X157257619Y-138882380D02*
X157257619Y-138358571D01*
X157305238Y-138263333D01*
X157400476Y-138215714D01*
X157543333Y-138215714D01*
X157638571Y-138263333D01*
X157686190Y-138310952D01*
X155590952Y-138882380D02*
X155590952Y-138358571D01*
X155638571Y-138263333D01*
X155733809Y-138215714D01*
X155924285Y-138215714D01*
X156019523Y-138263333D01*
X155590952Y-138834761D02*
X155686190Y-138882380D01*
X155924285Y-138882380D01*
X156019523Y-138834761D01*
X156067142Y-138739523D01*
X156067142Y-138644285D01*
X156019523Y-138549047D01*
X155924285Y-138501428D01*
X155686190Y-138501428D01*
X155590952Y-138453809D01*
X154686190Y-138882380D02*
X154686190Y-137882380D01*
X154686190Y-138834761D02*
X154781428Y-138882380D01*
X154971904Y-138882380D01*
X155067142Y-138834761D01*
X155114761Y-138787142D01*
X155162380Y-138691904D01*
X155162380Y-138406190D01*
X155114761Y-138310952D01*
X155067142Y-138263333D01*
X154971904Y-138215714D01*
X154781428Y-138215714D01*
X154686190Y-138263333D01*
X153781428Y-138882380D02*
X153781428Y-137882380D01*
X153781428Y-138834761D02*
X153876666Y-138882380D01*
X154067142Y-138882380D01*
X154162380Y-138834761D01*
X154210000Y-138787142D01*
X154257619Y-138691904D01*
X154257619Y-138406190D01*
X154210000Y-138310952D01*
X154162380Y-138263333D01*
X154067142Y-138215714D01*
X153876666Y-138215714D01*
X153781428Y-138263333D01*
X152924285Y-138834761D02*
X153019523Y-138882380D01*
X153210000Y-138882380D01*
X153305238Y-138834761D01*
X153352857Y-138739523D01*
X153352857Y-138358571D01*
X153305238Y-138263333D01*
X153210000Y-138215714D01*
X153019523Y-138215714D01*
X152924285Y-138263333D01*
X152876666Y-138358571D01*
X152876666Y-138453809D01*
X153352857Y-138549047D01*
X152448095Y-138882380D02*
X152448095Y-138215714D01*
X152448095Y-138406190D02*
X152400476Y-138310952D01*
X152352857Y-138263333D01*
X152257619Y-138215714D01*
X152162380Y-138215714D01*
X169902142Y-80526666D02*
X169949761Y-80479047D01*
X169997380Y-80336190D01*
X169997380Y-80240952D01*
X169949761Y-80098095D01*
X169854523Y-80002857D01*
X169759285Y-79955238D01*
X169568809Y-79907619D01*
X169425952Y-79907619D01*
X169235476Y-79955238D01*
X169140238Y-80002857D01*
X169045000Y-80098095D01*
X168997380Y-80240952D01*
X168997380Y-80336190D01*
X169045000Y-80479047D01*
X169092619Y-80526666D01*
X169997380Y-81098095D02*
X169949761Y-81002857D01*
X169902142Y-80955238D01*
X169806904Y-80907619D01*
X169521190Y-80907619D01*
X169425952Y-80955238D01*
X169378333Y-81002857D01*
X169330714Y-81098095D01*
X169330714Y-81240952D01*
X169378333Y-81336190D01*
X169425952Y-81383809D01*
X169521190Y-81431428D01*
X169806904Y-81431428D01*
X169902142Y-81383809D01*
X169949761Y-81336190D01*
X169997380Y-81240952D01*
X169997380Y-81098095D01*
X169330714Y-82288571D02*
X169997380Y-82288571D01*
X169330714Y-81860000D02*
X169854523Y-81860000D01*
X169949761Y-81907619D01*
X169997380Y-82002857D01*
X169997380Y-82145714D01*
X169949761Y-82240952D01*
X169902142Y-82288571D01*
X169330714Y-82764761D02*
X169997380Y-82764761D01*
X169425952Y-82764761D02*
X169378333Y-82812380D01*
X169330714Y-82907619D01*
X169330714Y-83050476D01*
X169378333Y-83145714D01*
X169473571Y-83193333D01*
X169997380Y-83193333D01*
X169330714Y-83526666D02*
X169330714Y-83907619D01*
X168997380Y-83669523D02*
X169854523Y-83669523D01*
X169949761Y-83717142D01*
X169997380Y-83812380D01*
X169997380Y-83907619D01*
X169949761Y-84621904D02*
X169997380Y-84526666D01*
X169997380Y-84336190D01*
X169949761Y-84240952D01*
X169854523Y-84193333D01*
X169473571Y-84193333D01*
X169378333Y-84240952D01*
X169330714Y-84336190D01*
X169330714Y-84526666D01*
X169378333Y-84621904D01*
X169473571Y-84669523D01*
X169568809Y-84669523D01*
X169664047Y-84193333D01*
X169997380Y-85098095D02*
X169330714Y-85098095D01*
X169521190Y-85098095D02*
X169425952Y-85145714D01*
X169378333Y-85193333D01*
X169330714Y-85288571D01*
X169330714Y-85383809D01*
X169711666Y-86431428D02*
X169711666Y-86907619D01*
X169997380Y-86336190D02*
X168997380Y-86669523D01*
X169997380Y-87002857D01*
X169997380Y-87860000D02*
X169997380Y-87288571D01*
X169997380Y-87574285D02*
X168997380Y-87574285D01*
X169140238Y-87479047D01*
X169235476Y-87383809D01*
X169283095Y-87288571D01*
X169092619Y-88240952D02*
X169045000Y-88288571D01*
X168997380Y-88383809D01*
X168997380Y-88621904D01*
X169045000Y-88717142D01*
X169092619Y-88764761D01*
X169187857Y-88812380D01*
X169283095Y-88812380D01*
X169425952Y-88764761D01*
X169997380Y-88193333D01*
X169997380Y-88812380D01*
X169616428Y-89240952D02*
X169616428Y-90002857D01*
X169711666Y-90431428D02*
X169711666Y-90907619D01*
X169997380Y-90336190D02*
X168997380Y-90669523D01*
X169997380Y-91002857D01*
X169997380Y-91860000D02*
X169997380Y-91288571D01*
X169997380Y-91574285D02*
X168997380Y-91574285D01*
X169140238Y-91479047D01*
X169235476Y-91383809D01*
X169283095Y-91288571D01*
X168997380Y-92764761D02*
X168997380Y-92288571D01*
X169473571Y-92240952D01*
X169425952Y-92288571D01*
X169378333Y-92383809D01*
X169378333Y-92621904D01*
X169425952Y-92717142D01*
X169473571Y-92764761D01*
X169568809Y-92812380D01*
X169806904Y-92812380D01*
X169902142Y-92764761D01*
X169949761Y-92717142D01*
X169997380Y-92621904D01*
X169997380Y-92383809D01*
X169949761Y-92288571D01*
X169902142Y-92240952D01*
X119197380Y-81582619D02*
X118197380Y-81582619D01*
X118673571Y-81582619D02*
X118673571Y-82154047D01*
X119197380Y-82154047D02*
X118197380Y-82154047D01*
X119197380Y-82630238D02*
X118530714Y-82630238D01*
X118197380Y-82630238D02*
X118245000Y-82582619D01*
X118292619Y-82630238D01*
X118245000Y-82677857D01*
X118197380Y-82630238D01*
X118292619Y-82630238D01*
X118530714Y-83535000D02*
X119340238Y-83535000D01*
X119435476Y-83487380D01*
X119483095Y-83439761D01*
X119530714Y-83344523D01*
X119530714Y-83201666D01*
X119483095Y-83106428D01*
X119149761Y-83535000D02*
X119197380Y-83439761D01*
X119197380Y-83249285D01*
X119149761Y-83154047D01*
X119102142Y-83106428D01*
X119006904Y-83058809D01*
X118721190Y-83058809D01*
X118625952Y-83106428D01*
X118578333Y-83154047D01*
X118530714Y-83249285D01*
X118530714Y-83439761D01*
X118578333Y-83535000D01*
X119197380Y-84011190D02*
X118197380Y-84011190D01*
X119197380Y-84439761D02*
X118673571Y-84439761D01*
X118578333Y-84392142D01*
X118530714Y-84296904D01*
X118530714Y-84154047D01*
X118578333Y-84058809D01*
X118625952Y-84011190D01*
X119197380Y-86106428D02*
X118673571Y-86106428D01*
X118578333Y-86058809D01*
X118530714Y-85963571D01*
X118530714Y-85773095D01*
X118578333Y-85677857D01*
X119149761Y-86106428D02*
X119197380Y-86011190D01*
X119197380Y-85773095D01*
X119149761Y-85677857D01*
X119054523Y-85630238D01*
X118959285Y-85630238D01*
X118864047Y-85677857D01*
X118816428Y-85773095D01*
X118816428Y-86011190D01*
X118768809Y-86106428D01*
X119197380Y-87011190D02*
X118197380Y-87011190D01*
X119149761Y-87011190D02*
X119197380Y-86915952D01*
X119197380Y-86725476D01*
X119149761Y-86630238D01*
X119102142Y-86582619D01*
X119006904Y-86535000D01*
X118721190Y-86535000D01*
X118625952Y-86582619D01*
X118578333Y-86630238D01*
X118530714Y-86725476D01*
X118530714Y-86915952D01*
X118578333Y-87011190D01*
X119197380Y-87915952D02*
X118197380Y-87915952D01*
X119149761Y-87915952D02*
X119197380Y-87820714D01*
X119197380Y-87630238D01*
X119149761Y-87535000D01*
X119102142Y-87487380D01*
X119006904Y-87439761D01*
X118721190Y-87439761D01*
X118625952Y-87487380D01*
X118578333Y-87535000D01*
X118530714Y-87630238D01*
X118530714Y-87820714D01*
X118578333Y-87915952D01*
X119197380Y-88392142D02*
X118530714Y-88392142D01*
X118721190Y-88392142D02*
X118625952Y-88439761D01*
X118578333Y-88487380D01*
X118530714Y-88582619D01*
X118530714Y-88677857D01*
X119149761Y-89392142D02*
X119197380Y-89296904D01*
X119197380Y-89106428D01*
X119149761Y-89011190D01*
X119054523Y-88963571D01*
X118673571Y-88963571D01*
X118578333Y-89011190D01*
X118530714Y-89106428D01*
X118530714Y-89296904D01*
X118578333Y-89392142D01*
X118673571Y-89439761D01*
X118768809Y-89439761D01*
X118864047Y-88963571D01*
X119149761Y-89820714D02*
X119197380Y-89915952D01*
X119197380Y-90106428D01*
X119149761Y-90201666D01*
X119054523Y-90249285D01*
X119006904Y-90249285D01*
X118911666Y-90201666D01*
X118864047Y-90106428D01*
X118864047Y-89963571D01*
X118816428Y-89868333D01*
X118721190Y-89820714D01*
X118673571Y-89820714D01*
X118578333Y-89868333D01*
X118530714Y-89963571D01*
X118530714Y-90106428D01*
X118578333Y-90201666D01*
X119149761Y-90630238D02*
X119197380Y-90725476D01*
X119197380Y-90915952D01*
X119149761Y-91011190D01*
X119054523Y-91058809D01*
X119006904Y-91058809D01*
X118911666Y-91011190D01*
X118864047Y-90915952D01*
X118864047Y-90773095D01*
X118816428Y-90677857D01*
X118721190Y-90630238D01*
X118673571Y-90630238D01*
X118578333Y-90677857D01*
X118530714Y-90773095D01*
X118530714Y-90915952D01*
X118578333Y-91011190D01*
X119197380Y-92249285D02*
X118530714Y-92249285D01*
X118721190Y-92249285D02*
X118625952Y-92296904D01*
X118578333Y-92344523D01*
X118530714Y-92439761D01*
X118530714Y-92535000D01*
X119149761Y-93249285D02*
X119197380Y-93154047D01*
X119197380Y-92963571D01*
X119149761Y-92868333D01*
X119054523Y-92820714D01*
X118673571Y-92820714D01*
X118578333Y-92868333D01*
X118530714Y-92963571D01*
X118530714Y-93154047D01*
X118578333Y-93249285D01*
X118673571Y-93296904D01*
X118768809Y-93296904D01*
X118864047Y-92820714D01*
X118530714Y-94154047D02*
X119340238Y-94154047D01*
X119435476Y-94106428D01*
X119483095Y-94058809D01*
X119530714Y-93963571D01*
X119530714Y-93820714D01*
X119483095Y-93725476D01*
X119149761Y-94154047D02*
X119197380Y-94058809D01*
X119197380Y-93868333D01*
X119149761Y-93773095D01*
X119102142Y-93725476D01*
X119006904Y-93677857D01*
X118721190Y-93677857D01*
X118625952Y-93725476D01*
X118578333Y-93773095D01*
X118530714Y-93868333D01*
X118530714Y-94058809D01*
X118578333Y-94154047D01*
X119197380Y-94630238D02*
X118530714Y-94630238D01*
X118197380Y-94630238D02*
X118245000Y-94582619D01*
X118292619Y-94630238D01*
X118245000Y-94677857D01*
X118197380Y-94630238D01*
X118292619Y-94630238D01*
X119149761Y-95058809D02*
X119197380Y-95154047D01*
X119197380Y-95344523D01*
X119149761Y-95439761D01*
X119054523Y-95487380D01*
X119006904Y-95487380D01*
X118911666Y-95439761D01*
X118864047Y-95344523D01*
X118864047Y-95201666D01*
X118816428Y-95106428D01*
X118721190Y-95058809D01*
X118673571Y-95058809D01*
X118578333Y-95106428D01*
X118530714Y-95201666D01*
X118530714Y-95344523D01*
X118578333Y-95439761D01*
X118530714Y-95773095D02*
X118530714Y-96154047D01*
X118197380Y-95915952D02*
X119054523Y-95915952D01*
X119149761Y-95963571D01*
X119197380Y-96058809D01*
X119197380Y-96154047D01*
X119149761Y-96868333D02*
X119197380Y-96773095D01*
X119197380Y-96582619D01*
X119149761Y-96487380D01*
X119054523Y-96439761D01*
X118673571Y-96439761D01*
X118578333Y-96487380D01*
X118530714Y-96582619D01*
X118530714Y-96773095D01*
X118578333Y-96868333D01*
X118673571Y-96915952D01*
X118768809Y-96915952D01*
X118864047Y-96439761D01*
X119197380Y-97344523D02*
X118530714Y-97344523D01*
X118721190Y-97344523D02*
X118625952Y-97392142D01*
X118578333Y-97439761D01*
X118530714Y-97535000D01*
X118530714Y-97630238D01*
X151582380Y-57880714D02*
X150582380Y-57880714D01*
X150582380Y-58118809D01*
X150630000Y-58261666D01*
X150725238Y-58356904D01*
X150820476Y-58404523D01*
X151010952Y-58452142D01*
X151153809Y-58452142D01*
X151344285Y-58404523D01*
X151439523Y-58356904D01*
X151534761Y-58261666D01*
X151582380Y-58118809D01*
X151582380Y-57880714D01*
X150915714Y-59499761D02*
X150915714Y-59880714D01*
X151582380Y-59642619D02*
X150725238Y-59642619D01*
X150630000Y-59690238D01*
X150582380Y-59785476D01*
X150582380Y-59880714D01*
X151582380Y-60356904D02*
X151534761Y-60261666D01*
X151439523Y-60214047D01*
X150582380Y-60214047D01*
X151582380Y-60737857D02*
X150915714Y-60737857D01*
X150582380Y-60737857D02*
X150630000Y-60690238D01*
X150677619Y-60737857D01*
X150630000Y-60785476D01*
X150582380Y-60737857D01*
X150677619Y-60737857D01*
X150915714Y-61214047D02*
X151915714Y-61214047D01*
X150963333Y-61214047D02*
X150915714Y-61309285D01*
X150915714Y-61499761D01*
X150963333Y-61595000D01*
X151010952Y-61642619D01*
X151106190Y-61690238D01*
X151391904Y-61690238D01*
X151487142Y-61642619D01*
X151534761Y-61595000D01*
X151582380Y-61499761D01*
X151582380Y-61309285D01*
X151534761Y-61214047D01*
X150915714Y-62737857D02*
X150915714Y-63118809D01*
X151582380Y-62880714D02*
X150725238Y-62880714D01*
X150630000Y-62928333D01*
X150582380Y-63023571D01*
X150582380Y-63118809D01*
X151582380Y-63595000D02*
X151534761Y-63499761D01*
X151439523Y-63452142D01*
X150582380Y-63452142D01*
X151582380Y-64118809D02*
X151534761Y-64023571D01*
X151487142Y-63975952D01*
X151391904Y-63928333D01*
X151106190Y-63928333D01*
X151010952Y-63975952D01*
X150963333Y-64023571D01*
X150915714Y-64118809D01*
X150915714Y-64261666D01*
X150963333Y-64356904D01*
X151010952Y-64404523D01*
X151106190Y-64452142D01*
X151391904Y-64452142D01*
X151487142Y-64404523D01*
X151534761Y-64356904D01*
X151582380Y-64261666D01*
X151582380Y-64118809D01*
X150915714Y-64880714D02*
X151915714Y-64880714D01*
X150963333Y-64880714D02*
X150915714Y-64975952D01*
X150915714Y-65166428D01*
X150963333Y-65261666D01*
X151010952Y-65309285D01*
X151106190Y-65356904D01*
X151391904Y-65356904D01*
X151487142Y-65309285D01*
X151534761Y-65261666D01*
X151582380Y-65166428D01*
X151582380Y-64975952D01*
X151534761Y-64880714D01*
X141611428Y-129071666D02*
X141135238Y-129071666D01*
X141706666Y-129357380D02*
X141373333Y-128357380D01*
X141040000Y-129357380D01*
X140706666Y-129357380D02*
X140706666Y-128690714D01*
X140706666Y-128881190D02*
X140659047Y-128785952D01*
X140611428Y-128738333D01*
X140516190Y-128690714D01*
X140420952Y-128690714D01*
X140087619Y-129357380D02*
X140087619Y-128690714D01*
X140087619Y-128357380D02*
X140135238Y-128405000D01*
X140087619Y-128452619D01*
X140040000Y-128405000D01*
X140087619Y-128357380D01*
X140087619Y-128452619D01*
X139754285Y-128690714D02*
X139373333Y-128690714D01*
X139611428Y-128357380D02*
X139611428Y-129214523D01*
X139563809Y-129309761D01*
X139468571Y-129357380D01*
X139373333Y-129357380D01*
X139040000Y-129357380D02*
X139040000Y-128357380D01*
X138611428Y-129357380D02*
X138611428Y-128833571D01*
X138659047Y-128738333D01*
X138754285Y-128690714D01*
X138897142Y-128690714D01*
X138992380Y-128738333D01*
X139040000Y-128785952D01*
X138135238Y-129357380D02*
X138135238Y-128690714D01*
X138135238Y-128785952D02*
X138087619Y-128738333D01*
X137992380Y-128690714D01*
X137849523Y-128690714D01*
X137754285Y-128738333D01*
X137706666Y-128833571D01*
X137706666Y-129357380D01*
X137706666Y-128833571D02*
X137659047Y-128738333D01*
X137563809Y-128690714D01*
X137420952Y-128690714D01*
X137325714Y-128738333D01*
X137278095Y-128833571D01*
X137278095Y-129357380D01*
X136420952Y-129309761D02*
X136516190Y-129357380D01*
X136706666Y-129357380D01*
X136801904Y-129309761D01*
X136849523Y-129214523D01*
X136849523Y-128833571D01*
X136801904Y-128738333D01*
X136706666Y-128690714D01*
X136516190Y-128690714D01*
X136420952Y-128738333D01*
X136373333Y-128833571D01*
X136373333Y-128928809D01*
X136849523Y-129024047D01*
X136087619Y-128690714D02*
X135706666Y-128690714D01*
X135944761Y-128357380D02*
X135944761Y-129214523D01*
X135897142Y-129309761D01*
X135801904Y-129357380D01*
X135706666Y-129357380D01*
X135373333Y-129357380D02*
X135373333Y-128690714D01*
X135373333Y-128357380D02*
X135420952Y-128405000D01*
X135373333Y-128452619D01*
X135325714Y-128405000D01*
X135373333Y-128357380D01*
X135373333Y-128452619D01*
X134468571Y-129309761D02*
X134563809Y-129357380D01*
X134754285Y-129357380D01*
X134849523Y-129309761D01*
X134897142Y-129262142D01*
X134944761Y-129166904D01*
X134944761Y-128881190D01*
X134897142Y-128785952D01*
X134849523Y-128738333D01*
X134754285Y-128690714D01*
X134563809Y-128690714D01*
X134468571Y-128738333D01*
X132849523Y-128690714D02*
X132849523Y-129357380D01*
X133278095Y-128690714D02*
X133278095Y-129214523D01*
X133230476Y-129309761D01*
X133135238Y-129357380D01*
X132992380Y-129357380D01*
X132897142Y-129309761D01*
X132849523Y-129262142D01*
X132373333Y-128690714D02*
X132373333Y-129357380D01*
X132373333Y-128785952D02*
X132325714Y-128738333D01*
X132230476Y-128690714D01*
X132087619Y-128690714D01*
X131992380Y-128738333D01*
X131944761Y-128833571D01*
X131944761Y-129357380D01*
X131468571Y-129357380D02*
X131468571Y-128690714D01*
X131468571Y-128357380D02*
X131516190Y-128405000D01*
X131468571Y-128452619D01*
X131420952Y-128405000D01*
X131468571Y-128357380D01*
X131468571Y-128452619D01*
X131135238Y-128690714D02*
X130754285Y-128690714D01*
X130992380Y-128357380D02*
X130992380Y-129214523D01*
X130944761Y-129309761D01*
X130849523Y-129357380D01*
X130754285Y-129357380D01*
X129230476Y-129357380D02*
X129230476Y-128833571D01*
X129278095Y-128738333D01*
X129373333Y-128690714D01*
X129563809Y-128690714D01*
X129659047Y-128738333D01*
X129230476Y-129309761D02*
X129325714Y-129357380D01*
X129563809Y-129357380D01*
X129659047Y-129309761D01*
X129706666Y-129214523D01*
X129706666Y-129119285D01*
X129659047Y-129024047D01*
X129563809Y-128976428D01*
X129325714Y-128976428D01*
X129230476Y-128928809D01*
X128754285Y-128690714D02*
X128754285Y-129357380D01*
X128754285Y-128785952D02*
X128706666Y-128738333D01*
X128611428Y-128690714D01*
X128468571Y-128690714D01*
X128373333Y-128738333D01*
X128325714Y-128833571D01*
X128325714Y-129357380D01*
X127420952Y-129357380D02*
X127420952Y-128357380D01*
X127420952Y-129309761D02*
X127516190Y-129357380D01*
X127706666Y-129357380D01*
X127801904Y-129309761D01*
X127849523Y-129262142D01*
X127897142Y-129166904D01*
X127897142Y-128881190D01*
X127849523Y-128785952D01*
X127801904Y-128738333D01*
X127706666Y-128690714D01*
X127516190Y-128690714D01*
X127420952Y-128738333D01*
X126182857Y-129357380D02*
X126182857Y-128690714D01*
X126182857Y-128881190D02*
X126135238Y-128785952D01*
X126087619Y-128738333D01*
X125992380Y-128690714D01*
X125897142Y-128690714D01*
X125182857Y-129309761D02*
X125278095Y-129357380D01*
X125468571Y-129357380D01*
X125563809Y-129309761D01*
X125611428Y-129214523D01*
X125611428Y-128833571D01*
X125563809Y-128738333D01*
X125468571Y-128690714D01*
X125278095Y-128690714D01*
X125182857Y-128738333D01*
X125135238Y-128833571D01*
X125135238Y-128928809D01*
X125611428Y-129024047D01*
X124754285Y-129309761D02*
X124659047Y-129357380D01*
X124468571Y-129357380D01*
X124373333Y-129309761D01*
X124325714Y-129214523D01*
X124325714Y-129166904D01*
X124373333Y-129071666D01*
X124468571Y-129024047D01*
X124611428Y-129024047D01*
X124706666Y-128976428D01*
X124754285Y-128881190D01*
X124754285Y-128833571D01*
X124706666Y-128738333D01*
X124611428Y-128690714D01*
X124468571Y-128690714D01*
X124373333Y-128738333D01*
X123516190Y-129309761D02*
X123611428Y-129357380D01*
X123801904Y-129357380D01*
X123897142Y-129309761D01*
X123944761Y-129214523D01*
X123944761Y-128833571D01*
X123897142Y-128738333D01*
X123801904Y-128690714D01*
X123611428Y-128690714D01*
X123516190Y-128738333D01*
X123468571Y-128833571D01*
X123468571Y-128928809D01*
X123944761Y-129024047D01*
X123182857Y-128690714D02*
X122801904Y-128690714D01*
X123040000Y-128357380D02*
X123040000Y-129214523D01*
X122992380Y-129309761D01*
X122897142Y-129357380D01*
X122801904Y-129357380D01*
X121754285Y-129309761D02*
X121659047Y-129357380D01*
X121468571Y-129357380D01*
X121373333Y-129309761D01*
X121325714Y-129214523D01*
X121325714Y-129166904D01*
X121373333Y-129071666D01*
X121468571Y-129024047D01*
X121611428Y-129024047D01*
X121706666Y-128976428D01*
X121754285Y-128881190D01*
X121754285Y-128833571D01*
X121706666Y-128738333D01*
X121611428Y-128690714D01*
X121468571Y-128690714D01*
X121373333Y-128738333D01*
X120992380Y-128690714D02*
X120801904Y-129357380D01*
X120611428Y-128881190D01*
X120420952Y-129357380D01*
X120230476Y-128690714D01*
X119849523Y-129357380D02*
X119849523Y-128690714D01*
X119849523Y-128357380D02*
X119897142Y-128405000D01*
X119849523Y-128452619D01*
X119801904Y-128405000D01*
X119849523Y-128357380D01*
X119849523Y-128452619D01*
X119516190Y-128690714D02*
X119135238Y-128690714D01*
X119373333Y-128357380D02*
X119373333Y-129214523D01*
X119325714Y-129309761D01*
X119230476Y-129357380D01*
X119135238Y-129357380D01*
X118373333Y-129309761D02*
X118468571Y-129357380D01*
X118659047Y-129357380D01*
X118754285Y-129309761D01*
X118801904Y-129262142D01*
X118849523Y-129166904D01*
X118849523Y-128881190D01*
X118801904Y-128785952D01*
X118754285Y-128738333D01*
X118659047Y-128690714D01*
X118468571Y-128690714D01*
X118373333Y-128738333D01*
X117944761Y-129357380D02*
X117944761Y-128357380D01*
X117516190Y-129357380D02*
X117516190Y-128833571D01*
X117563809Y-128738333D01*
X117659047Y-128690714D01*
X117801904Y-128690714D01*
X117897142Y-128738333D01*
X117944761Y-128785952D01*
X106497380Y-53325000D02*
X105497380Y-53325000D01*
X105830714Y-53801190D02*
X106497380Y-53801190D01*
X105925952Y-53801190D02*
X105878333Y-53848809D01*
X105830714Y-53944047D01*
X105830714Y-54086904D01*
X105878333Y-54182142D01*
X105973571Y-54229761D01*
X106497380Y-54229761D01*
X106449761Y-54658333D02*
X106497380Y-54753571D01*
X106497380Y-54944047D01*
X106449761Y-55039285D01*
X106354523Y-55086904D01*
X106306904Y-55086904D01*
X106211666Y-55039285D01*
X106164047Y-54944047D01*
X106164047Y-54801190D01*
X106116428Y-54705952D01*
X106021190Y-54658333D01*
X105973571Y-54658333D01*
X105878333Y-54705952D01*
X105830714Y-54801190D01*
X105830714Y-54944047D01*
X105878333Y-55039285D01*
X105830714Y-55372619D02*
X105830714Y-55753571D01*
X105497380Y-55515476D02*
X106354523Y-55515476D01*
X106449761Y-55563095D01*
X106497380Y-55658333D01*
X106497380Y-55753571D01*
X106497380Y-56086904D02*
X105830714Y-56086904D01*
X106021190Y-56086904D02*
X105925952Y-56134523D01*
X105878333Y-56182142D01*
X105830714Y-56277380D01*
X105830714Y-56372619D01*
X105830714Y-57134523D02*
X106497380Y-57134523D01*
X105830714Y-56705952D02*
X106354523Y-56705952D01*
X106449761Y-56753571D01*
X106497380Y-56848809D01*
X106497380Y-56991666D01*
X106449761Y-57086904D01*
X106402142Y-57134523D01*
X106449761Y-58039285D02*
X106497380Y-57944047D01*
X106497380Y-57753571D01*
X106449761Y-57658333D01*
X106402142Y-57610714D01*
X106306904Y-57563095D01*
X106021190Y-57563095D01*
X105925952Y-57610714D01*
X105878333Y-57658333D01*
X105830714Y-57753571D01*
X105830714Y-57944047D01*
X105878333Y-58039285D01*
X105830714Y-58325000D02*
X105830714Y-58705952D01*
X105497380Y-58467857D02*
X106354523Y-58467857D01*
X106449761Y-58515476D01*
X106497380Y-58610714D01*
X106497380Y-58705952D01*
X106497380Y-59039285D02*
X105830714Y-59039285D01*
X105497380Y-59039285D02*
X105545000Y-58991666D01*
X105592619Y-59039285D01*
X105545000Y-59086904D01*
X105497380Y-59039285D01*
X105592619Y-59039285D01*
X106497380Y-59658333D02*
X106449761Y-59563095D01*
X106402142Y-59515476D01*
X106306904Y-59467857D01*
X106021190Y-59467857D01*
X105925952Y-59515476D01*
X105878333Y-59563095D01*
X105830714Y-59658333D01*
X105830714Y-59801190D01*
X105878333Y-59896428D01*
X105925952Y-59944047D01*
X106021190Y-59991666D01*
X106306904Y-59991666D01*
X106402142Y-59944047D01*
X106449761Y-59896428D01*
X106497380Y-59801190D01*
X106497380Y-59658333D01*
X105830714Y-60420238D02*
X106497380Y-60420238D01*
X105925952Y-60420238D02*
X105878333Y-60467857D01*
X105830714Y-60563095D01*
X105830714Y-60705952D01*
X105878333Y-60801190D01*
X105973571Y-60848809D01*
X106497380Y-60848809D01*
X106497380Y-62086904D02*
X105830714Y-62086904D01*
X106021190Y-62086904D02*
X105925952Y-62134523D01*
X105878333Y-62182142D01*
X105830714Y-62277380D01*
X105830714Y-62372619D01*
X106449761Y-63086904D02*
X106497380Y-62991666D01*
X106497380Y-62801190D01*
X106449761Y-62705952D01*
X106354523Y-62658333D01*
X105973571Y-62658333D01*
X105878333Y-62705952D01*
X105830714Y-62801190D01*
X105830714Y-62991666D01*
X105878333Y-63086904D01*
X105973571Y-63134523D01*
X106068809Y-63134523D01*
X106164047Y-62658333D01*
X105830714Y-63991666D02*
X106640238Y-63991666D01*
X106735476Y-63944047D01*
X106783095Y-63896428D01*
X106830714Y-63801190D01*
X106830714Y-63658333D01*
X106783095Y-63563095D01*
X106449761Y-63991666D02*
X106497380Y-63896428D01*
X106497380Y-63705952D01*
X106449761Y-63610714D01*
X106402142Y-63563095D01*
X106306904Y-63515476D01*
X106021190Y-63515476D01*
X105925952Y-63563095D01*
X105878333Y-63610714D01*
X105830714Y-63705952D01*
X105830714Y-63896428D01*
X105878333Y-63991666D01*
X106497380Y-64467857D02*
X105830714Y-64467857D01*
X105497380Y-64467857D02*
X105545000Y-64420238D01*
X105592619Y-64467857D01*
X105545000Y-64515476D01*
X105497380Y-64467857D01*
X105592619Y-64467857D01*
X106449761Y-64896428D02*
X106497380Y-64991666D01*
X106497380Y-65182142D01*
X106449761Y-65277380D01*
X106354523Y-65325000D01*
X106306904Y-65325000D01*
X106211666Y-65277380D01*
X106164047Y-65182142D01*
X106164047Y-65039285D01*
X106116428Y-64944047D01*
X106021190Y-64896428D01*
X105973571Y-64896428D01*
X105878333Y-64944047D01*
X105830714Y-65039285D01*
X105830714Y-65182142D01*
X105878333Y-65277380D01*
X105830714Y-65610714D02*
X105830714Y-65991666D01*
X105497380Y-65753571D02*
X106354523Y-65753571D01*
X106449761Y-65801190D01*
X106497380Y-65896428D01*
X106497380Y-65991666D01*
X106449761Y-66705952D02*
X106497380Y-66610714D01*
X106497380Y-66420238D01*
X106449761Y-66325000D01*
X106354523Y-66277380D01*
X105973571Y-66277380D01*
X105878333Y-66325000D01*
X105830714Y-66420238D01*
X105830714Y-66610714D01*
X105878333Y-66705952D01*
X105973571Y-66753571D01*
X106068809Y-66753571D01*
X106164047Y-66277380D01*
X106497380Y-67182142D02*
X105830714Y-67182142D01*
X106021190Y-67182142D02*
X105925952Y-67229761D01*
X105878333Y-67277380D01*
X105830714Y-67372619D01*
X105830714Y-67467857D01*
X131802142Y-81479047D02*
X131849761Y-81431428D01*
X131897380Y-81288571D01*
X131897380Y-81193333D01*
X131849761Y-81050476D01*
X131754523Y-80955238D01*
X131659285Y-80907619D01*
X131468809Y-80860000D01*
X131325952Y-80860000D01*
X131135476Y-80907619D01*
X131040238Y-80955238D01*
X130945000Y-81050476D01*
X130897380Y-81193333D01*
X130897380Y-81288571D01*
X130945000Y-81431428D01*
X130992619Y-81479047D01*
X131897380Y-82050476D02*
X131849761Y-81955238D01*
X131802142Y-81907619D01*
X131706904Y-81860000D01*
X131421190Y-81860000D01*
X131325952Y-81907619D01*
X131278333Y-81955238D01*
X131230714Y-82050476D01*
X131230714Y-82193333D01*
X131278333Y-82288571D01*
X131325952Y-82336190D01*
X131421190Y-82383809D01*
X131706904Y-82383809D01*
X131802142Y-82336190D01*
X131849761Y-82288571D01*
X131897380Y-82193333D01*
X131897380Y-82050476D01*
X131230714Y-83240952D02*
X131897380Y-83240952D01*
X131230714Y-82812380D02*
X131754523Y-82812380D01*
X131849761Y-82860000D01*
X131897380Y-82955238D01*
X131897380Y-83098095D01*
X131849761Y-83193333D01*
X131802142Y-83240952D01*
X131230714Y-83717142D02*
X131897380Y-83717142D01*
X131325952Y-83717142D02*
X131278333Y-83764761D01*
X131230714Y-83860000D01*
X131230714Y-84002857D01*
X131278333Y-84098095D01*
X131373571Y-84145714D01*
X131897380Y-84145714D01*
X131230714Y-84479047D02*
X131230714Y-84860000D01*
X130897380Y-84621904D02*
X131754523Y-84621904D01*
X131849761Y-84669523D01*
X131897380Y-84764761D01*
X131897380Y-84860000D01*
X131849761Y-85574285D02*
X131897380Y-85479047D01*
X131897380Y-85288571D01*
X131849761Y-85193333D01*
X131754523Y-85145714D01*
X131373571Y-85145714D01*
X131278333Y-85193333D01*
X131230714Y-85288571D01*
X131230714Y-85479047D01*
X131278333Y-85574285D01*
X131373571Y-85621904D01*
X131468809Y-85621904D01*
X131564047Y-85145714D01*
X131897380Y-86050476D02*
X131230714Y-86050476D01*
X131421190Y-86050476D02*
X131325952Y-86098095D01*
X131278333Y-86145714D01*
X131230714Y-86240952D01*
X131230714Y-86336190D01*
X131611666Y-87383809D02*
X131611666Y-87860000D01*
X131897380Y-87288571D02*
X130897380Y-87621904D01*
X131897380Y-87955238D01*
X130897380Y-88479047D02*
X130897380Y-88574285D01*
X130945000Y-88669523D01*
X130992619Y-88717142D01*
X131087857Y-88764761D01*
X131278333Y-88812380D01*
X131516428Y-88812380D01*
X131706904Y-88764761D01*
X131802142Y-88717142D01*
X131849761Y-88669523D01*
X131897380Y-88574285D01*
X131897380Y-88479047D01*
X131849761Y-88383809D01*
X131802142Y-88336190D01*
X131706904Y-88288571D01*
X131516428Y-88240952D01*
X131278333Y-88240952D01*
X131087857Y-88288571D01*
X130992619Y-88336190D01*
X130945000Y-88383809D01*
X130897380Y-88479047D01*
X131516428Y-89240952D02*
X131516428Y-90002857D01*
X131611666Y-90431428D02*
X131611666Y-90907619D01*
X131897380Y-90336190D02*
X130897380Y-90669523D01*
X131897380Y-91002857D01*
X130897380Y-91240952D02*
X130897380Y-91860000D01*
X131278333Y-91526666D01*
X131278333Y-91669523D01*
X131325952Y-91764761D01*
X131373571Y-91812380D01*
X131468809Y-91860000D01*
X131706904Y-91860000D01*
X131802142Y-91812380D01*
X131849761Y-91764761D01*
X131897380Y-91669523D01*
X131897380Y-91383809D01*
X131849761Y-91288571D01*
X131802142Y-91240952D01*
X113649880Y-104422380D02*
X113649880Y-103422380D01*
X113316547Y-104136666D01*
X112983214Y-103422380D01*
X112983214Y-104422380D01*
X112126071Y-104374761D02*
X112221309Y-104422380D01*
X112411785Y-104422380D01*
X112507023Y-104374761D01*
X112554642Y-104279523D01*
X112554642Y-103898571D01*
X112507023Y-103803333D01*
X112411785Y-103755714D01*
X112221309Y-103755714D01*
X112126071Y-103803333D01*
X112078452Y-103898571D01*
X112078452Y-103993809D01*
X112554642Y-104089047D01*
X111649880Y-104422380D02*
X111649880Y-103755714D01*
X111649880Y-103850952D02*
X111602261Y-103803333D01*
X111507023Y-103755714D01*
X111364166Y-103755714D01*
X111268928Y-103803333D01*
X111221309Y-103898571D01*
X111221309Y-104422380D01*
X111221309Y-103898571D02*
X111173690Y-103803333D01*
X111078452Y-103755714D01*
X110935595Y-103755714D01*
X110840357Y-103803333D01*
X110792738Y-103898571D01*
X110792738Y-104422380D01*
X110173690Y-104422380D02*
X110268928Y-104374761D01*
X110316547Y-104327142D01*
X110364166Y-104231904D01*
X110364166Y-103946190D01*
X110316547Y-103850952D01*
X110268928Y-103803333D01*
X110173690Y-103755714D01*
X110030833Y-103755714D01*
X109935595Y-103803333D01*
X109887976Y-103850952D01*
X109840357Y-103946190D01*
X109840357Y-104231904D01*
X109887976Y-104327142D01*
X109935595Y-104374761D01*
X110030833Y-104422380D01*
X110173690Y-104422380D01*
X109411785Y-104422380D02*
X109411785Y-103755714D01*
X109411785Y-103946190D02*
X109364166Y-103850952D01*
X109316547Y-103803333D01*
X109221309Y-103755714D01*
X109126071Y-103755714D01*
X108887976Y-103755714D02*
X108649880Y-104422380D01*
X108411785Y-103755714D02*
X108649880Y-104422380D01*
X108745119Y-104660476D01*
X108792738Y-104708095D01*
X108887976Y-104755714D01*
X106840357Y-104422380D02*
X106840357Y-103898571D01*
X106887976Y-103803333D01*
X106983214Y-103755714D01*
X107173690Y-103755714D01*
X107268928Y-103803333D01*
X106840357Y-104374761D02*
X106935595Y-104422380D01*
X107173690Y-104422380D01*
X107268928Y-104374761D01*
X107316547Y-104279523D01*
X107316547Y-104184285D01*
X107268928Y-104089047D01*
X107173690Y-104041428D01*
X106935595Y-104041428D01*
X106840357Y-103993809D01*
X105935595Y-104422380D02*
X105935595Y-103422380D01*
X105935595Y-104374761D02*
X106030833Y-104422380D01*
X106221309Y-104422380D01*
X106316547Y-104374761D01*
X106364166Y-104327142D01*
X106411785Y-104231904D01*
X106411785Y-103946190D01*
X106364166Y-103850952D01*
X106316547Y-103803333D01*
X106221309Y-103755714D01*
X106030833Y-103755714D01*
X105935595Y-103803333D01*
X105030833Y-104422380D02*
X105030833Y-103422380D01*
X105030833Y-104374761D02*
X105126071Y-104422380D01*
X105316547Y-104422380D01*
X105411785Y-104374761D01*
X105459404Y-104327142D01*
X105507023Y-104231904D01*
X105507023Y-103946190D01*
X105459404Y-103850952D01*
X105411785Y-103803333D01*
X105316547Y-103755714D01*
X105126071Y-103755714D01*
X105030833Y-103803333D01*
X104554642Y-104422380D02*
X104554642Y-103755714D01*
X104554642Y-103946190D02*
X104507023Y-103850952D01*
X104459404Y-103803333D01*
X104364166Y-103755714D01*
X104268928Y-103755714D01*
X103554642Y-104374761D02*
X103649880Y-104422380D01*
X103840357Y-104422380D01*
X103935595Y-104374761D01*
X103983214Y-104279523D01*
X103983214Y-103898571D01*
X103935595Y-103803333D01*
X103840357Y-103755714D01*
X103649880Y-103755714D01*
X103554642Y-103803333D01*
X103507023Y-103898571D01*
X103507023Y-103993809D01*
X103983214Y-104089047D01*
X103126071Y-104374761D02*
X103030833Y-104422380D01*
X102840357Y-104422380D01*
X102745119Y-104374761D01*
X102697500Y-104279523D01*
X102697500Y-104231904D01*
X102745119Y-104136666D01*
X102840357Y-104089047D01*
X102983214Y-104089047D01*
X103078452Y-104041428D01*
X103126071Y-103946190D01*
X103126071Y-103898571D01*
X103078452Y-103803333D01*
X102983214Y-103755714D01*
X102840357Y-103755714D01*
X102745119Y-103803333D01*
X102316547Y-104374761D02*
X102221309Y-104422380D01*
X102030833Y-104422380D01*
X101935595Y-104374761D01*
X101887976Y-104279523D01*
X101887976Y-104231904D01*
X101935595Y-104136666D01*
X102030833Y-104089047D01*
X102173690Y-104089047D01*
X102268928Y-104041428D01*
X102316547Y-103946190D01*
X102316547Y-103898571D01*
X102268928Y-103803333D01*
X102173690Y-103755714D01*
X102030833Y-103755714D01*
X101935595Y-103803333D01*
X107173690Y-106032380D02*
X107173690Y-105365714D01*
X107173690Y-105556190D02*
X107126071Y-105460952D01*
X107078452Y-105413333D01*
X106983214Y-105365714D01*
X106887976Y-105365714D01*
X106173690Y-105984761D02*
X106268928Y-106032380D01*
X106459404Y-106032380D01*
X106554642Y-105984761D01*
X106602261Y-105889523D01*
X106602261Y-105508571D01*
X106554642Y-105413333D01*
X106459404Y-105365714D01*
X106268928Y-105365714D01*
X106173690Y-105413333D01*
X106126071Y-105508571D01*
X106126071Y-105603809D01*
X106602261Y-105699047D01*
X105268928Y-105365714D02*
X105268928Y-106175238D01*
X105316547Y-106270476D01*
X105364166Y-106318095D01*
X105459404Y-106365714D01*
X105602261Y-106365714D01*
X105697500Y-106318095D01*
X105268928Y-105984761D02*
X105364166Y-106032380D01*
X105554642Y-106032380D01*
X105649880Y-105984761D01*
X105697500Y-105937142D01*
X105745119Y-105841904D01*
X105745119Y-105556190D01*
X105697500Y-105460952D01*
X105649880Y-105413333D01*
X105554642Y-105365714D01*
X105364166Y-105365714D01*
X105268928Y-105413333D01*
X104792738Y-106032380D02*
X104792738Y-105365714D01*
X104792738Y-105032380D02*
X104840357Y-105080000D01*
X104792738Y-105127619D01*
X104745119Y-105080000D01*
X104792738Y-105032380D01*
X104792738Y-105127619D01*
X104364166Y-105984761D02*
X104268928Y-106032380D01*
X104078452Y-106032380D01*
X103983214Y-105984761D01*
X103935595Y-105889523D01*
X103935595Y-105841904D01*
X103983214Y-105746666D01*
X104078452Y-105699047D01*
X104221309Y-105699047D01*
X104316547Y-105651428D01*
X104364166Y-105556190D01*
X104364166Y-105508571D01*
X104316547Y-105413333D01*
X104221309Y-105365714D01*
X104078452Y-105365714D01*
X103983214Y-105413333D01*
X103649880Y-105365714D02*
X103268928Y-105365714D01*
X103507023Y-105032380D02*
X103507023Y-105889523D01*
X103459404Y-105984761D01*
X103364166Y-106032380D01*
X103268928Y-106032380D01*
X102554642Y-105984761D02*
X102649880Y-106032380D01*
X102840357Y-106032380D01*
X102935595Y-105984761D01*
X102983214Y-105889523D01*
X102983214Y-105508571D01*
X102935595Y-105413333D01*
X102840357Y-105365714D01*
X102649880Y-105365714D01*
X102554642Y-105413333D01*
X102507023Y-105508571D01*
X102507023Y-105603809D01*
X102983214Y-105699047D01*
X102078452Y-106032380D02*
X102078452Y-105365714D01*
X102078452Y-105556190D02*
X102030833Y-105460952D01*
X101983214Y-105413333D01*
X101887976Y-105365714D01*
X101792738Y-105365714D01*
X157202142Y-81002857D02*
X157249761Y-80955238D01*
X157297380Y-80812380D01*
X157297380Y-80717142D01*
X157249761Y-80574285D01*
X157154523Y-80479047D01*
X157059285Y-80431428D01*
X156868809Y-80383809D01*
X156725952Y-80383809D01*
X156535476Y-80431428D01*
X156440238Y-80479047D01*
X156345000Y-80574285D01*
X156297380Y-80717142D01*
X156297380Y-80812380D01*
X156345000Y-80955238D01*
X156392619Y-81002857D01*
X157297380Y-81574285D02*
X157249761Y-81479047D01*
X157202142Y-81431428D01*
X157106904Y-81383809D01*
X156821190Y-81383809D01*
X156725952Y-81431428D01*
X156678333Y-81479047D01*
X156630714Y-81574285D01*
X156630714Y-81717142D01*
X156678333Y-81812380D01*
X156725952Y-81860000D01*
X156821190Y-81907619D01*
X157106904Y-81907619D01*
X157202142Y-81860000D01*
X157249761Y-81812380D01*
X157297380Y-81717142D01*
X157297380Y-81574285D01*
X156630714Y-82764761D02*
X157297380Y-82764761D01*
X156630714Y-82336190D02*
X157154523Y-82336190D01*
X157249761Y-82383809D01*
X157297380Y-82479047D01*
X157297380Y-82621904D01*
X157249761Y-82717142D01*
X157202142Y-82764761D01*
X156630714Y-83240952D02*
X157297380Y-83240952D01*
X156725952Y-83240952D02*
X156678333Y-83288571D01*
X156630714Y-83383809D01*
X156630714Y-83526666D01*
X156678333Y-83621904D01*
X156773571Y-83669523D01*
X157297380Y-83669523D01*
X156630714Y-84002857D02*
X156630714Y-84383809D01*
X156297380Y-84145714D02*
X157154523Y-84145714D01*
X157249761Y-84193333D01*
X157297380Y-84288571D01*
X157297380Y-84383809D01*
X157249761Y-85098095D02*
X157297380Y-85002857D01*
X157297380Y-84812380D01*
X157249761Y-84717142D01*
X157154523Y-84669523D01*
X156773571Y-84669523D01*
X156678333Y-84717142D01*
X156630714Y-84812380D01*
X156630714Y-85002857D01*
X156678333Y-85098095D01*
X156773571Y-85145714D01*
X156868809Y-85145714D01*
X156964047Y-84669523D01*
X157297380Y-85574285D02*
X156630714Y-85574285D01*
X156821190Y-85574285D02*
X156725952Y-85621904D01*
X156678333Y-85669523D01*
X156630714Y-85764761D01*
X156630714Y-85860000D01*
X157011666Y-86907619D02*
X157011666Y-87383809D01*
X157297380Y-86812380D02*
X156297380Y-87145714D01*
X157297380Y-87479047D01*
X156725952Y-87955238D02*
X156678333Y-87860000D01*
X156630714Y-87812380D01*
X156535476Y-87764761D01*
X156487857Y-87764761D01*
X156392619Y-87812380D01*
X156345000Y-87860000D01*
X156297380Y-87955238D01*
X156297380Y-88145714D01*
X156345000Y-88240952D01*
X156392619Y-88288571D01*
X156487857Y-88336190D01*
X156535476Y-88336190D01*
X156630714Y-88288571D01*
X156678333Y-88240952D01*
X156725952Y-88145714D01*
X156725952Y-87955238D01*
X156773571Y-87860000D01*
X156821190Y-87812380D01*
X156916428Y-87764761D01*
X157106904Y-87764761D01*
X157202142Y-87812380D01*
X157249761Y-87860000D01*
X157297380Y-87955238D01*
X157297380Y-88145714D01*
X157249761Y-88240952D01*
X157202142Y-88288571D01*
X157106904Y-88336190D01*
X156916428Y-88336190D01*
X156821190Y-88288571D01*
X156773571Y-88240952D01*
X156725952Y-88145714D01*
X156916428Y-88764761D02*
X156916428Y-89526666D01*
X157011666Y-89955238D02*
X157011666Y-90431428D01*
X157297380Y-89860000D02*
X156297380Y-90193333D01*
X157297380Y-90526666D01*
X157297380Y-91383809D02*
X157297380Y-90812380D01*
X157297380Y-91098095D02*
X156297380Y-91098095D01*
X156440238Y-91002857D01*
X156535476Y-90907619D01*
X156583095Y-90812380D01*
X157297380Y-92336190D02*
X157297380Y-91764761D01*
X157297380Y-92050476D02*
X156297380Y-92050476D01*
X156440238Y-91955238D01*
X156535476Y-91860000D01*
X156583095Y-91764761D01*
X159352857Y-128722380D02*
X159829047Y-128722380D01*
X159829047Y-127722380D01*
X158876666Y-128722380D02*
X158971904Y-128674761D01*
X159019523Y-128627142D01*
X159067142Y-128531904D01*
X159067142Y-128246190D01*
X159019523Y-128150952D01*
X158971904Y-128103333D01*
X158876666Y-128055714D01*
X158733809Y-128055714D01*
X158638571Y-128103333D01*
X158590952Y-128150952D01*
X158543333Y-128246190D01*
X158543333Y-128531904D01*
X158590952Y-128627142D01*
X158638571Y-128674761D01*
X158733809Y-128722380D01*
X158876666Y-128722380D01*
X158210000Y-128055714D02*
X158019523Y-128722380D01*
X157829047Y-128246190D01*
X157638571Y-128722380D01*
X157448095Y-128055714D01*
X155876666Y-128722380D02*
X155876666Y-128198571D01*
X155924285Y-128103333D01*
X156019523Y-128055714D01*
X156210000Y-128055714D01*
X156305238Y-128103333D01*
X155876666Y-128674761D02*
X155971904Y-128722380D01*
X156210000Y-128722380D01*
X156305238Y-128674761D01*
X156352857Y-128579523D01*
X156352857Y-128484285D01*
X156305238Y-128389047D01*
X156210000Y-128341428D01*
X155971904Y-128341428D01*
X155876666Y-128293809D01*
X154971904Y-128722380D02*
X154971904Y-127722380D01*
X154971904Y-128674761D02*
X155067142Y-128722380D01*
X155257619Y-128722380D01*
X155352857Y-128674761D01*
X155400476Y-128627142D01*
X155448095Y-128531904D01*
X155448095Y-128246190D01*
X155400476Y-128150952D01*
X155352857Y-128103333D01*
X155257619Y-128055714D01*
X155067142Y-128055714D01*
X154971904Y-128103333D01*
X154067142Y-128722380D02*
X154067142Y-127722380D01*
X154067142Y-128674761D02*
X154162380Y-128722380D01*
X154352857Y-128722380D01*
X154448095Y-128674761D01*
X154495714Y-128627142D01*
X154543333Y-128531904D01*
X154543333Y-128246190D01*
X154495714Y-128150952D01*
X154448095Y-128103333D01*
X154352857Y-128055714D01*
X154162380Y-128055714D01*
X154067142Y-128103333D01*
X153210000Y-128674761D02*
X153305238Y-128722380D01*
X153495714Y-128722380D01*
X153590952Y-128674761D01*
X153638571Y-128579523D01*
X153638571Y-128198571D01*
X153590952Y-128103333D01*
X153495714Y-128055714D01*
X153305238Y-128055714D01*
X153210000Y-128103333D01*
X153162380Y-128198571D01*
X153162380Y-128293809D01*
X153638571Y-128389047D01*
X152733809Y-128722380D02*
X152733809Y-128055714D01*
X152733809Y-128246190D02*
X152686190Y-128150952D01*
X152638571Y-128103333D01*
X152543333Y-128055714D01*
X152448095Y-128055714D01*
X133722380Y-49082142D02*
X133770000Y-49129761D01*
X133912857Y-49177380D01*
X134008095Y-49177380D01*
X134150952Y-49129761D01*
X134246190Y-49034523D01*
X134293809Y-48939285D01*
X134341428Y-48748809D01*
X134341428Y-48605952D01*
X134293809Y-48415476D01*
X134246190Y-48320238D01*
X134150952Y-48225000D01*
X134008095Y-48177380D01*
X133912857Y-48177380D01*
X133770000Y-48225000D01*
X133722380Y-48272619D01*
X133150952Y-49177380D02*
X133246190Y-49129761D01*
X133293809Y-49082142D01*
X133341428Y-48986904D01*
X133341428Y-48701190D01*
X133293809Y-48605952D01*
X133246190Y-48558333D01*
X133150952Y-48510714D01*
X133008095Y-48510714D01*
X132912857Y-48558333D01*
X132865238Y-48605952D01*
X132817619Y-48701190D01*
X132817619Y-48986904D01*
X132865238Y-49082142D01*
X132912857Y-49129761D01*
X133008095Y-49177380D01*
X133150952Y-49177380D01*
X132389047Y-48510714D02*
X132389047Y-49177380D01*
X132389047Y-48605952D02*
X132341428Y-48558333D01*
X132246190Y-48510714D01*
X132103333Y-48510714D01*
X132008095Y-48558333D01*
X131960476Y-48653571D01*
X131960476Y-49177380D01*
X131627142Y-48510714D02*
X131246190Y-48510714D01*
X131484285Y-48177380D02*
X131484285Y-49034523D01*
X131436666Y-49129761D01*
X131341428Y-49177380D01*
X131246190Y-49177380D01*
X130912857Y-49177380D02*
X130912857Y-48510714D01*
X130912857Y-48701190D02*
X130865238Y-48605952D01*
X130817619Y-48558333D01*
X130722380Y-48510714D01*
X130627142Y-48510714D01*
X130150952Y-49177380D02*
X130246190Y-49129761D01*
X130293809Y-49082142D01*
X130341428Y-48986904D01*
X130341428Y-48701190D01*
X130293809Y-48605952D01*
X130246190Y-48558333D01*
X130150952Y-48510714D01*
X130008095Y-48510714D01*
X129912857Y-48558333D01*
X129865238Y-48605952D01*
X129817619Y-48701190D01*
X129817619Y-48986904D01*
X129865238Y-49082142D01*
X129912857Y-49129761D01*
X130008095Y-49177380D01*
X130150952Y-49177380D01*
X129246190Y-49177380D02*
X129341428Y-49129761D01*
X129389047Y-49034523D01*
X129389047Y-48177380D01*
X127674761Y-48510714D02*
X127674761Y-49177380D01*
X128103333Y-48510714D02*
X128103333Y-49034523D01*
X128055714Y-49129761D01*
X127960476Y-49177380D01*
X127817619Y-49177380D01*
X127722380Y-49129761D01*
X127674761Y-49082142D01*
X127198571Y-48510714D02*
X127198571Y-49177380D01*
X127198571Y-48605952D02*
X127150952Y-48558333D01*
X127055714Y-48510714D01*
X126912857Y-48510714D01*
X126817619Y-48558333D01*
X126770000Y-48653571D01*
X126770000Y-49177380D01*
X126293809Y-49177380D02*
X126293809Y-48510714D01*
X126293809Y-48177380D02*
X126341428Y-48225000D01*
X126293809Y-48272619D01*
X126246190Y-48225000D01*
X126293809Y-48177380D01*
X126293809Y-48272619D01*
X125960476Y-48510714D02*
X125579523Y-48510714D01*
X125817619Y-48177380D02*
X125817619Y-49034523D01*
X125770000Y-49129761D01*
X125674761Y-49177380D01*
X125579523Y-49177380D01*
X124055714Y-49177380D02*
X124055714Y-48653571D01*
X124103333Y-48558333D01*
X124198571Y-48510714D01*
X124389047Y-48510714D01*
X124484285Y-48558333D01*
X124055714Y-49129761D02*
X124150952Y-49177380D01*
X124389047Y-49177380D01*
X124484285Y-49129761D01*
X124531904Y-49034523D01*
X124531904Y-48939285D01*
X124484285Y-48844047D01*
X124389047Y-48796428D01*
X124150952Y-48796428D01*
X124055714Y-48748809D01*
X123579523Y-48510714D02*
X123579523Y-49177380D01*
X123579523Y-48605952D02*
X123531904Y-48558333D01*
X123436666Y-48510714D01*
X123293809Y-48510714D01*
X123198571Y-48558333D01*
X123150952Y-48653571D01*
X123150952Y-49177380D01*
X122246190Y-49177380D02*
X122246190Y-48177380D01*
X122246190Y-49129761D02*
X122341428Y-49177380D01*
X122531904Y-49177380D01*
X122627142Y-49129761D01*
X122674761Y-49082142D01*
X122722380Y-48986904D01*
X122722380Y-48701190D01*
X122674761Y-48605952D01*
X122627142Y-48558333D01*
X122531904Y-48510714D01*
X122341428Y-48510714D01*
X122246190Y-48558333D01*
X133912857Y-50739761D02*
X134008095Y-50787380D01*
X134198571Y-50787380D01*
X134293809Y-50739761D01*
X134341428Y-50692142D01*
X134389047Y-50596904D01*
X134389047Y-50311190D01*
X134341428Y-50215952D01*
X134293809Y-50168333D01*
X134198571Y-50120714D01*
X134008095Y-50120714D01*
X133912857Y-50168333D01*
X133341428Y-50787380D02*
X133436666Y-50739761D01*
X133484285Y-50644523D01*
X133484285Y-49787380D01*
X132817619Y-50787380D02*
X132912857Y-50739761D01*
X132960476Y-50692142D01*
X133008095Y-50596904D01*
X133008095Y-50311190D01*
X132960476Y-50215952D01*
X132912857Y-50168333D01*
X132817619Y-50120714D01*
X132674761Y-50120714D01*
X132579523Y-50168333D01*
X132531904Y-50215952D01*
X132484285Y-50311190D01*
X132484285Y-50596904D01*
X132531904Y-50692142D01*
X132579523Y-50739761D01*
X132674761Y-50787380D01*
X132817619Y-50787380D01*
X131627142Y-50739761D02*
X131722380Y-50787380D01*
X131912857Y-50787380D01*
X132008095Y-50739761D01*
X132055714Y-50692142D01*
X132103333Y-50596904D01*
X132103333Y-50311190D01*
X132055714Y-50215952D01*
X132008095Y-50168333D01*
X131912857Y-50120714D01*
X131722380Y-50120714D01*
X131627142Y-50168333D01*
X131198571Y-50787380D02*
X131198571Y-49787380D01*
X131103333Y-50406428D02*
X130817619Y-50787380D01*
X130817619Y-50120714D02*
X131198571Y-50501666D01*
X129198571Y-50120714D02*
X129198571Y-50930238D01*
X129246190Y-51025476D01*
X129293809Y-51073095D01*
X129389047Y-51120714D01*
X129531904Y-51120714D01*
X129627142Y-51073095D01*
X129198571Y-50739761D02*
X129293809Y-50787380D01*
X129484285Y-50787380D01*
X129579523Y-50739761D01*
X129627142Y-50692142D01*
X129674761Y-50596904D01*
X129674761Y-50311190D01*
X129627142Y-50215952D01*
X129579523Y-50168333D01*
X129484285Y-50120714D01*
X129293809Y-50120714D01*
X129198571Y-50168333D01*
X128341428Y-50739761D02*
X128436666Y-50787380D01*
X128627142Y-50787380D01*
X128722380Y-50739761D01*
X128770000Y-50644523D01*
X128770000Y-50263571D01*
X128722380Y-50168333D01*
X128627142Y-50120714D01*
X128436666Y-50120714D01*
X128341428Y-50168333D01*
X128293809Y-50263571D01*
X128293809Y-50358809D01*
X128770000Y-50454047D01*
X127865238Y-50120714D02*
X127865238Y-50787380D01*
X127865238Y-50215952D02*
X127817619Y-50168333D01*
X127722380Y-50120714D01*
X127579523Y-50120714D01*
X127484285Y-50168333D01*
X127436666Y-50263571D01*
X127436666Y-50787380D01*
X126579523Y-50739761D02*
X126674761Y-50787380D01*
X126865238Y-50787380D01*
X126960476Y-50739761D01*
X127008095Y-50644523D01*
X127008095Y-50263571D01*
X126960476Y-50168333D01*
X126865238Y-50120714D01*
X126674761Y-50120714D01*
X126579523Y-50168333D01*
X126531904Y-50263571D01*
X126531904Y-50358809D01*
X127008095Y-50454047D01*
X126103333Y-50787380D02*
X126103333Y-50120714D01*
X126103333Y-50311190D02*
X126055714Y-50215952D01*
X126008095Y-50168333D01*
X125912857Y-50120714D01*
X125817619Y-50120714D01*
X125055714Y-50787380D02*
X125055714Y-50263571D01*
X125103333Y-50168333D01*
X125198571Y-50120714D01*
X125389047Y-50120714D01*
X125484285Y-50168333D01*
X125055714Y-50739761D02*
X125150952Y-50787380D01*
X125389047Y-50787380D01*
X125484285Y-50739761D01*
X125531904Y-50644523D01*
X125531904Y-50549285D01*
X125484285Y-50454047D01*
X125389047Y-50406428D01*
X125150952Y-50406428D01*
X125055714Y-50358809D01*
X124722380Y-50120714D02*
X124341428Y-50120714D01*
X124579523Y-49787380D02*
X124579523Y-50644523D01*
X124531904Y-50739761D01*
X124436666Y-50787380D01*
X124341428Y-50787380D01*
X124008095Y-50787380D02*
X124008095Y-50120714D01*
X124008095Y-49787380D02*
X124055714Y-49835000D01*
X124008095Y-49882619D01*
X123960476Y-49835000D01*
X124008095Y-49787380D01*
X124008095Y-49882619D01*
X123389047Y-50787380D02*
X123484285Y-50739761D01*
X123531904Y-50692142D01*
X123579523Y-50596904D01*
X123579523Y-50311190D01*
X123531904Y-50215952D01*
X123484285Y-50168333D01*
X123389047Y-50120714D01*
X123246190Y-50120714D01*
X123150952Y-50168333D01*
X123103333Y-50215952D01*
X123055714Y-50311190D01*
X123055714Y-50596904D01*
X123103333Y-50692142D01*
X123150952Y-50739761D01*
X123246190Y-50787380D01*
X123389047Y-50787380D01*
X122627142Y-50120714D02*
X122627142Y-50787380D01*
X122627142Y-50215952D02*
X122579523Y-50168333D01*
X122484285Y-50120714D01*
X122341428Y-50120714D01*
X122246190Y-50168333D01*
X122198571Y-50263571D01*
X122198571Y-50787380D01*
M02*
