M48
; DRILL file {KiCad (6.0.4)} date Mon May  2 14:31:16 2022
; FORMAT={-:-/ absolute / inch / decimal}
; #@! TF.CreationDate,2022-05-02T14:31:16-05:00
; #@! TF.GenerationSoftware,Kicad,Pcbnew,(6.0.4)
; #@! TF.FileFunction,Plated,1,2,PTH
FMAT,2
INCH
; #@! TA.AperFunction,Plated,PTH,ViaDrill
T1C0.0157
; #@! TA.AperFunction,Plated,PTH,ComponentDrill
T2C0.0276
; #@! TA.AperFunction,Plated,PTH,ComponentDrill
T3C0.0315
; #@! TA.AperFunction,Plated,PTH,ComponentDrill
T4C0.0354
; #@! TA.AperFunction,Plated,PTH,ComponentDrill
T5C0.0394
; #@! TA.AperFunction,Plated,PTH,ComponentDrill
T6C0.0433
%
G90
G05
T1
X3.22Y-2.21
X3.22Y-2.62
X3.22Y-3.02
X3.271Y-4.21
X3.363Y-3.784
X3.403Y-3.013
X3.417Y-3.907
X3.423Y-4.072
X3.425Y-3.719
X3.426Y-3.611
X3.534Y-3.091
X3.571Y-3.271
X3.608Y-3.655
X3.609Y-3.595
X3.624Y-3.801
X3.701Y-4.362
X3.807Y-3.076
X4.015Y-2.929
X4.025Y-3.025
X4.025Y-5.057
X4.031Y-4.408
X4.045Y-2.971
X4.053Y-4.453
X4.105Y-4.472
X4.124Y-5.046
X4.14Y-2.876
X4.15Y-4.199
X4.227Y-5.032
X4.237Y-2.81
X4.328Y-4.25
X4.331Y-5.011
X4.343Y-4.396
X4.373Y-3.878
X4.4Y-5.162
X4.413Y-2.785
X4.425Y-3.979
X4.426Y-4.992
X4.46Y-5.68
X4.461Y-3.576
X4.465Y-5.113
X4.537Y-4.857
X4.544Y-5.013
X4.544Y-5.208
X4.558Y-5.454
X4.604Y-5.014
X4.608Y-4.096
X4.667Y-5.013
X4.675Y-4.033
X4.682Y-3.95
X4.729Y-3.631
X4.729Y-3.705
X4.732Y-5.013
X4.762Y-3.764
X4.777Y-1.995
X4.81Y-4.26
X4.891Y-4.397
X4.939Y-5.146
X4.95Y-5.68
X4.963Y-2.672
X4.963Y-2.748
X4.963Y-2.827
X5.034Y-4.235
X5.0367Y-2.8107
X5.055Y-4.561
X5.092Y-2.745
X5.125Y-2.821
X5.1494Y-2.7156
X5.158Y-4.559
X5.1693Y-4.4047
X5.171Y-4.146
X5.222Y-2.674
X5.224Y-5.385
X5.274Y-4.519
X5.277Y-2.023
X5.31Y-4.84
X5.3622Y-3.8042
X5.392Y-3.993
X5.413Y-4.214
X5.4152Y-3.8042
X5.442Y-4.249
X5.445Y-3.992
X5.456Y-4.685
X5.4652Y-3.8032
X5.473Y-4.29
X5.476Y-4.338
X5.494Y-3.994
X5.5142Y-3.8032
X5.542Y-5.376
X5.544Y-4.667
X5.546Y-3.995
X5.59Y-3.995
X5.6082Y-3.7432
X5.61Y-4.662
X5.618Y-4.514
X5.626Y-4.288
X5.629Y-5.079
X5.65Y-4.382
X5.679Y-4.66
X5.694Y-4.428
X5.718Y-2.496
X5.72Y-4.051
X5.723Y-2.598
X5.726Y-4.235
X5.738Y-5.499
X5.745Y-4.495
X5.749Y-4.657
X5.795Y-4.434
X5.817Y-4.654
X5.819Y-2.02
X5.821Y-5.068
X5.875Y-2.525
X5.876Y-4.668
X5.925Y-2.282
X5.933Y-4.589
X5.946Y-2.724
X5.946Y-2.816
X5.952Y-4.856
X5.968Y-4.781
X5.994Y-5.453
X6.044Y-2.175
X6.047Y-5.09
X6.08Y-4.783
X6.08Y-4.964
X6.111Y-5.047
X6.154Y-5.361
X6.168Y-5.485
X6.194Y-5.044
X6.216Y-2.734
X6.216Y-5.484
X6.23Y-2.45
X6.245Y-3.995
X6.25Y-3.778
X6.255Y-5.502
X6.305Y-3.994
X6.365Y-3.995
X6.374Y-4.977
X6.385Y-2.04
X6.407Y-2.716
X6.409Y-2.812
X6.41Y-2.52
X6.425Y-3.995
X6.442Y-3.86
X6.45Y-5.52
X6.457Y-4.6
X6.468Y-5.387
X6.544Y-4.634
X6.551Y-5.128
X6.565Y-4.973
X6.6062Y-3.7422
X6.626Y-4.859
X6.646Y-5.052
X6.648Y-2.816
X6.651Y-4.902
X6.66Y-5.25
X6.678Y-5.086
X6.7Y-5.59
X6.767Y-4.998
X6.7693Y-4.1917
X6.807Y-2.815
X6.934Y-4.297
X6.94Y-4.98
T2
X3.259Y-4.659
X3.259Y-4.959
X3.909Y-5.199
X4.009Y-5.199
X4.525Y-2.125
X4.525Y-2.225
X4.525Y-2.325
X4.525Y-2.425
X4.525Y-2.525
X4.525Y-2.625
X4.525Y-2.725
X4.525Y-2.825
X4.625Y-2.125
X4.625Y-2.225
X4.625Y-2.325
X4.625Y-2.425
X4.625Y-2.525
X4.625Y-2.625
X4.625Y-2.725
X4.625Y-2.825
X4.75Y-2.125
X4.75Y-2.225
X4.75Y-2.325
X4.75Y-2.425
X4.75Y-2.525
X4.75Y-2.625
X4.75Y-2.725
X4.75Y-2.825
X4.85Y-2.125
X4.85Y-2.225
X4.85Y-2.325
X4.85Y-2.425
X4.85Y-2.525
X4.85Y-2.625
X4.85Y-2.725
X4.85Y-2.825
X5.0Y-2.125
X5.1Y-2.125
X6.75Y-2.725
X6.85Y-2.725
T3
X3.198Y-4.353
X3.2767Y-4.353
X3.4Y-4.5
X3.4Y-4.6
X3.4Y-4.7
X3.4Y-4.8
X3.4Y-4.9
X3.4Y-5.0
X3.4Y-5.1
X3.4Y-5.2
X3.4Y-5.3
X3.4Y-5.4
X3.5Y-2.075
X3.5Y-2.175
X3.5Y-2.275
X3.5Y-2.375
X3.5Y-2.475
X3.5Y-2.575
X3.5Y-2.675
X3.5Y-2.775
X3.5Y-2.875
X3.5Y-2.975
X3.5Y-3.225
X3.5Y-3.325
X3.5Y-3.425
X3.5Y-3.525
X3.5Y-3.625
X3.5Y-3.725
X3.5Y-3.825
X3.5Y-3.925
X3.5Y-4.025
X3.5Y-4.125
X3.5016Y-5.55
X3.6Y-5.55
X3.6016Y-1.925
X3.6016Y-4.27
X3.7Y-1.925
X3.7Y-4.27
X3.7Y-4.5
X3.7Y-4.6
X3.7Y-4.7
X3.7Y-4.8
X3.7Y-4.9
X3.7Y-5.0
X3.7Y-5.1
X3.7Y-5.2
X3.7Y-5.3
X3.7Y-5.4
X3.8Y-2.075
X3.8Y-2.175
X3.8Y-2.275
X3.8Y-2.375
X3.8Y-2.475
X3.8Y-2.575
X3.8Y-2.675
X3.8Y-2.775
X3.8Y-2.875
X3.8Y-2.975
X3.8Y-3.225
X3.8Y-3.325
X3.8Y-3.425
X3.8Y-3.525
X3.8Y-3.625
X3.8Y-3.725
X3.8Y-3.825
X3.8Y-3.925
X3.8Y-4.025
X3.8Y-4.125
X4.0234Y-3.125
X4.0234Y-3.225
X4.0234Y-3.325
X4.0234Y-3.425
X4.0234Y-3.525
X4.0234Y-3.625
X4.0234Y-3.725
X4.0234Y-3.825
X4.0234Y-3.925
X4.0234Y-4.025
X4.025Y-1.925
X4.025Y-2.025
X4.025Y-2.125
X4.025Y-2.225
X4.025Y-2.325
X4.025Y-2.425
X4.025Y-2.525
X4.025Y-2.625
X4.025Y-2.725
X4.025Y-2.825
X4.025Y-4.325
X4.025Y-4.925
X4.125Y-4.325
X4.125Y-4.925
X4.1266Y-2.975
X4.2Y-5.4
X4.2Y-5.4984
X4.225Y-2.975
X4.225Y-4.325
X4.225Y-4.925
X4.3234Y-3.125
X4.3234Y-3.225
X4.3234Y-3.325
X4.3234Y-3.425
X4.3234Y-3.525
X4.3234Y-3.625
X4.3234Y-3.725
X4.3234Y-3.825
X4.3234Y-3.925
X4.3234Y-4.025
X4.325Y-1.925
X4.325Y-2.025
X4.325Y-2.125
X4.325Y-2.225
X4.325Y-2.325
X4.325Y-2.425
X4.325Y-2.525
X4.325Y-2.625
X4.325Y-2.725
X4.325Y-2.825
X4.325Y-4.325
X4.325Y-4.925
X4.4Y-5.3
X4.4Y-5.6
X4.425Y-4.325
X4.425Y-4.925
X4.5Y-5.3
X4.5Y-5.6
X4.5234Y-3.125
X4.5234Y-3.225
X4.5234Y-3.325
X4.5234Y-3.425
X4.5234Y-3.525
X4.5234Y-3.625
X4.5234Y-3.725
X4.5234Y-3.825
X4.5234Y-3.925
X4.5234Y-4.025
X4.525Y-1.925
X4.525Y-4.325
X4.525Y-4.925
X4.6Y-5.3
X4.6Y-5.6
X4.6234Y-1.925
X4.625Y-2.975
X4.625Y-4.325
X4.625Y-4.925
X4.7Y-5.3
X4.7Y-5.6
X4.7234Y-2.975
X4.725Y-4.325
X4.725Y-4.925
X4.8Y-5.3
X4.8Y-5.6
X4.8234Y-3.125
X4.8234Y-3.225
X4.8234Y-3.325
X4.8234Y-3.425
X4.8234Y-3.525
X4.8234Y-3.625
X4.8234Y-3.725
X4.8234Y-3.825
X4.8234Y-3.925
X4.8234Y-4.025
X4.825Y-4.325
X4.825Y-4.925
X4.9Y-5.3
X4.9Y-5.6
X4.925Y-4.325
X4.925Y-4.925
X5.0Y-2.25
X5.0Y-2.4
X5.0Y-5.3
X5.0Y-5.6
X5.0226Y-3.0412
X5.0226Y-3.1412
X5.0226Y-3.2412
X5.0226Y-3.3412
X5.0226Y-3.4412
X5.0226Y-3.5412
X5.0226Y-3.6412
X5.0226Y-3.7412
X5.025Y-4.325
X5.025Y-4.925
X5.1Y-2.25
X5.1Y-2.4
X5.1Y-5.3
X5.1Y-5.6
X5.125Y-4.325
X5.125Y-4.925
X5.1258Y-2.8992
X5.2Y-5.3
X5.2Y-5.6
X5.2242Y-2.8992
X5.225Y-4.325
X5.225Y-4.925
X5.3Y-2.125
X5.3Y-2.225
X5.3Y-2.325
X5.3Y-2.425
X5.3Y-2.525
X5.3Y-2.625
X5.3Y-2.725
X5.3Y-5.3
X5.3Y-5.6
X5.3226Y-3.0412
X5.3226Y-3.1412
X5.3226Y-3.2412
X5.3226Y-3.3412
X5.3226Y-3.4412
X5.3226Y-3.5412
X5.3226Y-3.6412
X5.3226Y-3.7412
X5.325Y-4.325
X5.325Y-4.925
X5.4Y-1.925
X5.4984Y-1.925
X5.5226Y-3.0412
X5.5226Y-3.1412
X5.5226Y-3.2412
X5.5226Y-3.3412
X5.5226Y-3.4412
X5.5226Y-3.5412
X5.5226Y-3.6412
X5.5226Y-3.7412
X5.525Y-4.125
X5.525Y-4.725
X5.525Y-4.925
X5.6Y-2.125
X5.6Y-2.225
X5.6Y-2.325
X5.6Y-2.425
X5.6Y-2.525
X5.6Y-2.625
X5.6Y-2.725
X5.6234Y-4.925
X5.625Y-4.125
X5.625Y-4.725
X5.6258Y-2.8992
X5.7242Y-2.8992
X5.725Y-4.125
X5.725Y-4.725
X5.8Y-2.125
X5.8Y-2.225
X5.8Y-2.325
X5.8Y-2.425
X5.8Y-2.525
X5.8Y-2.625
X5.8Y-2.725
X5.8Y-4.9
X5.8Y-5.2
X5.8Y-5.3
X5.8Y-5.6
X5.8226Y-3.0412
X5.8226Y-3.1412
X5.8226Y-3.2412
X5.8226Y-3.3412
X5.8226Y-3.4412
X5.8226Y-3.5412
X5.8226Y-3.6412
X5.8226Y-3.7412
X5.825Y-4.125
X5.825Y-4.725
X5.9Y-1.925
X5.9Y-4.9
X5.9Y-5.2
X5.9Y-5.3
X5.9Y-5.6
X5.925Y-4.125
X5.925Y-4.725
X5.9984Y-1.925
X6.0Y-4.9
X6.0Y-5.2
X6.0Y-5.3
X6.0Y-5.6
X6.0226Y-3.0412
X6.0226Y-3.1412
X6.0226Y-3.2412
X6.0226Y-3.3412
X6.0226Y-3.4412
X6.0226Y-3.5412
X6.0226Y-3.6412
X6.0226Y-3.7412
X6.025Y-4.125
X6.025Y-4.725
X6.1Y-2.125
X6.1Y-2.225
X6.1Y-2.325
X6.1Y-2.425
X6.1Y-2.525
X6.1Y-2.625
X6.1Y-2.725
X6.1Y-4.9
X6.1Y-5.2
X6.1Y-5.3
X6.1Y-5.6
X6.125Y-4.125
X6.125Y-4.725
X6.1258Y-2.8992
X6.2Y-4.9
X6.2Y-5.2
X6.2Y-5.3
X6.2Y-5.6
X6.2242Y-2.8992
X6.225Y-4.125
X6.225Y-4.725
X6.3Y-2.125
X6.3Y-2.225
X6.3Y-2.325
X6.3Y-2.425
X6.3Y-2.525
X6.3Y-2.625
X6.3Y-2.725
X6.3Y-4.9
X6.3Y-5.2
X6.3Y-5.3
X6.3Y-5.6
X6.3226Y-3.0412
X6.3226Y-3.1412
X6.3226Y-3.2412
X6.3226Y-3.3412
X6.3226Y-3.4412
X6.3226Y-3.5412
X6.3226Y-3.6412
X6.3226Y-3.7412
X6.325Y-4.125
X6.325Y-4.725
X6.4Y-1.925
X6.4Y-4.9
X6.4Y-5.2
X6.4Y-5.3
X6.4Y-5.6
X6.425Y-4.125
X6.425Y-4.725
X6.4984Y-1.925
X6.5Y-4.9
X6.5Y-5.2
X6.5Y-5.3
X6.5Y-5.6
X6.5226Y-3.0412
X6.5226Y-3.1412
X6.5226Y-3.2412
X6.5226Y-3.3412
X6.5226Y-3.4412
X6.5226Y-3.5412
X6.5226Y-3.6412
X6.5226Y-3.7412
X6.525Y-4.125
X6.525Y-4.725
X6.6Y-2.125
X6.6Y-2.225
X6.6Y-2.325
X6.6Y-2.425
X6.6Y-2.525
X6.6Y-2.625
X6.6Y-2.725
X6.6Y-3.98
X6.625Y-4.125
X6.625Y-4.725
X6.6258Y-2.8992
X6.6984Y-3.98
X6.7Y-5.3
X6.7Y-5.3984
X6.7242Y-2.8992
X6.725Y-4.125
X6.725Y-4.725
X6.725Y-4.925
X6.8Y-2.25
X6.8Y-2.4429
X6.8226Y-3.0412
X6.8226Y-3.1412
X6.8226Y-3.2412
X6.8226Y-3.3412
X6.8226Y-3.4412
X6.8226Y-3.5412
X6.8226Y-3.6412
X6.8226Y-3.7412
X6.8234Y-4.925
X6.825Y-4.125
X6.825Y-4.725
T4
X3.258Y-5.065
X3.258Y-5.165
T5
X3.3Y-2.175
X3.3Y-2.275
X3.3Y-2.375
X3.3Y-2.475
X3.3Y-2.575
X3.3Y-2.675
X3.3Y-2.775
X3.3Y-2.875
X3.3Y-2.975
X3.3Y-3.075
X3.3Y-3.175
X3.3Y-3.275
X3.3Y-3.375
X3.3Y-3.475
X3.3Y-3.575
X3.3Y-3.675
X3.3Y-3.775
X3.3Y-3.875
X3.3Y-3.975
X3.3Y-4.075
T6
X3.8658Y-5.3291
X3.8658Y-5.585
X4.043Y-5.3291
X4.043Y-5.585
T0
M30
